G04 #@! TF.GenerationSoftware,KiCad,Pcbnew,no-vcs-found-7434~57~ubuntu14.04.1*
G04 #@! TF.CreationDate,2017-04-19T10:19:01+02:00*
G04 #@! TF.ProjectId,tentacle-raspi,74656E7461636C652D72617370692E6B,1.0*
G04 #@! TF.FileFunction,Soldermask,Bot*
G04 #@! TF.FilePolarity,Negative*
%FSLAX46Y46*%
G04 Gerber Fmt 4.6, Leading zero omitted, Abs format (unit mm)*
G04 Created by KiCad (PCBNEW no-vcs-found-7434~57~ubuntu14.04.1) date Wed Apr 19 10:19:01 2017*
%MOMM*%
%LPD*%
G01*
G04 APERTURE LIST*
%ADD10C,0.150000*%
%ADD11C,1.524000*%
%ADD12R,1.524000X1.524000*%
%ADD13C,1.500000*%
%ADD14C,1.800000*%
%ADD15R,1.800000X1.800000*%
%ADD16C,3.500000*%
%ADD17C,4.000000*%
G04 APERTURE END LIST*
D10*
D11*
X62250000Y-9120000D03*
X62186500Y-11660000D03*
X62313500Y-14200000D03*
X62186500Y-16740000D03*
X62313500Y-19280000D03*
D12*
X62250000Y-21820000D03*
D11*
X62250000Y-26900000D03*
X62186500Y-29440000D03*
X62313500Y-31980000D03*
X62186500Y-34520000D03*
X62313500Y-37060000D03*
D12*
X62250000Y-39600000D03*
D13*
X16290000Y-42140000D03*
X13750000Y-41987600D03*
X11210000Y-42140000D03*
X16290000Y-24360000D03*
X13750000Y-24207600D03*
X11210000Y-24360000D03*
X35040000Y-42140000D03*
X32500000Y-41987600D03*
X29960000Y-42140000D03*
X35040000Y-24360000D03*
X32500000Y-24207600D03*
X29960000Y-24360000D03*
X53790000Y-42140000D03*
X51250000Y-41987600D03*
X48710000Y-42140000D03*
X53790000Y-24360000D03*
X51250000Y-24207600D03*
X48710000Y-24360000D03*
D14*
X35103500Y-46170000D03*
D15*
X32436500Y-46170000D03*
D16*
X27436500Y-51250000D03*
X37563500Y-51250000D03*
D14*
X53853500Y-46170000D03*
D15*
X51186500Y-46170000D03*
D16*
X46186500Y-51250000D03*
X56313500Y-51250000D03*
D14*
X16353500Y-46170000D03*
D15*
X13686500Y-46170000D03*
D16*
X8686500Y-51250000D03*
X18813500Y-51250000D03*
D14*
X56630000Y-2730000D03*
X56630000Y-5270000D03*
X54090000Y-2666500D03*
X54090000Y-5333500D03*
X51550000Y-2730000D03*
X51550000Y-5270000D03*
X49010000Y-2730000D03*
X49010000Y-5270000D03*
X46470000Y-2730000D03*
X46470000Y-5270000D03*
X43930000Y-2730000D03*
X43930000Y-5270000D03*
X41390000Y-2730000D03*
X41390000Y-5270000D03*
X38850000Y-2730000D03*
X38850000Y-5270000D03*
X36310000Y-2730000D03*
X36310000Y-5270000D03*
X33770000Y-2730000D03*
X33770000Y-5270000D03*
X31230000Y-2730000D03*
X31230000Y-5270000D03*
X28690000Y-2730000D03*
X28690000Y-5270000D03*
X26150000Y-2730000D03*
X26150000Y-5270000D03*
X23610000Y-2730000D03*
X23610000Y-5270000D03*
X21070000Y-2730000D03*
X21070000Y-5270000D03*
X18530000Y-2730000D03*
X18530000Y-5270000D03*
X15990000Y-2730000D03*
X15990000Y-5270000D03*
X13450000Y-2730000D03*
X13450000Y-5270000D03*
X10910000Y-2666500D03*
X10910000Y-5333500D03*
X8370000Y-2730000D03*
X8370000Y-5270000D03*
D17*
X61500000Y-53000000D03*
X3500000Y-53000000D03*
X3500000Y-4000000D03*
X61500000Y-4000000D03*
M02*
