M48
;DRILL file {KiCad no-vcs-found-7434~57~ubuntu14.04.1} date Wed Apr 19 10:03:35 2017
;FORMAT={-:-/ absolute / metric / decimal}
FMAT,2
METRIC,TZ
T1C0.635
T2C0.700
T3C0.800
T4C0.850
T5C0.900
T6C2.000
T7C2.750
%
G90
G05
M71
T1
X2.852Y-39.83
X2.852Y-43.
X2.852Y-46.17
X2.852Y-49.34
X6.093Y-39.83
X6.093Y-43.
X6.093Y-46.17
X6.093Y-49.34
X8.686Y-46.17
X11.21Y-46.17
X12.25Y-49.34
X15.Y-15.5
X15.Y-17.5
X15.Y-49.34
X17.Y-15.5
X17.Y-17.5
X19.Y-15.5
X19.Y-17.5
X19.75Y-39.83
X19.75Y-43.
X19.75Y-46.17
X20.275Y-13.525
X23.5Y-10.625
X24.575Y-12.35
X25.5Y-46.17
X27.77Y-46.17
X29.96Y-46.17
X31.Y-49.34
X33.75Y-15.5
X33.75Y-17.5
X33.75Y-49.34
X35.75Y-15.5
X35.75Y-17.5
X37.75Y-15.5
X37.75Y-17.5
X38.5Y-39.83
X38.5Y-43.
X38.5Y-46.17
X39.025Y-13.525
X42.25Y-10.625
X43.325Y-12.35
T2
X11.21Y-24.36
X11.21Y-42.14
X13.75Y-24.208
X13.75Y-41.988
X16.29Y-24.36
X16.29Y-42.14
X29.96Y-24.36
X29.96Y-42.14
X32.5Y-24.208
X32.5Y-41.988
X35.04Y-24.36
X35.04Y-42.14
X48.71Y-24.36
X48.71Y-42.14
X51.25Y-24.208
X51.25Y-41.988
X53.79Y-24.36
X53.79Y-42.14
T3
X13.686Y-46.17
X16.354Y-46.17
X32.436Y-46.17
X35.103Y-46.17
X51.186Y-46.17
X53.853Y-46.17
T4
X62.186Y-11.66
X62.186Y-16.74
X62.186Y-29.44
X62.186Y-34.52
X62.25Y-9.12
X62.25Y-21.82
X62.25Y-26.9
X62.25Y-39.6
X62.313Y-14.2
X62.313Y-19.28
X62.313Y-31.98
X62.313Y-37.06
T5
X8.37Y-2.73
X8.37Y-5.27
X10.91Y-2.667
X10.91Y-5.333
X13.45Y-2.73
X13.45Y-5.27
X15.99Y-2.73
X15.99Y-5.27
X18.53Y-2.73
X18.53Y-5.27
X21.07Y-2.73
X21.07Y-5.27
X23.61Y-2.73
X23.61Y-5.27
X26.15Y-2.73
X26.15Y-5.27
X28.69Y-2.73
X28.69Y-5.27
X31.23Y-2.73
X31.23Y-5.27
X33.77Y-2.73
X33.77Y-5.27
X36.31Y-2.73
X36.31Y-5.27
X38.85Y-2.73
X38.85Y-5.27
X41.39Y-2.73
X41.39Y-5.27
X43.93Y-2.73
X43.93Y-5.27
X46.47Y-2.73
X46.47Y-5.27
X49.01Y-2.73
X49.01Y-5.27
X51.55Y-2.73
X51.55Y-5.27
X54.09Y-2.667
X54.09Y-5.333
X56.63Y-2.73
X56.63Y-5.27
T6
X8.686Y-51.25
X18.813Y-51.25
X27.436Y-51.25
X37.563Y-51.25
X46.186Y-51.25
X56.313Y-51.25
T7
X3.5Y-4.
X3.5Y-53.
X61.5Y-4.
X61.5Y-53.
T0
M30
