G04 #@! TF.GenerationSoftware,KiCad,Pcbnew,no-vcs-found-7434~57~ubuntu14.04.1*
G04 #@! TF.CreationDate,2017-04-19T10:19:01+02:00*
G04 #@! TF.ProjectId,tentacle-raspi,74656E7461636C652D72617370692E6B,1.0*
G04 #@! TF.FileFunction,Copper,L2,Bot,Signal*
G04 #@! TF.FilePolarity,Positive*
%FSLAX46Y46*%
G04 Gerber Fmt 4.6, Leading zero omitted, Abs format (unit mm)*
G04 Created by KiCad (PCBNEW no-vcs-found-7434~57~ubuntu14.04.1) date Wed Apr 19 10:19:01 2017*
%MOMM*%
%LPD*%
G01*
G04 APERTURE LIST*
%ADD10C,0.150000*%
%ADD11C,0.050000*%
%ADD12C,0.002540*%
%ADD13C,1.524000*%
%ADD14R,1.524000X1.524000*%
%ADD15C,1.500000*%
%ADD16C,1.800000*%
%ADD17R,1.800000X1.800000*%
%ADD18C,3.500000*%
%ADD19C,4.000000*%
%ADD20C,0.889000*%
%ADD21C,0.500000*%
%ADD22C,0.254000*%
%ADD23C,0.203000*%
%ADD24C,0.250000*%
G04 APERTURE END LIST*
D10*
D11*
X5045000Y-19218333D02*
X5045000Y-18868333D01*
X4928333Y-18985000D02*
X4795000Y-18985000D01*
X4878333Y-18868333D02*
X4878333Y-19168333D01*
X4861666Y-19201666D01*
X4828333Y-19218333D01*
X4795000Y-19218333D01*
X4261666Y-19201666D02*
X4295000Y-19218333D01*
X4361666Y-19218333D01*
X4395000Y-19201666D01*
X4411666Y-19185000D01*
X4428333Y-19151666D01*
X4428333Y-19051666D01*
X4411666Y-19018333D01*
X4395000Y-19001666D01*
X4361666Y-18985000D01*
X4295000Y-18985000D01*
X4261666Y-19001666D01*
X3961666Y-19218333D02*
X3961666Y-19035000D01*
X3978333Y-19001666D01*
X4011666Y-18985000D01*
X4078333Y-18985000D01*
X4111666Y-19001666D01*
X3961666Y-19201666D02*
X3995000Y-19218333D01*
X4078333Y-19218333D01*
X4111666Y-19201666D01*
X4128333Y-19168333D01*
X4128333Y-19135000D01*
X4111666Y-19101666D01*
X4078333Y-19085000D01*
X3995000Y-19085000D01*
X3961666Y-19068333D01*
X3795000Y-18985000D02*
X3795000Y-19218333D01*
X3795000Y-19018333D02*
X3778333Y-19001666D01*
X3745000Y-18985000D01*
X3695000Y-18985000D01*
X3661666Y-19001666D01*
X3645000Y-19035000D01*
X3645000Y-19218333D01*
X3211666Y-19218333D02*
X3211666Y-18868333D01*
X3211666Y-19001666D02*
X3178333Y-18985000D01*
X3111666Y-18985000D01*
X3078333Y-19001666D01*
X3061666Y-19018333D01*
X3045000Y-19051666D01*
X3045000Y-19151666D01*
X3061666Y-19185000D01*
X3078333Y-19201666D01*
X3111666Y-19218333D01*
X3178333Y-19218333D01*
X3211666Y-19201666D01*
X2761666Y-19201666D02*
X2795000Y-19218333D01*
X2861666Y-19218333D01*
X2895000Y-19201666D01*
X2911666Y-19168333D01*
X2911666Y-19035000D01*
X2895000Y-19001666D01*
X2861666Y-18985000D01*
X2795000Y-18985000D01*
X2761666Y-19001666D01*
X2745000Y-19035000D01*
X2745000Y-19068333D01*
X2911666Y-19101666D01*
X2178333Y-19218333D02*
X2178333Y-18868333D01*
X2178333Y-19201666D02*
X2211666Y-19218333D01*
X2278333Y-19218333D01*
X2311666Y-19201666D01*
X2328333Y-19185000D01*
X2345000Y-19151666D01*
X2345000Y-19051666D01*
X2328333Y-19018333D01*
X2311666Y-19001666D01*
X2278333Y-18985000D01*
X2211666Y-18985000D01*
X2178333Y-19001666D01*
X1961666Y-19218333D02*
X1995000Y-19201666D01*
X2011666Y-19185000D01*
X2028333Y-19151666D01*
X2028333Y-19051666D01*
X2011666Y-19018333D01*
X1995000Y-19001666D01*
X1961666Y-18985000D01*
X1911666Y-18985000D01*
X1878333Y-19001666D01*
X1861666Y-19018333D01*
X1845000Y-19051666D01*
X1845000Y-19151666D01*
X1861666Y-19185000D01*
X1878333Y-19201666D01*
X1911666Y-19218333D01*
X1961666Y-19218333D01*
X1695000Y-18985000D02*
X1695000Y-19218333D01*
X1695000Y-19018333D02*
X1678333Y-19001666D01*
X1645000Y-18985000D01*
X1595000Y-18985000D01*
X1561666Y-19001666D01*
X1545000Y-19035000D01*
X1545000Y-19218333D01*
X1245000Y-19201666D02*
X1278333Y-19218333D01*
X1345000Y-19218333D01*
X1378333Y-19201666D01*
X1395000Y-19168333D01*
X1395000Y-19035000D01*
X1378333Y-19001666D01*
X1345000Y-18985000D01*
X1278333Y-18985000D01*
X1245000Y-19001666D01*
X1228333Y-19035000D01*
X1228333Y-19068333D01*
X1395000Y-19101666D01*
X1078333Y-19185000D02*
X1061666Y-19201666D01*
X1078333Y-19218333D01*
X1095000Y-19201666D01*
X1078333Y-19185000D01*
X1078333Y-19218333D01*
X1078333Y-19085000D02*
X1095000Y-18885000D01*
X1078333Y-18868333D01*
X1061666Y-18885000D01*
X1078333Y-19085000D01*
X1078333Y-18868333D01*
X911666Y-19185000D02*
X895000Y-19201666D01*
X911666Y-19218333D01*
X928333Y-19201666D01*
X911666Y-19185000D01*
X911666Y-19218333D01*
X911666Y-19085000D02*
X928333Y-18885000D01*
X911666Y-18868333D01*
X895000Y-18885000D01*
X911666Y-19085000D01*
X911666Y-18868333D01*
X745000Y-19185000D02*
X728333Y-19201666D01*
X745000Y-19218333D01*
X761666Y-19201666D01*
X745000Y-19185000D01*
X745000Y-19218333D01*
X745000Y-19085000D02*
X761666Y-18885000D01*
X745000Y-18868333D01*
X728333Y-18885000D01*
X745000Y-19085000D01*
X745000Y-18868333D01*
D12*
G36*
X2002220Y-16118340D02*
X2007300Y-16125960D01*
X2040320Y-16118340D01*
X2045400Y-16087860D01*
X2025080Y-16042140D01*
X2007300Y-16052300D01*
X2002220Y-16118340D01*
X2002220Y-16118340D01*
X2002220Y-16118340D01*
G37*
X2002220Y-16118340D02*
X2007300Y-16125960D01*
X2040320Y-16118340D01*
X2045400Y-16087860D01*
X2025080Y-16042140D01*
X2007300Y-16052300D01*
X2002220Y-16118340D01*
X2002220Y-16118340D01*
G36*
X2655000Y-16783820D02*
X2682940Y-16811760D01*
X2710880Y-16783820D01*
X2682940Y-16755880D01*
X2655000Y-16783820D01*
X2655000Y-16783820D01*
X2655000Y-16783820D01*
G37*
X2655000Y-16783820D02*
X2682940Y-16811760D01*
X2710880Y-16783820D01*
X2682940Y-16755880D01*
X2655000Y-16783820D01*
X2655000Y-16783820D01*
G36*
X1321500Y-16887960D02*
X1362140Y-16938760D01*
X1377380Y-16948920D01*
X1430720Y-16964160D01*
X1433260Y-16956540D01*
X1395160Y-16905740D01*
X1377380Y-16895580D01*
X1326580Y-16880340D01*
X1321500Y-16887960D01*
X1321500Y-16887960D01*
X1321500Y-16887960D01*
G37*
X1321500Y-16887960D02*
X1362140Y-16938760D01*
X1377380Y-16948920D01*
X1430720Y-16964160D01*
X1433260Y-16956540D01*
X1395160Y-16905740D01*
X1377380Y-16895580D01*
X1326580Y-16880340D01*
X1321500Y-16887960D01*
X1321500Y-16887960D01*
G36*
X1557720Y-17119100D02*
X1562800Y-17124180D01*
X1595820Y-17119100D01*
X1600900Y-17088620D01*
X1580580Y-17042900D01*
X1562800Y-17050520D01*
X1557720Y-17119100D01*
X1557720Y-17119100D01*
X1557720Y-17119100D01*
G37*
X1557720Y-17119100D02*
X1562800Y-17124180D01*
X1595820Y-17119100D01*
X1600900Y-17088620D01*
X1580580Y-17042900D01*
X1562800Y-17050520D01*
X1557720Y-17119100D01*
X1557720Y-17119100D01*
G36*
X1301180Y-16115800D02*
X1324040Y-16280900D01*
X1339280Y-16319000D01*
X1410400Y-16463780D01*
X1501840Y-16565380D01*
X1621220Y-16628880D01*
X1621220Y-16570460D01*
X1644080Y-16550140D01*
X1730440Y-16542520D01*
X1750760Y-16555220D01*
X1735520Y-16580620D01*
X1677100Y-16585700D01*
X1621220Y-16570460D01*
X1621220Y-16628880D01*
X1639000Y-16639040D01*
X1852360Y-16712700D01*
X1890460Y-16722860D01*
X2080960Y-16781280D01*
X2177480Y-16829540D01*
X2202880Y-16885420D01*
X2167320Y-16961620D01*
X2157160Y-16974320D01*
X2139380Y-17096240D01*
X2162240Y-17154660D01*
X2182560Y-17230860D01*
X2119060Y-17256260D01*
X2088580Y-17256260D01*
X1943800Y-17228320D01*
X1809180Y-17174980D01*
X1702500Y-17126720D01*
X1659320Y-17139420D01*
X1654240Y-17169900D01*
X1705040Y-17241020D01*
X1829500Y-17301980D01*
X1994600Y-17347700D01*
X2159700Y-17368020D01*
X2294320Y-17355320D01*
X2342580Y-17329920D01*
X2373060Y-17246100D01*
X2378140Y-17192760D01*
X2423860Y-17108940D01*
X2568640Y-17042900D01*
X2596580Y-17032740D01*
X2779460Y-16954000D01*
X2926780Y-16829540D01*
X3015680Y-16689840D01*
X3025840Y-16575540D01*
X3025840Y-16494260D01*
X3051240Y-16479020D01*
X3099500Y-16435840D01*
X3099500Y-16415520D01*
X3058860Y-16377420D01*
X3023300Y-16382500D01*
X2919160Y-16377420D01*
X2886140Y-16354560D01*
X2850580Y-16341860D01*
X2848040Y-16425680D01*
X2855660Y-16484100D01*
X2860740Y-16639040D01*
X2799780Y-16748260D01*
X2764220Y-16783820D01*
X2667700Y-16852400D01*
X2619440Y-16832080D01*
X2614360Y-16824460D01*
X2563560Y-16758420D01*
X2520380Y-16778740D01*
X2522920Y-16852400D01*
X2535620Y-16910820D01*
X2502600Y-16877800D01*
X2375600Y-16768580D01*
X2192720Y-16682220D01*
X2002220Y-16644120D01*
X1984440Y-16644120D01*
X1867600Y-16626340D01*
X1821880Y-16588240D01*
X1865060Y-16534900D01*
X1877760Y-16532360D01*
X1931100Y-16489180D01*
X1933640Y-16473940D01*
X1890460Y-16440920D01*
X1826960Y-16448540D01*
X1644080Y-16461240D01*
X1478980Y-16390120D01*
X1385000Y-16275820D01*
X1331660Y-16143740D01*
X1334200Y-16100560D01*
X1397700Y-16136120D01*
X1402780Y-16141200D01*
X1484060Y-16174220D01*
X1514540Y-16151360D01*
X1580580Y-16105640D01*
X1720280Y-16042140D01*
X1829500Y-16004040D01*
X2124140Y-15943080D01*
X2360360Y-15976100D01*
X2538160Y-16103100D01*
X2616900Y-16227560D01*
X2690560Y-16400280D01*
X2705800Y-16494260D01*
X2662620Y-16532360D01*
X2634680Y-16532360D01*
X2522920Y-16484100D01*
X2439100Y-16354560D01*
X2418780Y-16265660D01*
X2385760Y-16138660D01*
X2352740Y-16115800D01*
X2327340Y-16197080D01*
X2322260Y-16301220D01*
X2342580Y-16479020D01*
X2406080Y-16570460D01*
X2418780Y-16580620D01*
X2568640Y-16606020D01*
X2700720Y-16537440D01*
X2779460Y-16400280D01*
X2784540Y-16385040D01*
X2766760Y-16212320D01*
X2662620Y-16062460D01*
X2487360Y-15953240D01*
X2268920Y-15889740D01*
X2022540Y-15887200D01*
X1900620Y-15912600D01*
X1717740Y-15953240D01*
X1562800Y-15976100D01*
X1522160Y-15978640D01*
X1367220Y-16014200D01*
X1301180Y-16115800D01*
X1301180Y-16115800D01*
X1301180Y-16115800D01*
G37*
X1301180Y-16115800D02*
X1324040Y-16280900D01*
X1339280Y-16319000D01*
X1410400Y-16463780D01*
X1501840Y-16565380D01*
X1621220Y-16628880D01*
X1621220Y-16570460D01*
X1644080Y-16550140D01*
X1730440Y-16542520D01*
X1750760Y-16555220D01*
X1735520Y-16580620D01*
X1677100Y-16585700D01*
X1621220Y-16570460D01*
X1621220Y-16628880D01*
X1639000Y-16639040D01*
X1852360Y-16712700D01*
X1890460Y-16722860D01*
X2080960Y-16781280D01*
X2177480Y-16829540D01*
X2202880Y-16885420D01*
X2167320Y-16961620D01*
X2157160Y-16974320D01*
X2139380Y-17096240D01*
X2162240Y-17154660D01*
X2182560Y-17230860D01*
X2119060Y-17256260D01*
X2088580Y-17256260D01*
X1943800Y-17228320D01*
X1809180Y-17174980D01*
X1702500Y-17126720D01*
X1659320Y-17139420D01*
X1654240Y-17169900D01*
X1705040Y-17241020D01*
X1829500Y-17301980D01*
X1994600Y-17347700D01*
X2159700Y-17368020D01*
X2294320Y-17355320D01*
X2342580Y-17329920D01*
X2373060Y-17246100D01*
X2378140Y-17192760D01*
X2423860Y-17108940D01*
X2568640Y-17042900D01*
X2596580Y-17032740D01*
X2779460Y-16954000D01*
X2926780Y-16829540D01*
X3015680Y-16689840D01*
X3025840Y-16575540D01*
X3025840Y-16494260D01*
X3051240Y-16479020D01*
X3099500Y-16435840D01*
X3099500Y-16415520D01*
X3058860Y-16377420D01*
X3023300Y-16382500D01*
X2919160Y-16377420D01*
X2886140Y-16354560D01*
X2850580Y-16341860D01*
X2848040Y-16425680D01*
X2855660Y-16484100D01*
X2860740Y-16639040D01*
X2799780Y-16748260D01*
X2764220Y-16783820D01*
X2667700Y-16852400D01*
X2619440Y-16832080D01*
X2614360Y-16824460D01*
X2563560Y-16758420D01*
X2520380Y-16778740D01*
X2522920Y-16852400D01*
X2535620Y-16910820D01*
X2502600Y-16877800D01*
X2375600Y-16768580D01*
X2192720Y-16682220D01*
X2002220Y-16644120D01*
X1984440Y-16644120D01*
X1867600Y-16626340D01*
X1821880Y-16588240D01*
X1865060Y-16534900D01*
X1877760Y-16532360D01*
X1931100Y-16489180D01*
X1933640Y-16473940D01*
X1890460Y-16440920D01*
X1826960Y-16448540D01*
X1644080Y-16461240D01*
X1478980Y-16390120D01*
X1385000Y-16275820D01*
X1331660Y-16143740D01*
X1334200Y-16100560D01*
X1397700Y-16136120D01*
X1402780Y-16141200D01*
X1484060Y-16174220D01*
X1514540Y-16151360D01*
X1580580Y-16105640D01*
X1720280Y-16042140D01*
X1829500Y-16004040D01*
X2124140Y-15943080D01*
X2360360Y-15976100D01*
X2538160Y-16103100D01*
X2616900Y-16227560D01*
X2690560Y-16400280D01*
X2705800Y-16494260D01*
X2662620Y-16532360D01*
X2634680Y-16532360D01*
X2522920Y-16484100D01*
X2439100Y-16354560D01*
X2418780Y-16265660D01*
X2385760Y-16138660D01*
X2352740Y-16115800D01*
X2327340Y-16197080D01*
X2322260Y-16301220D01*
X2342580Y-16479020D01*
X2406080Y-16570460D01*
X2418780Y-16580620D01*
X2568640Y-16606020D01*
X2700720Y-16537440D01*
X2779460Y-16400280D01*
X2784540Y-16385040D01*
X2766760Y-16212320D01*
X2662620Y-16062460D01*
X2487360Y-15953240D01*
X2268920Y-15889740D01*
X2022540Y-15887200D01*
X1900620Y-15912600D01*
X1717740Y-15953240D01*
X1562800Y-15976100D01*
X1522160Y-15978640D01*
X1367220Y-16014200D01*
X1301180Y-16115800D01*
X1301180Y-16115800D01*
G36*
X1420560Y-14373360D02*
X1440880Y-14434320D01*
X1501840Y-14505440D01*
X1616140Y-14599420D01*
X1755840Y-14683240D01*
X1895540Y-14749280D01*
X1999680Y-14779760D01*
X2045400Y-14761980D01*
X2045400Y-14759440D01*
X1997140Y-14701020D01*
X1941260Y-14673080D01*
X1829500Y-14612120D01*
X1697420Y-14513060D01*
X1687260Y-14502900D01*
X1562800Y-14408920D01*
X1468820Y-14365740D01*
X1420560Y-14373360D01*
X1420560Y-14373360D01*
X1420560Y-14373360D01*
G37*
X1420560Y-14373360D02*
X1440880Y-14434320D01*
X1501840Y-14505440D01*
X1616140Y-14599420D01*
X1755840Y-14683240D01*
X1895540Y-14749280D01*
X1999680Y-14779760D01*
X2045400Y-14761980D01*
X2045400Y-14759440D01*
X1997140Y-14701020D01*
X1941260Y-14673080D01*
X1829500Y-14612120D01*
X1697420Y-14513060D01*
X1687260Y-14502900D01*
X1562800Y-14408920D01*
X1468820Y-14365740D01*
X1420560Y-14373360D01*
X1420560Y-14373360D01*
G36*
X2378140Y-14734040D02*
X2395920Y-14779760D01*
X2459420Y-14759440D01*
X2512760Y-14723880D01*
X2609280Y-14670540D01*
X2652460Y-14683240D01*
X2665160Y-14718800D01*
X2695640Y-14754360D01*
X2774380Y-14741660D01*
X2916620Y-14680700D01*
X3015680Y-14629900D01*
X3173160Y-14543540D01*
X3269680Y-14474960D01*
X3287460Y-14439400D01*
X3284920Y-14439400D01*
X3193480Y-14447020D01*
X3061400Y-14497820D01*
X3051240Y-14502900D01*
X2911540Y-14551160D01*
X2802320Y-14556240D01*
X2797240Y-14553700D01*
X2682940Y-14551160D01*
X2545780Y-14589260D01*
X2428940Y-14657840D01*
X2378140Y-14734040D01*
X2378140Y-14734040D01*
X2378140Y-14734040D01*
X2378140Y-14734040D01*
G37*
X2378140Y-14734040D02*
X2395920Y-14779760D01*
X2459420Y-14759440D01*
X2512760Y-14723880D01*
X2609280Y-14670540D01*
X2652460Y-14683240D01*
X2665160Y-14718800D01*
X2695640Y-14754360D01*
X2774380Y-14741660D01*
X2916620Y-14680700D01*
X3015680Y-14629900D01*
X3173160Y-14543540D01*
X3269680Y-14474960D01*
X3287460Y-14439400D01*
X3284920Y-14439400D01*
X3193480Y-14447020D01*
X3061400Y-14497820D01*
X3051240Y-14502900D01*
X2911540Y-14551160D01*
X2802320Y-14556240D01*
X2797240Y-14553700D01*
X2682940Y-14551160D01*
X2545780Y-14589260D01*
X2428940Y-14657840D01*
X2378140Y-14734040D01*
X2378140Y-14734040D01*
X2378140Y-14734040D01*
G36*
X879540Y-14866120D02*
X927800Y-14904220D01*
X1042100Y-14922000D01*
X1042100Y-14922000D01*
X1158940Y-14937240D01*
X1181800Y-14985500D01*
X1176720Y-15005820D01*
X1176720Y-15051540D01*
X1237680Y-15079480D01*
X1382460Y-15087100D01*
X1478980Y-15087100D01*
X1664400Y-15079480D01*
X1799020Y-15059160D01*
X1849820Y-15033760D01*
X1824420Y-14995660D01*
X1707580Y-14977880D01*
X1664400Y-14977880D01*
X1489140Y-14955020D01*
X1412940Y-14894060D01*
X1349440Y-14848340D01*
X1224980Y-14817860D01*
X1077660Y-14807700D01*
X950660Y-14817860D01*
X882080Y-14853420D01*
X879540Y-14866120D01*
X879540Y-14866120D01*
X879540Y-14866120D01*
G37*
X879540Y-14866120D02*
X927800Y-14904220D01*
X1042100Y-14922000D01*
X1042100Y-14922000D01*
X1158940Y-14937240D01*
X1181800Y-14985500D01*
X1176720Y-15005820D01*
X1176720Y-15051540D01*
X1237680Y-15079480D01*
X1382460Y-15087100D01*
X1478980Y-15087100D01*
X1664400Y-15079480D01*
X1799020Y-15059160D01*
X1849820Y-15033760D01*
X1824420Y-14995660D01*
X1707580Y-14977880D01*
X1664400Y-14977880D01*
X1489140Y-14955020D01*
X1412940Y-14894060D01*
X1349440Y-14848340D01*
X1224980Y-14817860D01*
X1077660Y-14807700D01*
X950660Y-14817860D01*
X882080Y-14853420D01*
X879540Y-14866120D01*
X879540Y-14866120D01*
G36*
X2624520Y-15079480D02*
X2698180Y-15120120D01*
X2840420Y-15142980D01*
X2893760Y-15145520D01*
X3033460Y-15153140D01*
X3069020Y-15176000D01*
X3046160Y-15198860D01*
X2995360Y-15239500D01*
X3000440Y-15272520D01*
X3076640Y-15308080D01*
X3239200Y-15358880D01*
X3330640Y-15386820D01*
X3546540Y-15447780D01*
X3665920Y-15470640D01*
X3698940Y-15457940D01*
X3658300Y-15412220D01*
X3632900Y-15391900D01*
X3505900Y-15325860D01*
X3422080Y-15310620D01*
X3338260Y-15275060D01*
X3320480Y-15234420D01*
X3302700Y-15170920D01*
X3226500Y-15122660D01*
X3079180Y-15087100D01*
X2870900Y-15054080D01*
X2700720Y-15038840D01*
X2624520Y-15049000D01*
X2624520Y-15079480D01*
X2624520Y-15079480D01*
X2624520Y-15079480D01*
G37*
X2624520Y-15079480D02*
X2698180Y-15120120D01*
X2840420Y-15142980D01*
X2893760Y-15145520D01*
X3033460Y-15153140D01*
X3069020Y-15176000D01*
X3046160Y-15198860D01*
X2995360Y-15239500D01*
X3000440Y-15272520D01*
X3076640Y-15308080D01*
X3239200Y-15358880D01*
X3330640Y-15386820D01*
X3546540Y-15447780D01*
X3665920Y-15470640D01*
X3698940Y-15457940D01*
X3658300Y-15412220D01*
X3632900Y-15391900D01*
X3505900Y-15325860D01*
X3422080Y-15310620D01*
X3338260Y-15275060D01*
X3320480Y-15234420D01*
X3302700Y-15170920D01*
X3226500Y-15122660D01*
X3079180Y-15087100D01*
X2870900Y-15054080D01*
X2700720Y-15038840D01*
X2624520Y-15049000D01*
X2624520Y-15079480D01*
X2624520Y-15079480D01*
G36*
X3711640Y-16395200D02*
X3739580Y-16420600D01*
X3767520Y-16395200D01*
X3739580Y-16367260D01*
X3711640Y-16395200D01*
X3711640Y-16395200D01*
X3711640Y-16395200D01*
G37*
X3711640Y-16395200D02*
X3739580Y-16420600D01*
X3767520Y-16395200D01*
X3739580Y-16367260D01*
X3711640Y-16395200D01*
X3711640Y-16395200D01*
G36*
X3988500Y-17388340D02*
X4029140Y-17439140D01*
X4044380Y-17449300D01*
X4097720Y-17464540D01*
X4100260Y-17456920D01*
X4062160Y-17406120D01*
X4044380Y-17395960D01*
X3993580Y-17380720D01*
X3988500Y-17388340D01*
X3988500Y-17388340D01*
X3988500Y-17388340D01*
G37*
X3988500Y-17388340D02*
X4029140Y-17439140D01*
X4044380Y-17449300D01*
X4097720Y-17464540D01*
X4100260Y-17456920D01*
X4062160Y-17406120D01*
X4044380Y-17395960D01*
X3993580Y-17380720D01*
X3988500Y-17388340D01*
X3988500Y-17388340D01*
G36*
X943040Y-16199620D02*
X958280Y-16499340D01*
X1031940Y-16707620D01*
X1031940Y-16397740D01*
X1039560Y-16125960D01*
X1125920Y-15887200D01*
X1194500Y-15798300D01*
X1387540Y-15650980D01*
X1649160Y-15544300D01*
X1943800Y-15485880D01*
X2235900Y-15478260D01*
X2484820Y-15534140D01*
X2533080Y-15557000D01*
X2759140Y-15722100D01*
X2952180Y-15950700D01*
X3091880Y-16212320D01*
X3155380Y-16466320D01*
X3155380Y-16504420D01*
X3107120Y-16735560D01*
X2975040Y-16969240D01*
X2782000Y-17177520D01*
X2670240Y-17258800D01*
X2362900Y-17390880D01*
X2042860Y-17416280D01*
X1712660Y-17332460D01*
X1679640Y-17317220D01*
X1430720Y-17154660D01*
X1235140Y-16931140D01*
X1100520Y-16672060D01*
X1031940Y-16397740D01*
X1031940Y-16707620D01*
X1064960Y-16804140D01*
X1265620Y-17103860D01*
X1278320Y-17114020D01*
X1435800Y-17271500D01*
X1605980Y-17380720D01*
X1826960Y-17459460D01*
X1997140Y-17500100D01*
X2129220Y-17576300D01*
X2187640Y-17731240D01*
X2164780Y-17952220D01*
X2124140Y-18089380D01*
X2065720Y-18300200D01*
X2060640Y-18472920D01*
X2065720Y-18495780D01*
X2111440Y-18602460D01*
X2124140Y-18607540D01*
X2124140Y-18378940D01*
X2139380Y-18290040D01*
X2182560Y-18196060D01*
X2228280Y-18099540D01*
X2246060Y-18089380D01*
X2240980Y-18107160D01*
X2240980Y-18203680D01*
X2279080Y-18302740D01*
X2329880Y-18371320D01*
X2380680Y-18378940D01*
X2395920Y-18356080D01*
X2418780Y-18328140D01*
X2428940Y-18378940D01*
X2390840Y-18457680D01*
X2289240Y-18475460D01*
X2167320Y-18429740D01*
X2124140Y-18378940D01*
X2124140Y-18607540D01*
X2205420Y-18640560D01*
X2284160Y-18645640D01*
X2322260Y-18648180D01*
X2322260Y-18561820D01*
X2350200Y-18533880D01*
X2378140Y-18561820D01*
X2350200Y-18587220D01*
X2322260Y-18561820D01*
X2322260Y-18648180D01*
X2426400Y-18658340D01*
X2517840Y-18693900D01*
X2520380Y-18693900D01*
X2576260Y-18719300D01*
X2576260Y-18462760D01*
X2588960Y-18290040D01*
X2621980Y-18201140D01*
X2690560Y-18165580D01*
X2779460Y-18155420D01*
X2916620Y-18135100D01*
X2980120Y-18112240D01*
X2952180Y-18094460D01*
X2863280Y-18089380D01*
X2743900Y-18074140D01*
X2690560Y-18046200D01*
X2721040Y-18018260D01*
X2830260Y-18005560D01*
X2848040Y-18005560D01*
X2982660Y-18030960D01*
X3020760Y-18091920D01*
X2969960Y-18155420D01*
X2845500Y-18201140D01*
X2741360Y-18234160D01*
X2748980Y-18272260D01*
X2754060Y-18272260D01*
X2860740Y-18295120D01*
X2934400Y-18282420D01*
X3013140Y-18262100D01*
X3038540Y-18284960D01*
X3015680Y-18376400D01*
X2987740Y-18462760D01*
X2934400Y-18574520D01*
X2858200Y-18607540D01*
X2748980Y-18592300D01*
X2611820Y-18536420D01*
X2576260Y-18462760D01*
X2576260Y-18719300D01*
X2604200Y-18729460D01*
X2761680Y-18759940D01*
X2957260Y-18782800D01*
X3155380Y-18792960D01*
X3325560Y-18790420D01*
X3437320Y-18775180D01*
X3457640Y-18762480D01*
X3439860Y-18716760D01*
X3315400Y-18698980D01*
X3302700Y-18698980D01*
X3145220Y-18681200D01*
X3074100Y-18635480D01*
X3099500Y-18571980D01*
X3150300Y-18536420D01*
X3315400Y-18480540D01*
X3437320Y-18526260D01*
X3500820Y-18622780D01*
X3549080Y-18704060D01*
X3607500Y-18744700D01*
X3655760Y-18747240D01*
X3655760Y-18617700D01*
X3683700Y-18587220D01*
X3711640Y-18617700D01*
X3683700Y-18645640D01*
X3655760Y-18617700D01*
X3655760Y-18747240D01*
X3716720Y-18749780D01*
X3879280Y-18737080D01*
X4125660Y-18704060D01*
X4280600Y-18665960D01*
X4359340Y-18612620D01*
X4377120Y-18546580D01*
X4420300Y-18444980D01*
X4468560Y-18396720D01*
X4514280Y-18315440D01*
X4529520Y-18201140D01*
X4509200Y-18089380D01*
X4466020Y-18015720D01*
X4415220Y-18013180D01*
X4402520Y-18008100D01*
X4458400Y-17947140D01*
X4460940Y-17944600D01*
X4577780Y-17832840D01*
X4648900Y-17754100D01*
X4704780Y-17700760D01*
X4702240Y-17738860D01*
X4694620Y-17764260D01*
X4697160Y-17837920D01*
X4770820Y-17850620D01*
X4849560Y-17817600D01*
X4844480Y-17738860D01*
X4765740Y-17581380D01*
X4651440Y-17472160D01*
X4532060Y-17421360D01*
X4430460Y-17449300D01*
X4402520Y-17482320D01*
X4339020Y-17497560D01*
X4262820Y-17444220D01*
X4181540Y-17385800D01*
X4161220Y-17406120D01*
X4199320Y-17515340D01*
X4239960Y-17604240D01*
X4290760Y-17716000D01*
X4293300Y-17736320D01*
X4245040Y-17672820D01*
X4232340Y-17657580D01*
X4138360Y-17553440D01*
X4087560Y-17543280D01*
X4097720Y-17624560D01*
X4135820Y-17713460D01*
X4214560Y-17888720D01*
X4267900Y-18058900D01*
X4267900Y-18061440D01*
X4311080Y-18173200D01*
X4366960Y-18213840D01*
X4369500Y-18213840D01*
X4387280Y-18218920D01*
X4387280Y-17771880D01*
X4387280Y-17685520D01*
X4440620Y-17578840D01*
X4504120Y-17543280D01*
X4582860Y-17563600D01*
X4595560Y-17639800D01*
X4537140Y-17738860D01*
X4534600Y-17743940D01*
X4438080Y-17807440D01*
X4387280Y-17771880D01*
X4387280Y-18218920D01*
X4427920Y-18229080D01*
X4407600Y-18312900D01*
X4323780Y-18434820D01*
X4191700Y-18544040D01*
X4026600Y-18607540D01*
X3864040Y-18612620D01*
X3747200Y-18559280D01*
X3734500Y-18544040D01*
X3693860Y-18455140D01*
X3726880Y-18411960D01*
X3734500Y-18366240D01*
X3645600Y-18307820D01*
X3526220Y-18213840D01*
X3424620Y-18069060D01*
X3411920Y-18041120D01*
X3350960Y-17804900D01*
X3391600Y-17604240D01*
X3528760Y-17449300D01*
X3592260Y-17413740D01*
X3701480Y-17337540D01*
X3714180Y-17286740D01*
X3640520Y-17279120D01*
X3526220Y-17317220D01*
X3419540Y-17398500D01*
X3320480Y-17522960D01*
X3254440Y-17652500D01*
X3241740Y-17754100D01*
X3246820Y-17766800D01*
X3231580Y-17807440D01*
X3213800Y-17812520D01*
X3173160Y-17761720D01*
X3157920Y-17644880D01*
X3155380Y-17642340D01*
X3140140Y-17530580D01*
X3102040Y-17505180D01*
X3099500Y-17505180D01*
X3061400Y-17578840D01*
X3046160Y-17713460D01*
X3046160Y-17726160D01*
X3008060Y-17881100D01*
X2919160Y-17962380D01*
X2807400Y-17967460D01*
X2705800Y-17898880D01*
X2642300Y-17749020D01*
X2639760Y-17738860D01*
X2642300Y-17538200D01*
X2731200Y-17365480D01*
X2875980Y-17220700D01*
X2992820Y-17091160D01*
X3102040Y-16913360D01*
X3127440Y-16857480D01*
X3193480Y-16710160D01*
X3226500Y-16639040D01*
X3226500Y-16288520D01*
X3284920Y-16270740D01*
X3338260Y-16285980D01*
X3399220Y-16354560D01*
X3396680Y-16397740D01*
X3335720Y-16471400D01*
X3272220Y-16440920D01*
X3244280Y-16387580D01*
X3226500Y-16288520D01*
X3226500Y-16639040D01*
X3239200Y-16613640D01*
X3249360Y-16595860D01*
X3305240Y-16603480D01*
X3419540Y-16677140D01*
X3544000Y-16778740D01*
X3544000Y-16339320D01*
X3571940Y-16311380D01*
X3599880Y-16339320D01*
X3571940Y-16367260D01*
X3544000Y-16339320D01*
X3544000Y-16778740D01*
X3571940Y-16804140D01*
X3742120Y-16964160D01*
X3815780Y-17037820D01*
X3983420Y-17202920D01*
X4092640Y-17291820D01*
X4138360Y-17301980D01*
X4115500Y-17230860D01*
X4107880Y-17213080D01*
X4092640Y-17086080D01*
X4133280Y-17007340D01*
X4194240Y-16908280D01*
X4212020Y-16857480D01*
X4173920Y-16773660D01*
X4077400Y-16659360D01*
X3958020Y-16545060D01*
X3846260Y-16461240D01*
X3775140Y-16435840D01*
X3698940Y-16407900D01*
X3686240Y-16367260D01*
X3632900Y-16296140D01*
X3490660Y-16227560D01*
X3419540Y-16202160D01*
X3267140Y-16146280D01*
X3170620Y-16087860D01*
X3155380Y-16062460D01*
X3112200Y-15958320D01*
X3005520Y-15818620D01*
X2855660Y-15666220D01*
X2688020Y-15529060D01*
X2530540Y-15427460D01*
X2502600Y-15414760D01*
X2352740Y-15346180D01*
X2286700Y-15287760D01*
X2276540Y-15201400D01*
X2291780Y-15115040D01*
X2307020Y-14982960D01*
X2279080Y-14927080D01*
X2240980Y-14922000D01*
X2187640Y-14942320D01*
X2174940Y-15026140D01*
X2190180Y-15142980D01*
X2225740Y-15366500D01*
X1979360Y-15366500D01*
X1720280Y-15404600D01*
X1448500Y-15508740D01*
X1189420Y-15689080D01*
X1021780Y-15927840D01*
X943040Y-16199620D01*
X943040Y-16199620D01*
X943040Y-16199620D01*
G37*
X943040Y-16199620D02*
X958280Y-16499340D01*
X1031940Y-16707620D01*
X1031940Y-16397740D01*
X1039560Y-16125960D01*
X1125920Y-15887200D01*
X1194500Y-15798300D01*
X1387540Y-15650980D01*
X1649160Y-15544300D01*
X1943800Y-15485880D01*
X2235900Y-15478260D01*
X2484820Y-15534140D01*
X2533080Y-15557000D01*
X2759140Y-15722100D01*
X2952180Y-15950700D01*
X3091880Y-16212320D01*
X3155380Y-16466320D01*
X3155380Y-16504420D01*
X3107120Y-16735560D01*
X2975040Y-16969240D01*
X2782000Y-17177520D01*
X2670240Y-17258800D01*
X2362900Y-17390880D01*
X2042860Y-17416280D01*
X1712660Y-17332460D01*
X1679640Y-17317220D01*
X1430720Y-17154660D01*
X1235140Y-16931140D01*
X1100520Y-16672060D01*
X1031940Y-16397740D01*
X1031940Y-16707620D01*
X1064960Y-16804140D01*
X1265620Y-17103860D01*
X1278320Y-17114020D01*
X1435800Y-17271500D01*
X1605980Y-17380720D01*
X1826960Y-17459460D01*
X1997140Y-17500100D01*
X2129220Y-17576300D01*
X2187640Y-17731240D01*
X2164780Y-17952220D01*
X2124140Y-18089380D01*
X2065720Y-18300200D01*
X2060640Y-18472920D01*
X2065720Y-18495780D01*
X2111440Y-18602460D01*
X2124140Y-18607540D01*
X2124140Y-18378940D01*
X2139380Y-18290040D01*
X2182560Y-18196060D01*
X2228280Y-18099540D01*
X2246060Y-18089380D01*
X2240980Y-18107160D01*
X2240980Y-18203680D01*
X2279080Y-18302740D01*
X2329880Y-18371320D01*
X2380680Y-18378940D01*
X2395920Y-18356080D01*
X2418780Y-18328140D01*
X2428940Y-18378940D01*
X2390840Y-18457680D01*
X2289240Y-18475460D01*
X2167320Y-18429740D01*
X2124140Y-18378940D01*
X2124140Y-18607540D01*
X2205420Y-18640560D01*
X2284160Y-18645640D01*
X2322260Y-18648180D01*
X2322260Y-18561820D01*
X2350200Y-18533880D01*
X2378140Y-18561820D01*
X2350200Y-18587220D01*
X2322260Y-18561820D01*
X2322260Y-18648180D01*
X2426400Y-18658340D01*
X2517840Y-18693900D01*
X2520380Y-18693900D01*
X2576260Y-18719300D01*
X2576260Y-18462760D01*
X2588960Y-18290040D01*
X2621980Y-18201140D01*
X2690560Y-18165580D01*
X2779460Y-18155420D01*
X2916620Y-18135100D01*
X2980120Y-18112240D01*
X2952180Y-18094460D01*
X2863280Y-18089380D01*
X2743900Y-18074140D01*
X2690560Y-18046200D01*
X2721040Y-18018260D01*
X2830260Y-18005560D01*
X2848040Y-18005560D01*
X2982660Y-18030960D01*
X3020760Y-18091920D01*
X2969960Y-18155420D01*
X2845500Y-18201140D01*
X2741360Y-18234160D01*
X2748980Y-18272260D01*
X2754060Y-18272260D01*
X2860740Y-18295120D01*
X2934400Y-18282420D01*
X3013140Y-18262100D01*
X3038540Y-18284960D01*
X3015680Y-18376400D01*
X2987740Y-18462760D01*
X2934400Y-18574520D01*
X2858200Y-18607540D01*
X2748980Y-18592300D01*
X2611820Y-18536420D01*
X2576260Y-18462760D01*
X2576260Y-18719300D01*
X2604200Y-18729460D01*
X2761680Y-18759940D01*
X2957260Y-18782800D01*
X3155380Y-18792960D01*
X3325560Y-18790420D01*
X3437320Y-18775180D01*
X3457640Y-18762480D01*
X3439860Y-18716760D01*
X3315400Y-18698980D01*
X3302700Y-18698980D01*
X3145220Y-18681200D01*
X3074100Y-18635480D01*
X3099500Y-18571980D01*
X3150300Y-18536420D01*
X3315400Y-18480540D01*
X3437320Y-18526260D01*
X3500820Y-18622780D01*
X3549080Y-18704060D01*
X3607500Y-18744700D01*
X3655760Y-18747240D01*
X3655760Y-18617700D01*
X3683700Y-18587220D01*
X3711640Y-18617700D01*
X3683700Y-18645640D01*
X3655760Y-18617700D01*
X3655760Y-18747240D01*
X3716720Y-18749780D01*
X3879280Y-18737080D01*
X4125660Y-18704060D01*
X4280600Y-18665960D01*
X4359340Y-18612620D01*
X4377120Y-18546580D01*
X4420300Y-18444980D01*
X4468560Y-18396720D01*
X4514280Y-18315440D01*
X4529520Y-18201140D01*
X4509200Y-18089380D01*
X4466020Y-18015720D01*
X4415220Y-18013180D01*
X4402520Y-18008100D01*
X4458400Y-17947140D01*
X4460940Y-17944600D01*
X4577780Y-17832840D01*
X4648900Y-17754100D01*
X4704780Y-17700760D01*
X4702240Y-17738860D01*
X4694620Y-17764260D01*
X4697160Y-17837920D01*
X4770820Y-17850620D01*
X4849560Y-17817600D01*
X4844480Y-17738860D01*
X4765740Y-17581380D01*
X4651440Y-17472160D01*
X4532060Y-17421360D01*
X4430460Y-17449300D01*
X4402520Y-17482320D01*
X4339020Y-17497560D01*
X4262820Y-17444220D01*
X4181540Y-17385800D01*
X4161220Y-17406120D01*
X4199320Y-17515340D01*
X4239960Y-17604240D01*
X4290760Y-17716000D01*
X4293300Y-17736320D01*
X4245040Y-17672820D01*
X4232340Y-17657580D01*
X4138360Y-17553440D01*
X4087560Y-17543280D01*
X4097720Y-17624560D01*
X4135820Y-17713460D01*
X4214560Y-17888720D01*
X4267900Y-18058900D01*
X4267900Y-18061440D01*
X4311080Y-18173200D01*
X4366960Y-18213840D01*
X4369500Y-18213840D01*
X4387280Y-18218920D01*
X4387280Y-17771880D01*
X4387280Y-17685520D01*
X4440620Y-17578840D01*
X4504120Y-17543280D01*
X4582860Y-17563600D01*
X4595560Y-17639800D01*
X4537140Y-17738860D01*
X4534600Y-17743940D01*
X4438080Y-17807440D01*
X4387280Y-17771880D01*
X4387280Y-18218920D01*
X4427920Y-18229080D01*
X4407600Y-18312900D01*
X4323780Y-18434820D01*
X4191700Y-18544040D01*
X4026600Y-18607540D01*
X3864040Y-18612620D01*
X3747200Y-18559280D01*
X3734500Y-18544040D01*
X3693860Y-18455140D01*
X3726880Y-18411960D01*
X3734500Y-18366240D01*
X3645600Y-18307820D01*
X3526220Y-18213840D01*
X3424620Y-18069060D01*
X3411920Y-18041120D01*
X3350960Y-17804900D01*
X3391600Y-17604240D01*
X3528760Y-17449300D01*
X3592260Y-17413740D01*
X3701480Y-17337540D01*
X3714180Y-17286740D01*
X3640520Y-17279120D01*
X3526220Y-17317220D01*
X3419540Y-17398500D01*
X3320480Y-17522960D01*
X3254440Y-17652500D01*
X3241740Y-17754100D01*
X3246820Y-17766800D01*
X3231580Y-17807440D01*
X3213800Y-17812520D01*
X3173160Y-17761720D01*
X3157920Y-17644880D01*
X3155380Y-17642340D01*
X3140140Y-17530580D01*
X3102040Y-17505180D01*
X3099500Y-17505180D01*
X3061400Y-17578840D01*
X3046160Y-17713460D01*
X3046160Y-17726160D01*
X3008060Y-17881100D01*
X2919160Y-17962380D01*
X2807400Y-17967460D01*
X2705800Y-17898880D01*
X2642300Y-17749020D01*
X2639760Y-17738860D01*
X2642300Y-17538200D01*
X2731200Y-17365480D01*
X2875980Y-17220700D01*
X2992820Y-17091160D01*
X3102040Y-16913360D01*
X3127440Y-16857480D01*
X3193480Y-16710160D01*
X3226500Y-16639040D01*
X3226500Y-16288520D01*
X3284920Y-16270740D01*
X3338260Y-16285980D01*
X3399220Y-16354560D01*
X3396680Y-16397740D01*
X3335720Y-16471400D01*
X3272220Y-16440920D01*
X3244280Y-16387580D01*
X3226500Y-16288520D01*
X3226500Y-16639040D01*
X3239200Y-16613640D01*
X3249360Y-16595860D01*
X3305240Y-16603480D01*
X3419540Y-16677140D01*
X3544000Y-16778740D01*
X3544000Y-16339320D01*
X3571940Y-16311380D01*
X3599880Y-16339320D01*
X3571940Y-16367260D01*
X3544000Y-16339320D01*
X3544000Y-16778740D01*
X3571940Y-16804140D01*
X3742120Y-16964160D01*
X3815780Y-17037820D01*
X3983420Y-17202920D01*
X4092640Y-17291820D01*
X4138360Y-17301980D01*
X4115500Y-17230860D01*
X4107880Y-17213080D01*
X4092640Y-17086080D01*
X4133280Y-17007340D01*
X4194240Y-16908280D01*
X4212020Y-16857480D01*
X4173920Y-16773660D01*
X4077400Y-16659360D01*
X3958020Y-16545060D01*
X3846260Y-16461240D01*
X3775140Y-16435840D01*
X3698940Y-16407900D01*
X3686240Y-16367260D01*
X3632900Y-16296140D01*
X3490660Y-16227560D01*
X3419540Y-16202160D01*
X3267140Y-16146280D01*
X3170620Y-16087860D01*
X3155380Y-16062460D01*
X3112200Y-15958320D01*
X3005520Y-15818620D01*
X2855660Y-15666220D01*
X2688020Y-15529060D01*
X2530540Y-15427460D01*
X2502600Y-15414760D01*
X2352740Y-15346180D01*
X2286700Y-15287760D01*
X2276540Y-15201400D01*
X2291780Y-15115040D01*
X2307020Y-14982960D01*
X2279080Y-14927080D01*
X2240980Y-14922000D01*
X2187640Y-14942320D01*
X2174940Y-15026140D01*
X2190180Y-15142980D01*
X2225740Y-15366500D01*
X1979360Y-15366500D01*
X1720280Y-15404600D01*
X1448500Y-15508740D01*
X1189420Y-15689080D01*
X1021780Y-15927840D01*
X943040Y-16199620D01*
X943040Y-16199620D01*
D13*
X62250000Y-9120000D03*
X62186500Y-11660000D03*
X62313500Y-14200000D03*
X62186500Y-16740000D03*
X62313500Y-19280000D03*
D14*
X62250000Y-21820000D03*
D13*
X62250000Y-26900000D03*
X62186500Y-29440000D03*
X62313500Y-31980000D03*
X62186500Y-34520000D03*
X62313500Y-37060000D03*
D14*
X62250000Y-39600000D03*
D15*
X16290000Y-42140000D03*
X13750000Y-41987600D03*
X11210000Y-42140000D03*
X16290000Y-24360000D03*
X13750000Y-24207600D03*
X11210000Y-24360000D03*
X35040000Y-42140000D03*
X32500000Y-41987600D03*
X29960000Y-42140000D03*
X35040000Y-24360000D03*
X32500000Y-24207600D03*
X29960000Y-24360000D03*
X53790000Y-42140000D03*
X51250000Y-41987600D03*
X48710000Y-42140000D03*
X53790000Y-24360000D03*
X51250000Y-24207600D03*
X48710000Y-24360000D03*
D16*
X35103500Y-46170000D03*
D17*
X32436500Y-46170000D03*
D18*
X27436500Y-51250000D03*
X37563500Y-51250000D03*
D16*
X53853500Y-46170000D03*
D17*
X51186500Y-46170000D03*
D18*
X46186500Y-51250000D03*
X56313500Y-51250000D03*
D16*
X16353500Y-46170000D03*
D17*
X13686500Y-46170000D03*
D18*
X8686500Y-51250000D03*
X18813500Y-51250000D03*
D16*
X56630000Y-2730000D03*
X56630000Y-5270000D03*
X54090000Y-2666500D03*
X54090000Y-5333500D03*
X51550000Y-2730000D03*
X51550000Y-5270000D03*
X49010000Y-2730000D03*
X49010000Y-5270000D03*
X46470000Y-2730000D03*
X46470000Y-5270000D03*
X43930000Y-2730000D03*
X43930000Y-5270000D03*
X41390000Y-2730000D03*
X41390000Y-5270000D03*
X38850000Y-2730000D03*
X38850000Y-5270000D03*
X36310000Y-2730000D03*
X36310000Y-5270000D03*
X33770000Y-2730000D03*
X33770000Y-5270000D03*
X31230000Y-2730000D03*
X31230000Y-5270000D03*
X28690000Y-2730000D03*
X28690000Y-5270000D03*
X26150000Y-2730000D03*
X26150000Y-5270000D03*
X23610000Y-2730000D03*
X23610000Y-5270000D03*
X21070000Y-2730000D03*
X21070000Y-5270000D03*
X18530000Y-2730000D03*
X18530000Y-5270000D03*
X15990000Y-2730000D03*
X15990000Y-5270000D03*
X13450000Y-2730000D03*
X13450000Y-5270000D03*
X10910000Y-2666500D03*
X10910000Y-5333500D03*
X8370000Y-2730000D03*
X8370000Y-5270000D03*
D19*
X61500000Y-53000000D03*
X3500000Y-53000000D03*
X3500000Y-4000000D03*
X61500000Y-4000000D03*
D20*
X39025000Y-13525000D03*
X20275000Y-13525000D03*
X35750000Y-17500000D03*
X35750000Y-15500000D03*
X37750000Y-15500000D03*
X37750000Y-17500000D03*
X33750000Y-17500000D03*
X33750000Y-15500000D03*
X17000000Y-17500000D03*
X17000000Y-15500000D03*
X19000000Y-15500000D03*
X19000000Y-17500000D03*
X15000000Y-17500000D03*
X15000000Y-15500000D03*
X19750000Y-46170000D03*
X19750000Y-43000000D03*
X19750000Y-39830000D03*
X6093250Y-46170000D03*
X6093250Y-49340000D03*
X2851692Y-49340000D03*
X2851692Y-46170000D03*
X2851692Y-43000000D03*
X2851692Y-39830000D03*
X8686500Y-46170000D03*
X15000000Y-49340000D03*
X12250000Y-49340000D03*
X11210000Y-46170000D03*
X6093250Y-43000000D03*
X6093250Y-39830000D03*
X38500000Y-39830000D03*
X38500000Y-43000000D03*
X38500000Y-46170000D03*
X25500000Y-46170000D03*
X27770000Y-46170000D03*
X33750000Y-49340000D03*
X31000000Y-49340000D03*
X29960000Y-46170000D03*
X43325000Y-12350000D03*
X24575000Y-12350000D03*
X23500000Y-10625000D03*
X42250000Y-10625000D03*
D21*
X62313500Y-14200000D02*
X62313500Y-14213500D01*
X62313500Y-14213500D02*
X63825000Y-15725000D01*
X63825000Y-15725000D02*
X63825000Y-30468500D01*
X63825000Y-30468500D02*
X62313500Y-31980000D01*
X48710000Y-42140000D02*
X48710000Y-27135000D01*
X46550000Y-24975000D02*
X46550000Y-15950000D01*
X48710000Y-27135000D02*
X46550000Y-24975000D01*
X46550000Y-15950000D02*
X44125000Y-13525000D01*
X44125000Y-13525000D02*
X39025000Y-13525000D01*
X39025000Y-13525000D02*
X20275000Y-13525000D01*
X20275000Y-13525000D02*
X16625000Y-13525000D01*
X16625000Y-13525000D02*
X8370000Y-5270000D01*
D22*
X35750000Y-17500000D02*
X35750000Y-15500000D01*
X37750000Y-15500000D02*
X37750000Y-17500000D01*
X33750000Y-15500000D02*
X33750000Y-17500000D01*
X17000000Y-17500000D02*
X17000000Y-15500000D01*
X19000000Y-15500000D02*
X19000000Y-17500000D01*
X15000000Y-15500000D02*
X15000000Y-17500000D01*
X19750000Y-46170000D02*
X16580000Y-49340000D01*
X16580000Y-49340000D02*
X15000000Y-49340000D01*
X19750000Y-39830000D02*
X19750000Y-43000000D01*
X16500000Y-49340000D02*
X15000000Y-49340000D01*
X12250000Y-49340000D02*
X12140000Y-49340000D01*
X11210000Y-48410000D02*
X11210000Y-46170000D01*
X12140000Y-49340000D02*
X11210000Y-48410000D01*
X6093250Y-46170000D02*
X6093250Y-49340000D01*
X2851692Y-49340000D02*
X2851692Y-46170000D01*
X2851692Y-43000000D02*
X2851692Y-39830000D01*
X6093250Y-39830000D02*
X6093250Y-43000000D01*
X16500000Y-49340000D02*
X15000000Y-49340000D01*
D23*
X8370000Y-2730000D02*
X8370000Y-2900000D01*
D21*
X62250000Y-9120000D02*
X62250000Y-11596500D01*
X62250000Y-11596500D02*
X62186500Y-11660000D01*
D22*
X38500000Y-46170000D02*
X34560000Y-49360000D01*
X38500000Y-39830000D02*
X38500000Y-43000000D01*
X30752500Y-49340000D02*
X29960000Y-48547500D01*
X29960000Y-48547500D02*
X29960000Y-46170000D01*
X31000000Y-49340000D02*
X30752500Y-49340000D01*
X34560000Y-49360000D02*
X33750000Y-49360000D01*
X33750000Y-49360000D02*
X33750000Y-49340000D01*
D21*
X10910000Y-5333500D02*
X10910000Y-5685000D01*
X10910000Y-5685000D02*
X17575000Y-12350000D01*
X51250000Y-24207600D02*
X51250000Y-17075000D01*
X51250000Y-17075000D02*
X46525000Y-12350000D01*
X46525000Y-12350000D02*
X43325000Y-12350000D01*
X17575000Y-12350000D02*
X24575000Y-12350000D01*
X24575000Y-12350000D02*
X43325000Y-12350000D01*
X53790000Y-24360000D02*
X53790000Y-13840000D01*
X50575000Y-10625000D02*
X53790000Y-13840000D01*
X50575000Y-10625000D02*
X42250000Y-10625000D01*
X59710000Y-24360000D02*
X59710000Y-38160000D01*
X61150000Y-39600000D02*
X62250000Y-39600000D01*
X59710000Y-38160000D02*
X61150000Y-39600000D01*
X53790000Y-24360000D02*
X59710000Y-24360000D01*
X59710000Y-24360000D02*
X62250000Y-21820000D01*
X17100000Y-10625000D02*
X23500000Y-10625000D01*
X13450000Y-5270000D02*
X13450000Y-6975000D01*
X13450000Y-6975000D02*
X17100000Y-10625000D01*
X23500000Y-10625000D02*
X42250000Y-10625000D01*
X62250000Y-26900000D02*
X62250000Y-29376500D01*
X62250000Y-29376500D02*
X62186500Y-29440000D01*
D24*
G36*
X11875000Y-9871228D02*
X11875000Y-20000000D01*
X11877402Y-20024386D01*
X11884515Y-20047835D01*
X11896066Y-20069446D01*
X11911612Y-20088388D01*
X11930554Y-20103934D01*
X11952165Y-20115485D01*
X11975614Y-20122598D01*
X12000000Y-20125000D01*
X18375000Y-20125000D01*
X18375000Y-30250000D01*
X18377402Y-30274386D01*
X18384515Y-30297835D01*
X18396066Y-30319446D01*
X18411612Y-30338388D01*
X18430554Y-30353934D01*
X18452165Y-30365485D01*
X18475614Y-30372598D01*
X18500000Y-30375000D01*
X23375000Y-30375000D01*
X23375000Y-35946605D01*
X23181125Y-35927595D01*
X23156016Y-35927595D01*
X23131053Y-35924882D01*
X23123023Y-35924853D01*
X23116042Y-35924877D01*
X23091030Y-35927416D01*
X23065889Y-35927241D01*
X23057898Y-35928025D01*
X22863801Y-35948426D01*
X22812795Y-35958897D01*
X22761533Y-35968675D01*
X22753846Y-35970997D01*
X22567408Y-36028708D01*
X22519336Y-36048916D01*
X22471020Y-36068437D01*
X22463929Y-36072207D01*
X22292253Y-36165032D01*
X22249064Y-36194163D01*
X22205414Y-36222727D01*
X22199191Y-36227802D01*
X22048814Y-36352206D01*
X22012115Y-36389162D01*
X21974838Y-36425667D01*
X21969720Y-36431854D01*
X21846370Y-36583096D01*
X21817536Y-36626495D01*
X21788071Y-36669528D01*
X21784252Y-36676592D01*
X21692626Y-36848914D01*
X21672767Y-36897097D01*
X21652226Y-36945022D01*
X21649852Y-36952693D01*
X21593443Y-37139530D01*
X21583327Y-37190619D01*
X21572479Y-37241655D01*
X21571640Y-37249641D01*
X21552595Y-37443875D01*
X21552595Y-37467996D01*
X21549906Y-37491970D01*
X21549850Y-37500000D01*
X21549850Y-52500000D01*
X21549860Y-52500100D01*
X21549853Y-52501977D01*
X21549877Y-52508958D01*
X21550000Y-52510170D01*
X21550000Y-55924850D01*
X3028130Y-55924850D01*
X2529544Y-55875963D01*
X2077012Y-55739336D01*
X1659633Y-55517411D01*
X1293313Y-55218647D01*
X991993Y-54854414D01*
X767163Y-54438598D01*
X627378Y-53987029D01*
X575150Y-53490110D01*
X575150Y-53212321D01*
X971531Y-53212321D01*
X1060925Y-53699393D01*
X1243223Y-54159826D01*
X1511481Y-54576081D01*
X1855481Y-54932303D01*
X2262121Y-55214925D01*
X2715910Y-55413180D01*
X3199566Y-55519519D01*
X3694664Y-55529890D01*
X4182349Y-55443898D01*
X4644042Y-55264819D01*
X5062160Y-54999473D01*
X5420775Y-54657969D01*
X5706229Y-54253312D01*
X5907648Y-53800918D01*
X6017360Y-53318017D01*
X6025258Y-52752396D01*
X5929072Y-52266620D01*
X5740363Y-51808778D01*
X5496212Y-51441301D01*
X6408360Y-51441301D01*
X6488904Y-51880151D01*
X6653154Y-52294998D01*
X6894853Y-52670042D01*
X7204796Y-52990997D01*
X7571176Y-53245638D01*
X7980038Y-53424265D01*
X8415810Y-53520076D01*
X8861892Y-53529420D01*
X9301293Y-53451942D01*
X9717277Y-53290592D01*
X10093999Y-53051517D01*
X10417110Y-52743823D01*
X10674303Y-52379229D01*
X10855780Y-51971624D01*
X10954631Y-51536532D01*
X10955960Y-51441301D01*
X16535360Y-51441301D01*
X16615904Y-51880151D01*
X16780154Y-52294998D01*
X17021853Y-52670042D01*
X17331796Y-52990997D01*
X17698176Y-53245638D01*
X18107038Y-53424265D01*
X18542810Y-53520076D01*
X18988892Y-53529420D01*
X19428293Y-53451942D01*
X19844277Y-53290592D01*
X20220999Y-53051517D01*
X20544110Y-52743823D01*
X20801303Y-52379229D01*
X20982780Y-51971624D01*
X21081631Y-51536532D01*
X21088747Y-51026910D01*
X21002084Y-50589228D01*
X20832058Y-50176714D01*
X20585146Y-49805081D01*
X20270752Y-49488485D01*
X19900852Y-49238984D01*
X19489535Y-49066083D01*
X19052469Y-48976366D01*
X18606300Y-48973251D01*
X18168023Y-49056857D01*
X17754332Y-49223999D01*
X17380985Y-49468310D01*
X17062201Y-49780486D01*
X16810124Y-50148635D01*
X16634356Y-50558735D01*
X16541590Y-50995164D01*
X16535360Y-51441301D01*
X10955960Y-51441301D01*
X10961747Y-51026910D01*
X10875084Y-50589228D01*
X10705058Y-50176714D01*
X10458146Y-49805081D01*
X10143752Y-49488485D01*
X9773852Y-49238984D01*
X9362535Y-49066083D01*
X8925469Y-48976366D01*
X8479300Y-48973251D01*
X8041023Y-49056857D01*
X7627332Y-49223999D01*
X7253985Y-49468310D01*
X6935201Y-49780486D01*
X6683124Y-50148635D01*
X6507356Y-50558735D01*
X6414590Y-50995164D01*
X6408360Y-51441301D01*
X5496212Y-51441301D01*
X5466319Y-51396309D01*
X5117379Y-51044924D01*
X4706834Y-50768008D01*
X4250320Y-50576107D01*
X3765227Y-50476532D01*
X3270032Y-50473075D01*
X2783596Y-50565867D01*
X2324447Y-50751375D01*
X1910076Y-51022533D01*
X1556263Y-51369011D01*
X1276487Y-51777614D01*
X1081405Y-52232776D01*
X978445Y-52717162D01*
X971531Y-53212321D01*
X575150Y-53212321D01*
X575150Y-45270000D01*
X12258810Y-45270000D01*
X12258810Y-47070000D01*
X12268949Y-47172947D01*
X12298978Y-47271938D01*
X12347742Y-47363169D01*
X12413367Y-47443133D01*
X12493331Y-47508758D01*
X12584562Y-47557522D01*
X12683553Y-47587551D01*
X12786500Y-47597690D01*
X14586500Y-47597690D01*
X14689447Y-47587551D01*
X14788438Y-47557522D01*
X14879669Y-47508758D01*
X14959633Y-47443133D01*
X15025258Y-47363169D01*
X15074022Y-47271938D01*
X15104051Y-47172947D01*
X15114190Y-47070000D01*
X15114190Y-46877925D01*
X15231215Y-47059512D01*
X15425362Y-47260558D01*
X15654863Y-47420065D01*
X15910973Y-47531957D01*
X16183940Y-47591972D01*
X16463365Y-47597825D01*
X16738606Y-47549293D01*
X16999177Y-47448224D01*
X17235156Y-47298468D01*
X17437552Y-47105728D01*
X17598657Y-46877347D01*
X17712334Y-46622024D01*
X17774254Y-46349483D01*
X17778711Y-46030257D01*
X17724426Y-45756093D01*
X17617922Y-45497695D01*
X17463256Y-45264905D01*
X17266320Y-45066590D01*
X17034616Y-44910303D01*
X16776968Y-44801997D01*
X16503190Y-44745799D01*
X16223710Y-44743848D01*
X15949174Y-44796218D01*
X15690039Y-44900916D01*
X15456175Y-45053952D01*
X15256489Y-45249499D01*
X15114190Y-45457322D01*
X15114190Y-45270000D01*
X15104051Y-45167053D01*
X15074022Y-45068062D01*
X15025258Y-44976831D01*
X14959633Y-44896867D01*
X14879669Y-44831242D01*
X14788438Y-44782478D01*
X14689447Y-44752449D01*
X14586500Y-44742310D01*
X12786500Y-44742310D01*
X12683553Y-44752449D01*
X12584562Y-44782478D01*
X12493331Y-44831242D01*
X12413367Y-44896867D01*
X12347742Y-44976831D01*
X12298978Y-45068062D01*
X12268949Y-45167053D01*
X12258810Y-45270000D01*
X575150Y-45270000D01*
X575150Y-42247218D01*
X9933174Y-42247218D01*
X9978316Y-42493180D01*
X10070373Y-42725689D01*
X10205838Y-42935889D01*
X10379551Y-43115774D01*
X10584896Y-43258493D01*
X10814050Y-43358608D01*
X11058287Y-43412307D01*
X11308302Y-43417544D01*
X11554572Y-43374119D01*
X11787718Y-43283688D01*
X11998859Y-43149694D01*
X12179953Y-42977241D01*
X12324101Y-42772898D01*
X12425814Y-42544447D01*
X12481216Y-42300592D01*
X12483318Y-42150088D01*
X12518316Y-42340780D01*
X12610373Y-42573289D01*
X12745838Y-42783489D01*
X12919551Y-42963374D01*
X13124896Y-43106093D01*
X13354050Y-43206208D01*
X13598287Y-43259907D01*
X13848302Y-43265144D01*
X14094572Y-43221719D01*
X14327718Y-43131288D01*
X14538859Y-42997294D01*
X14719953Y-42824841D01*
X14864101Y-42620498D01*
X14965814Y-42392047D01*
X15014121Y-42179423D01*
X15013174Y-42247218D01*
X15058316Y-42493180D01*
X15150373Y-42725689D01*
X15285838Y-42935889D01*
X15459551Y-43115774D01*
X15664896Y-43258493D01*
X15894050Y-43358608D01*
X16138287Y-43412307D01*
X16388302Y-43417544D01*
X16634572Y-43374119D01*
X16867718Y-43283688D01*
X17078859Y-43149694D01*
X17259953Y-42977241D01*
X17404101Y-42772898D01*
X17505814Y-42544447D01*
X17561216Y-42300592D01*
X17565205Y-42014965D01*
X17516633Y-41769658D01*
X17421338Y-41538457D01*
X17282952Y-41330168D01*
X17106744Y-41152726D01*
X16899427Y-41012889D01*
X16668897Y-40915983D01*
X16423934Y-40865699D01*
X16173871Y-40863953D01*
X15928230Y-40910812D01*
X15696370Y-41004490D01*
X15487120Y-41141419D01*
X15308452Y-41316383D01*
X15167171Y-41522719D01*
X15068658Y-41752567D01*
X15023793Y-41963636D01*
X15025205Y-41862565D01*
X14976633Y-41617258D01*
X14881338Y-41386057D01*
X14742952Y-41177768D01*
X14566744Y-41000326D01*
X14359427Y-40860489D01*
X14128897Y-40763583D01*
X13883934Y-40713299D01*
X13633871Y-40711553D01*
X13388230Y-40758412D01*
X13156370Y-40852090D01*
X12947120Y-40989019D01*
X12768452Y-41163983D01*
X12627171Y-41370319D01*
X12528658Y-41600167D01*
X12476665Y-41844773D01*
X12475008Y-41963466D01*
X12436633Y-41769658D01*
X12341338Y-41538457D01*
X12202952Y-41330168D01*
X12026744Y-41152726D01*
X11819427Y-41012889D01*
X11588897Y-40915983D01*
X11343934Y-40865699D01*
X11093871Y-40863953D01*
X10848230Y-40910812D01*
X10616370Y-41004490D01*
X10407120Y-41141419D01*
X10228452Y-41316383D01*
X10087171Y-41522719D01*
X9988658Y-41752567D01*
X9936665Y-41997173D01*
X9933174Y-42247218D01*
X575150Y-42247218D01*
X575150Y-38028130D01*
X585947Y-37918013D01*
X609755Y-37839157D01*
X648432Y-37766416D01*
X700496Y-37702579D01*
X763970Y-37650068D01*
X836427Y-37610891D01*
X915130Y-37586529D01*
X1023389Y-37575150D01*
X4000000Y-37575150D01*
X4000100Y-37575140D01*
X4001977Y-37575147D01*
X4008958Y-37575123D01*
X4033970Y-37572584D01*
X4059110Y-37572759D01*
X4067102Y-37571975D01*
X4261199Y-37551574D01*
X4312212Y-37541102D01*
X4363466Y-37531325D01*
X4371154Y-37529004D01*
X4557592Y-37471292D01*
X4605664Y-37451084D01*
X4653980Y-37431563D01*
X4661066Y-37427795D01*
X4661071Y-37427793D01*
X4661075Y-37427790D01*
X4832747Y-37334968D01*
X4875929Y-37305841D01*
X4919585Y-37277273D01*
X4925808Y-37272198D01*
X5076186Y-37147794D01*
X5112902Y-37110821D01*
X5150162Y-37074333D01*
X5155280Y-37068146D01*
X5278630Y-36916904D01*
X5307464Y-36873505D01*
X5336929Y-36830472D01*
X5340749Y-36823408D01*
X5432374Y-36651086D01*
X5452234Y-36602901D01*
X5472774Y-36554977D01*
X5475148Y-36547306D01*
X5531557Y-36360470D01*
X5541672Y-36309388D01*
X5552521Y-36258346D01*
X5553360Y-36250359D01*
X5572405Y-36056126D01*
X5572405Y-36032004D01*
X5575094Y-36008030D01*
X5575150Y-36000000D01*
X5575150Y-25317187D01*
X10435246Y-25317187D01*
X10501050Y-25555254D01*
X10747855Y-25670597D01*
X11012420Y-25735574D01*
X11284577Y-25747689D01*
X11553869Y-25706476D01*
X11809946Y-25613518D01*
X11918950Y-25555254D01*
X11984754Y-25317187D01*
X11210000Y-24542434D01*
X10435246Y-25317187D01*
X5575150Y-25317187D01*
X5575150Y-24434577D01*
X9822311Y-24434577D01*
X9863524Y-24703869D01*
X9956482Y-24959946D01*
X10014746Y-25068950D01*
X10252813Y-25134754D01*
X11027566Y-24360000D01*
X11392434Y-24360000D01*
X12167187Y-25134754D01*
X12405254Y-25068950D01*
X12520597Y-24822145D01*
X12559340Y-24664395D01*
X12610373Y-24793289D01*
X12745838Y-25003489D01*
X12919551Y-25183374D01*
X13124896Y-25326093D01*
X13354050Y-25426208D01*
X13598287Y-25479907D01*
X13848302Y-25485144D01*
X14094572Y-25441719D01*
X14327718Y-25351288D01*
X14538859Y-25217294D01*
X14719953Y-25044841D01*
X14864101Y-24840498D01*
X14965814Y-24612047D01*
X15014121Y-24399423D01*
X15013174Y-24467218D01*
X15058316Y-24713180D01*
X15150373Y-24945689D01*
X15285838Y-25155889D01*
X15459551Y-25335774D01*
X15664896Y-25478493D01*
X15894050Y-25578608D01*
X16138287Y-25632307D01*
X16388302Y-25637544D01*
X16634572Y-25594119D01*
X16867718Y-25503688D01*
X17078859Y-25369694D01*
X17259953Y-25197241D01*
X17404101Y-24992898D01*
X17505814Y-24764447D01*
X17561216Y-24520592D01*
X17565205Y-24234965D01*
X17516633Y-23989658D01*
X17421338Y-23758457D01*
X17282952Y-23550168D01*
X17106744Y-23372726D01*
X16899427Y-23232889D01*
X16668897Y-23135983D01*
X16423934Y-23085699D01*
X16173871Y-23083953D01*
X15928230Y-23130812D01*
X15696370Y-23224490D01*
X15487120Y-23361419D01*
X15308452Y-23536383D01*
X15167171Y-23742719D01*
X15068658Y-23972567D01*
X15023793Y-24183636D01*
X15025205Y-24082565D01*
X14976633Y-23837258D01*
X14881338Y-23606057D01*
X14742952Y-23397768D01*
X14566744Y-23220326D01*
X14359427Y-23080489D01*
X14128897Y-22983583D01*
X13883934Y-22933299D01*
X13633871Y-22931553D01*
X13388230Y-22978412D01*
X13156370Y-23072090D01*
X12947120Y-23209019D01*
X12768452Y-23383983D01*
X12627171Y-23590319D01*
X12528658Y-23820167D01*
X12512660Y-23895429D01*
X12463518Y-23760054D01*
X12405254Y-23651050D01*
X12167187Y-23585246D01*
X11392434Y-24360000D01*
X11027566Y-24360000D01*
X10252813Y-23585246D01*
X10014746Y-23651050D01*
X9899403Y-23897855D01*
X9834426Y-24162420D01*
X9822311Y-24434577D01*
X5575150Y-24434577D01*
X5575150Y-23402813D01*
X10435246Y-23402813D01*
X11210000Y-24177566D01*
X11984754Y-23402813D01*
X11918950Y-23164746D01*
X11672145Y-23049403D01*
X11407580Y-22984426D01*
X11135423Y-22972311D01*
X10866131Y-23013524D01*
X10610054Y-23106482D01*
X10501050Y-23164746D01*
X10435246Y-23402813D01*
X5575150Y-23402813D01*
X5575150Y-21875000D01*
X8000000Y-21875000D01*
X8024386Y-21872598D01*
X8047835Y-21865485D01*
X8069446Y-21853934D01*
X8088388Y-21838388D01*
X8103934Y-21819446D01*
X8115485Y-21797835D01*
X8122598Y-21774386D01*
X8125000Y-21750000D01*
X8125000Y-9125000D01*
X11128772Y-9125000D01*
X11875000Y-9871228D01*
X11875000Y-9871228D01*
G37*
X11875000Y-9871228D02*
X11875000Y-20000000D01*
X11877402Y-20024386D01*
X11884515Y-20047835D01*
X11896066Y-20069446D01*
X11911612Y-20088388D01*
X11930554Y-20103934D01*
X11952165Y-20115485D01*
X11975614Y-20122598D01*
X12000000Y-20125000D01*
X18375000Y-20125000D01*
X18375000Y-30250000D01*
X18377402Y-30274386D01*
X18384515Y-30297835D01*
X18396066Y-30319446D01*
X18411612Y-30338388D01*
X18430554Y-30353934D01*
X18452165Y-30365485D01*
X18475614Y-30372598D01*
X18500000Y-30375000D01*
X23375000Y-30375000D01*
X23375000Y-35946605D01*
X23181125Y-35927595D01*
X23156016Y-35927595D01*
X23131053Y-35924882D01*
X23123023Y-35924853D01*
X23116042Y-35924877D01*
X23091030Y-35927416D01*
X23065889Y-35927241D01*
X23057898Y-35928025D01*
X22863801Y-35948426D01*
X22812795Y-35958897D01*
X22761533Y-35968675D01*
X22753846Y-35970997D01*
X22567408Y-36028708D01*
X22519336Y-36048916D01*
X22471020Y-36068437D01*
X22463929Y-36072207D01*
X22292253Y-36165032D01*
X22249064Y-36194163D01*
X22205414Y-36222727D01*
X22199191Y-36227802D01*
X22048814Y-36352206D01*
X22012115Y-36389162D01*
X21974838Y-36425667D01*
X21969720Y-36431854D01*
X21846370Y-36583096D01*
X21817536Y-36626495D01*
X21788071Y-36669528D01*
X21784252Y-36676592D01*
X21692626Y-36848914D01*
X21672767Y-36897097D01*
X21652226Y-36945022D01*
X21649852Y-36952693D01*
X21593443Y-37139530D01*
X21583327Y-37190619D01*
X21572479Y-37241655D01*
X21571640Y-37249641D01*
X21552595Y-37443875D01*
X21552595Y-37467996D01*
X21549906Y-37491970D01*
X21549850Y-37500000D01*
X21549850Y-52500000D01*
X21549860Y-52500100D01*
X21549853Y-52501977D01*
X21549877Y-52508958D01*
X21550000Y-52510170D01*
X21550000Y-55924850D01*
X3028130Y-55924850D01*
X2529544Y-55875963D01*
X2077012Y-55739336D01*
X1659633Y-55517411D01*
X1293313Y-55218647D01*
X991993Y-54854414D01*
X767163Y-54438598D01*
X627378Y-53987029D01*
X575150Y-53490110D01*
X575150Y-53212321D01*
X971531Y-53212321D01*
X1060925Y-53699393D01*
X1243223Y-54159826D01*
X1511481Y-54576081D01*
X1855481Y-54932303D01*
X2262121Y-55214925D01*
X2715910Y-55413180D01*
X3199566Y-55519519D01*
X3694664Y-55529890D01*
X4182349Y-55443898D01*
X4644042Y-55264819D01*
X5062160Y-54999473D01*
X5420775Y-54657969D01*
X5706229Y-54253312D01*
X5907648Y-53800918D01*
X6017360Y-53318017D01*
X6025258Y-52752396D01*
X5929072Y-52266620D01*
X5740363Y-51808778D01*
X5496212Y-51441301D01*
X6408360Y-51441301D01*
X6488904Y-51880151D01*
X6653154Y-52294998D01*
X6894853Y-52670042D01*
X7204796Y-52990997D01*
X7571176Y-53245638D01*
X7980038Y-53424265D01*
X8415810Y-53520076D01*
X8861892Y-53529420D01*
X9301293Y-53451942D01*
X9717277Y-53290592D01*
X10093999Y-53051517D01*
X10417110Y-52743823D01*
X10674303Y-52379229D01*
X10855780Y-51971624D01*
X10954631Y-51536532D01*
X10955960Y-51441301D01*
X16535360Y-51441301D01*
X16615904Y-51880151D01*
X16780154Y-52294998D01*
X17021853Y-52670042D01*
X17331796Y-52990997D01*
X17698176Y-53245638D01*
X18107038Y-53424265D01*
X18542810Y-53520076D01*
X18988892Y-53529420D01*
X19428293Y-53451942D01*
X19844277Y-53290592D01*
X20220999Y-53051517D01*
X20544110Y-52743823D01*
X20801303Y-52379229D01*
X20982780Y-51971624D01*
X21081631Y-51536532D01*
X21088747Y-51026910D01*
X21002084Y-50589228D01*
X20832058Y-50176714D01*
X20585146Y-49805081D01*
X20270752Y-49488485D01*
X19900852Y-49238984D01*
X19489535Y-49066083D01*
X19052469Y-48976366D01*
X18606300Y-48973251D01*
X18168023Y-49056857D01*
X17754332Y-49223999D01*
X17380985Y-49468310D01*
X17062201Y-49780486D01*
X16810124Y-50148635D01*
X16634356Y-50558735D01*
X16541590Y-50995164D01*
X16535360Y-51441301D01*
X10955960Y-51441301D01*
X10961747Y-51026910D01*
X10875084Y-50589228D01*
X10705058Y-50176714D01*
X10458146Y-49805081D01*
X10143752Y-49488485D01*
X9773852Y-49238984D01*
X9362535Y-49066083D01*
X8925469Y-48976366D01*
X8479300Y-48973251D01*
X8041023Y-49056857D01*
X7627332Y-49223999D01*
X7253985Y-49468310D01*
X6935201Y-49780486D01*
X6683124Y-50148635D01*
X6507356Y-50558735D01*
X6414590Y-50995164D01*
X6408360Y-51441301D01*
X5496212Y-51441301D01*
X5466319Y-51396309D01*
X5117379Y-51044924D01*
X4706834Y-50768008D01*
X4250320Y-50576107D01*
X3765227Y-50476532D01*
X3270032Y-50473075D01*
X2783596Y-50565867D01*
X2324447Y-50751375D01*
X1910076Y-51022533D01*
X1556263Y-51369011D01*
X1276487Y-51777614D01*
X1081405Y-52232776D01*
X978445Y-52717162D01*
X971531Y-53212321D01*
X575150Y-53212321D01*
X575150Y-45270000D01*
X12258810Y-45270000D01*
X12258810Y-47070000D01*
X12268949Y-47172947D01*
X12298978Y-47271938D01*
X12347742Y-47363169D01*
X12413367Y-47443133D01*
X12493331Y-47508758D01*
X12584562Y-47557522D01*
X12683553Y-47587551D01*
X12786500Y-47597690D01*
X14586500Y-47597690D01*
X14689447Y-47587551D01*
X14788438Y-47557522D01*
X14879669Y-47508758D01*
X14959633Y-47443133D01*
X15025258Y-47363169D01*
X15074022Y-47271938D01*
X15104051Y-47172947D01*
X15114190Y-47070000D01*
X15114190Y-46877925D01*
X15231215Y-47059512D01*
X15425362Y-47260558D01*
X15654863Y-47420065D01*
X15910973Y-47531957D01*
X16183940Y-47591972D01*
X16463365Y-47597825D01*
X16738606Y-47549293D01*
X16999177Y-47448224D01*
X17235156Y-47298468D01*
X17437552Y-47105728D01*
X17598657Y-46877347D01*
X17712334Y-46622024D01*
X17774254Y-46349483D01*
X17778711Y-46030257D01*
X17724426Y-45756093D01*
X17617922Y-45497695D01*
X17463256Y-45264905D01*
X17266320Y-45066590D01*
X17034616Y-44910303D01*
X16776968Y-44801997D01*
X16503190Y-44745799D01*
X16223710Y-44743848D01*
X15949174Y-44796218D01*
X15690039Y-44900916D01*
X15456175Y-45053952D01*
X15256489Y-45249499D01*
X15114190Y-45457322D01*
X15114190Y-45270000D01*
X15104051Y-45167053D01*
X15074022Y-45068062D01*
X15025258Y-44976831D01*
X14959633Y-44896867D01*
X14879669Y-44831242D01*
X14788438Y-44782478D01*
X14689447Y-44752449D01*
X14586500Y-44742310D01*
X12786500Y-44742310D01*
X12683553Y-44752449D01*
X12584562Y-44782478D01*
X12493331Y-44831242D01*
X12413367Y-44896867D01*
X12347742Y-44976831D01*
X12298978Y-45068062D01*
X12268949Y-45167053D01*
X12258810Y-45270000D01*
X575150Y-45270000D01*
X575150Y-42247218D01*
X9933174Y-42247218D01*
X9978316Y-42493180D01*
X10070373Y-42725689D01*
X10205838Y-42935889D01*
X10379551Y-43115774D01*
X10584896Y-43258493D01*
X10814050Y-43358608D01*
X11058287Y-43412307D01*
X11308302Y-43417544D01*
X11554572Y-43374119D01*
X11787718Y-43283688D01*
X11998859Y-43149694D01*
X12179953Y-42977241D01*
X12324101Y-42772898D01*
X12425814Y-42544447D01*
X12481216Y-42300592D01*
X12483318Y-42150088D01*
X12518316Y-42340780D01*
X12610373Y-42573289D01*
X12745838Y-42783489D01*
X12919551Y-42963374D01*
X13124896Y-43106093D01*
X13354050Y-43206208D01*
X13598287Y-43259907D01*
X13848302Y-43265144D01*
X14094572Y-43221719D01*
X14327718Y-43131288D01*
X14538859Y-42997294D01*
X14719953Y-42824841D01*
X14864101Y-42620498D01*
X14965814Y-42392047D01*
X15014121Y-42179423D01*
X15013174Y-42247218D01*
X15058316Y-42493180D01*
X15150373Y-42725689D01*
X15285838Y-42935889D01*
X15459551Y-43115774D01*
X15664896Y-43258493D01*
X15894050Y-43358608D01*
X16138287Y-43412307D01*
X16388302Y-43417544D01*
X16634572Y-43374119D01*
X16867718Y-43283688D01*
X17078859Y-43149694D01*
X17259953Y-42977241D01*
X17404101Y-42772898D01*
X17505814Y-42544447D01*
X17561216Y-42300592D01*
X17565205Y-42014965D01*
X17516633Y-41769658D01*
X17421338Y-41538457D01*
X17282952Y-41330168D01*
X17106744Y-41152726D01*
X16899427Y-41012889D01*
X16668897Y-40915983D01*
X16423934Y-40865699D01*
X16173871Y-40863953D01*
X15928230Y-40910812D01*
X15696370Y-41004490D01*
X15487120Y-41141419D01*
X15308452Y-41316383D01*
X15167171Y-41522719D01*
X15068658Y-41752567D01*
X15023793Y-41963636D01*
X15025205Y-41862565D01*
X14976633Y-41617258D01*
X14881338Y-41386057D01*
X14742952Y-41177768D01*
X14566744Y-41000326D01*
X14359427Y-40860489D01*
X14128897Y-40763583D01*
X13883934Y-40713299D01*
X13633871Y-40711553D01*
X13388230Y-40758412D01*
X13156370Y-40852090D01*
X12947120Y-40989019D01*
X12768452Y-41163983D01*
X12627171Y-41370319D01*
X12528658Y-41600167D01*
X12476665Y-41844773D01*
X12475008Y-41963466D01*
X12436633Y-41769658D01*
X12341338Y-41538457D01*
X12202952Y-41330168D01*
X12026744Y-41152726D01*
X11819427Y-41012889D01*
X11588897Y-40915983D01*
X11343934Y-40865699D01*
X11093871Y-40863953D01*
X10848230Y-40910812D01*
X10616370Y-41004490D01*
X10407120Y-41141419D01*
X10228452Y-41316383D01*
X10087171Y-41522719D01*
X9988658Y-41752567D01*
X9936665Y-41997173D01*
X9933174Y-42247218D01*
X575150Y-42247218D01*
X575150Y-38028130D01*
X585947Y-37918013D01*
X609755Y-37839157D01*
X648432Y-37766416D01*
X700496Y-37702579D01*
X763970Y-37650068D01*
X836427Y-37610891D01*
X915130Y-37586529D01*
X1023389Y-37575150D01*
X4000000Y-37575150D01*
X4000100Y-37575140D01*
X4001977Y-37575147D01*
X4008958Y-37575123D01*
X4033970Y-37572584D01*
X4059110Y-37572759D01*
X4067102Y-37571975D01*
X4261199Y-37551574D01*
X4312212Y-37541102D01*
X4363466Y-37531325D01*
X4371154Y-37529004D01*
X4557592Y-37471292D01*
X4605664Y-37451084D01*
X4653980Y-37431563D01*
X4661066Y-37427795D01*
X4661071Y-37427793D01*
X4661075Y-37427790D01*
X4832747Y-37334968D01*
X4875929Y-37305841D01*
X4919585Y-37277273D01*
X4925808Y-37272198D01*
X5076186Y-37147794D01*
X5112902Y-37110821D01*
X5150162Y-37074333D01*
X5155280Y-37068146D01*
X5278630Y-36916904D01*
X5307464Y-36873505D01*
X5336929Y-36830472D01*
X5340749Y-36823408D01*
X5432374Y-36651086D01*
X5452234Y-36602901D01*
X5472774Y-36554977D01*
X5475148Y-36547306D01*
X5531557Y-36360470D01*
X5541672Y-36309388D01*
X5552521Y-36258346D01*
X5553360Y-36250359D01*
X5572405Y-36056126D01*
X5572405Y-36032004D01*
X5575094Y-36008030D01*
X5575150Y-36000000D01*
X5575150Y-25317187D01*
X10435246Y-25317187D01*
X10501050Y-25555254D01*
X10747855Y-25670597D01*
X11012420Y-25735574D01*
X11284577Y-25747689D01*
X11553869Y-25706476D01*
X11809946Y-25613518D01*
X11918950Y-25555254D01*
X11984754Y-25317187D01*
X11210000Y-24542434D01*
X10435246Y-25317187D01*
X5575150Y-25317187D01*
X5575150Y-24434577D01*
X9822311Y-24434577D01*
X9863524Y-24703869D01*
X9956482Y-24959946D01*
X10014746Y-25068950D01*
X10252813Y-25134754D01*
X11027566Y-24360000D01*
X11392434Y-24360000D01*
X12167187Y-25134754D01*
X12405254Y-25068950D01*
X12520597Y-24822145D01*
X12559340Y-24664395D01*
X12610373Y-24793289D01*
X12745838Y-25003489D01*
X12919551Y-25183374D01*
X13124896Y-25326093D01*
X13354050Y-25426208D01*
X13598287Y-25479907D01*
X13848302Y-25485144D01*
X14094572Y-25441719D01*
X14327718Y-25351288D01*
X14538859Y-25217294D01*
X14719953Y-25044841D01*
X14864101Y-24840498D01*
X14965814Y-24612047D01*
X15014121Y-24399423D01*
X15013174Y-24467218D01*
X15058316Y-24713180D01*
X15150373Y-24945689D01*
X15285838Y-25155889D01*
X15459551Y-25335774D01*
X15664896Y-25478493D01*
X15894050Y-25578608D01*
X16138287Y-25632307D01*
X16388302Y-25637544D01*
X16634572Y-25594119D01*
X16867718Y-25503688D01*
X17078859Y-25369694D01*
X17259953Y-25197241D01*
X17404101Y-24992898D01*
X17505814Y-24764447D01*
X17561216Y-24520592D01*
X17565205Y-24234965D01*
X17516633Y-23989658D01*
X17421338Y-23758457D01*
X17282952Y-23550168D01*
X17106744Y-23372726D01*
X16899427Y-23232889D01*
X16668897Y-23135983D01*
X16423934Y-23085699D01*
X16173871Y-23083953D01*
X15928230Y-23130812D01*
X15696370Y-23224490D01*
X15487120Y-23361419D01*
X15308452Y-23536383D01*
X15167171Y-23742719D01*
X15068658Y-23972567D01*
X15023793Y-24183636D01*
X15025205Y-24082565D01*
X14976633Y-23837258D01*
X14881338Y-23606057D01*
X14742952Y-23397768D01*
X14566744Y-23220326D01*
X14359427Y-23080489D01*
X14128897Y-22983583D01*
X13883934Y-22933299D01*
X13633871Y-22931553D01*
X13388230Y-22978412D01*
X13156370Y-23072090D01*
X12947120Y-23209019D01*
X12768452Y-23383983D01*
X12627171Y-23590319D01*
X12528658Y-23820167D01*
X12512660Y-23895429D01*
X12463518Y-23760054D01*
X12405254Y-23651050D01*
X12167187Y-23585246D01*
X11392434Y-24360000D01*
X11027566Y-24360000D01*
X10252813Y-23585246D01*
X10014746Y-23651050D01*
X9899403Y-23897855D01*
X9834426Y-24162420D01*
X9822311Y-24434577D01*
X5575150Y-24434577D01*
X5575150Y-23402813D01*
X10435246Y-23402813D01*
X11210000Y-24177566D01*
X11984754Y-23402813D01*
X11918950Y-23164746D01*
X11672145Y-23049403D01*
X11407580Y-22984426D01*
X11135423Y-22972311D01*
X10866131Y-23013524D01*
X10610054Y-23106482D01*
X10501050Y-23164746D01*
X10435246Y-23402813D01*
X5575150Y-23402813D01*
X5575150Y-21875000D01*
X8000000Y-21875000D01*
X8024386Y-21872598D01*
X8047835Y-21865485D01*
X8069446Y-21853934D01*
X8088388Y-21838388D01*
X8103934Y-21819446D01*
X8115485Y-21797835D01*
X8122598Y-21774386D01*
X8125000Y-21750000D01*
X8125000Y-9125000D01*
X11128772Y-9125000D01*
X11875000Y-9871228D01*
G36*
X50475000Y-17396016D02*
X50475000Y-23190954D01*
X50447215Y-23209136D01*
X50268568Y-23384080D01*
X50127303Y-23590392D01*
X50028802Y-23820213D01*
X50012757Y-23895696D01*
X49963518Y-23760054D01*
X49905254Y-23651050D01*
X49667187Y-23585246D01*
X48892434Y-24360000D01*
X49667187Y-25134754D01*
X49905254Y-25068950D01*
X50020597Y-24822145D01*
X50059402Y-24664143D01*
X50110507Y-24793220D01*
X50245956Y-25003395D01*
X50419649Y-25183259D01*
X50624969Y-25325961D01*
X50854097Y-25426064D01*
X51098305Y-25479757D01*
X51348290Y-25484993D01*
X51594532Y-25441574D01*
X51827650Y-25351153D01*
X52038766Y-25217175D01*
X52219839Y-25044742D01*
X52363970Y-24840423D01*
X52465671Y-24612000D01*
X52514290Y-24398001D01*
X52513324Y-24467205D01*
X52558461Y-24713138D01*
X52650507Y-24945620D01*
X52785956Y-25155795D01*
X52959649Y-25335659D01*
X53164969Y-25478361D01*
X53394097Y-25578464D01*
X53638305Y-25632157D01*
X53888290Y-25637393D01*
X54134532Y-25593974D01*
X54367650Y-25503553D01*
X54578766Y-25369575D01*
X54759839Y-25197142D01*
X54803675Y-25135000D01*
X58935000Y-25135000D01*
X58935000Y-38160000D01*
X58941986Y-38231249D01*
X58948225Y-38302563D01*
X58949363Y-38306478D01*
X58949760Y-38310532D01*
X58970438Y-38379023D01*
X58990423Y-38447810D01*
X58992300Y-38451430D01*
X58993477Y-38455330D01*
X59027071Y-38518511D01*
X59060030Y-38582095D01*
X59062574Y-38585281D01*
X59064486Y-38588878D01*
X59109735Y-38644359D01*
X59154394Y-38700302D01*
X59159988Y-38705975D01*
X59160083Y-38706092D01*
X59160191Y-38706181D01*
X59161992Y-38708008D01*
X60601993Y-40148008D01*
X60657296Y-40193434D01*
X60712151Y-40239463D01*
X60715724Y-40241427D01*
X60718872Y-40244013D01*
X60781929Y-40277824D01*
X60844695Y-40312330D01*
X60848582Y-40313563D01*
X60852172Y-40315488D01*
X60920617Y-40336414D01*
X60960460Y-40349053D01*
X60960460Y-40362000D01*
X60970597Y-40464918D01*
X61000617Y-40563881D01*
X61049367Y-40655086D01*
X61114973Y-40735027D01*
X61194914Y-40800633D01*
X61286119Y-40849383D01*
X61385082Y-40879403D01*
X61488000Y-40889540D01*
X63012000Y-40889540D01*
X63114918Y-40879403D01*
X63213881Y-40849383D01*
X63305086Y-40800633D01*
X63385027Y-40735027D01*
X63450633Y-40655086D01*
X63499383Y-40563881D01*
X63529403Y-40464918D01*
X63539540Y-40362000D01*
X63539540Y-38838000D01*
X63529403Y-38735082D01*
X63499383Y-38636119D01*
X63450633Y-38544914D01*
X63385027Y-38464973D01*
X63305086Y-38399367D01*
X63213881Y-38350617D01*
X63114918Y-38320597D01*
X63012000Y-38310460D01*
X62633644Y-38310460D01*
X62661274Y-38305588D01*
X62896587Y-38214316D01*
X63109690Y-38079077D01*
X63292466Y-37905021D01*
X63437954Y-37698779D01*
X63540612Y-37468206D01*
X63596530Y-37222084D01*
X63600555Y-36933803D01*
X63551531Y-36686216D01*
X63455352Y-36452867D01*
X63315679Y-36242643D01*
X63137834Y-36063551D01*
X62928590Y-35922415D01*
X62695918Y-35824608D01*
X62686348Y-35822643D01*
X62790638Y-35784880D01*
X62902569Y-35725051D01*
X62969827Y-35485760D01*
X62186500Y-34702434D01*
X61403173Y-35485760D01*
X61470431Y-35725051D01*
X61719284Y-35841595D01*
X61827436Y-35868249D01*
X61714353Y-35913938D01*
X61503159Y-36052139D01*
X61322831Y-36228730D01*
X61180237Y-36436983D01*
X61080808Y-36668967D01*
X61028332Y-36915845D01*
X61024809Y-37168214D01*
X61070370Y-37416462D01*
X61163283Y-37651131D01*
X61300006Y-37863285D01*
X61475334Y-38044842D01*
X61682587Y-38188886D01*
X61913871Y-38289932D01*
X62007237Y-38310460D01*
X61488000Y-38310460D01*
X61385082Y-38320597D01*
X61286119Y-38350617D01*
X61194914Y-38399367D01*
X61114973Y-38464973D01*
X61113177Y-38467162D01*
X60485000Y-37838984D01*
X60485000Y-34594102D01*
X60786710Y-34594102D01*
X60828063Y-34865764D01*
X60921620Y-35124138D01*
X60981449Y-35236069D01*
X61220740Y-35303327D01*
X62004066Y-34520000D01*
X62368934Y-34520000D01*
X63152260Y-35303327D01*
X63391551Y-35236069D01*
X63508095Y-34987216D01*
X63573850Y-34720407D01*
X63586290Y-34445898D01*
X63544937Y-34174236D01*
X63451380Y-33915862D01*
X63391551Y-33803931D01*
X63152260Y-33736673D01*
X62368934Y-34520000D01*
X62004066Y-34520000D01*
X61220740Y-33736673D01*
X60981449Y-33803931D01*
X60864905Y-34052784D01*
X60799150Y-34319593D01*
X60786710Y-34594102D01*
X60485000Y-34594102D01*
X60485000Y-24681016D01*
X62056475Y-23109540D01*
X63012000Y-23109540D01*
X63050000Y-23105797D01*
X63050000Y-25887138D01*
X62865090Y-25762415D01*
X62632418Y-25664608D01*
X62385179Y-25613857D01*
X62132792Y-25612095D01*
X61884868Y-25659389D01*
X61650853Y-25753938D01*
X61439659Y-25892139D01*
X61259331Y-26068730D01*
X61116737Y-26276983D01*
X61017308Y-26508967D01*
X60964832Y-26755845D01*
X60961309Y-27008214D01*
X61006870Y-27256462D01*
X61099783Y-27491131D01*
X61236506Y-27703285D01*
X61411834Y-27884842D01*
X61475000Y-27928743D01*
X61475000Y-28367459D01*
X61376159Y-28432139D01*
X61195831Y-28608730D01*
X61053237Y-28816983D01*
X60953808Y-29048967D01*
X60901332Y-29295845D01*
X60897809Y-29548214D01*
X60943370Y-29796462D01*
X61036283Y-30031131D01*
X61173006Y-30243285D01*
X61348334Y-30424842D01*
X61555587Y-30568886D01*
X61786871Y-30669932D01*
X62031046Y-30723617D01*
X61948368Y-30739389D01*
X61714353Y-30833938D01*
X61503159Y-30972139D01*
X61322831Y-31148730D01*
X61180237Y-31356983D01*
X61080808Y-31588967D01*
X61028332Y-31835845D01*
X61024809Y-32088214D01*
X61070370Y-32336462D01*
X61163283Y-32571131D01*
X61300006Y-32783285D01*
X61475334Y-32964842D01*
X61682587Y-33108886D01*
X61820189Y-33169003D01*
X61582362Y-33255120D01*
X61470431Y-33314949D01*
X61403173Y-33554240D01*
X62186500Y-34337566D01*
X62969827Y-33554240D01*
X62902569Y-33314949D01*
X62688888Y-33214877D01*
X62896587Y-33134316D01*
X63109690Y-32999077D01*
X63292466Y-32825021D01*
X63437954Y-32618779D01*
X63540612Y-32388206D01*
X63596530Y-32142084D01*
X63600555Y-31853803D01*
X63589838Y-31799678D01*
X64373008Y-31016508D01*
X64418473Y-30961158D01*
X64425000Y-30953379D01*
X64425000Y-53471875D01*
X64376111Y-53970483D01*
X64239474Y-54423046D01*
X64017537Y-54840449D01*
X63718752Y-55206795D01*
X63354500Y-55508132D01*
X62938659Y-55732975D01*
X62487058Y-55872769D01*
X61990116Y-55925000D01*
X43450000Y-55925000D01*
X43450000Y-51441288D01*
X43908509Y-51441288D01*
X43989048Y-51880109D01*
X44153287Y-52294930D01*
X44394970Y-52669949D01*
X44704893Y-52990883D01*
X45071249Y-53245507D01*
X45480085Y-53424123D01*
X45915828Y-53519927D01*
X46361880Y-53529271D01*
X46801253Y-53451797D01*
X47217210Y-53290458D01*
X47593907Y-53051399D01*
X47916997Y-52743725D01*
X48174172Y-52379155D01*
X48355638Y-51971576D01*
X48454482Y-51536513D01*
X48455811Y-51441288D01*
X54035509Y-51441288D01*
X54116048Y-51880109D01*
X54280287Y-52294930D01*
X54521970Y-52669949D01*
X54831893Y-52990883D01*
X55198249Y-53245507D01*
X55607085Y-53424123D01*
X56042828Y-53519927D01*
X56488880Y-53529271D01*
X56928253Y-53451797D01*
X57344210Y-53290458D01*
X57467353Y-53212309D01*
X58971681Y-53212309D01*
X59061070Y-53699352D01*
X59243358Y-54159757D01*
X59511600Y-54575987D01*
X59855579Y-54932188D01*
X60262194Y-55214793D01*
X60715957Y-55413037D01*
X61199583Y-55519369D01*
X61694653Y-55529739D01*
X62182308Y-55443752D01*
X62643974Y-55264684D01*
X63062067Y-54999354D01*
X63420661Y-54657870D01*
X63706097Y-54253238D01*
X63907504Y-53800870D01*
X64017210Y-53317998D01*
X64025108Y-52752411D01*
X63928927Y-52266664D01*
X63740230Y-51808849D01*
X63466202Y-51396405D01*
X63117283Y-51045041D01*
X62706762Y-50768141D01*
X62250275Y-50576251D01*
X61765211Y-50476682D01*
X61270045Y-50473225D01*
X60783638Y-50566012D01*
X60324517Y-50751509D01*
X59910170Y-51022650D01*
X59556379Y-51369108D01*
X59276620Y-51777686D01*
X59081548Y-52232822D01*
X58978595Y-52717179D01*
X58971681Y-53212309D01*
X57467353Y-53212309D01*
X57720907Y-53051399D01*
X58043997Y-52743725D01*
X58301172Y-52379155D01*
X58482638Y-51971576D01*
X58581482Y-51536513D01*
X58588598Y-51026925D01*
X58501940Y-50589271D01*
X58331925Y-50176784D01*
X58085029Y-49805176D01*
X57770656Y-49488601D01*
X57400781Y-49239116D01*
X56989491Y-49066226D01*
X56552453Y-48976515D01*
X56106313Y-48973400D01*
X55668065Y-49057001D01*
X55254402Y-49224132D01*
X54881079Y-49468427D01*
X54562316Y-49780582D01*
X54310256Y-50148707D01*
X54134499Y-50558780D01*
X54041739Y-50995181D01*
X54035509Y-51441288D01*
X48455811Y-51441288D01*
X48461598Y-51026925D01*
X48374940Y-50589271D01*
X48204925Y-50176784D01*
X47958029Y-49805176D01*
X47643656Y-49488601D01*
X47273781Y-49239116D01*
X46862491Y-49066226D01*
X46425453Y-48976515D01*
X45979313Y-48973400D01*
X45541065Y-49057001D01*
X45127402Y-49224132D01*
X44754079Y-49468427D01*
X44435316Y-49780582D01*
X44183256Y-50148707D01*
X44007499Y-50558780D01*
X43914739Y-50995181D01*
X43908509Y-51441288D01*
X43450000Y-51441288D01*
X43450000Y-45270000D01*
X49758960Y-45270000D01*
X49758960Y-47070000D01*
X49769097Y-47172918D01*
X49799117Y-47271881D01*
X49847867Y-47363086D01*
X49913473Y-47443027D01*
X49993414Y-47508633D01*
X50084619Y-47557383D01*
X50183582Y-47587403D01*
X50286500Y-47597540D01*
X52086500Y-47597540D01*
X52189418Y-47587403D01*
X52288381Y-47557383D01*
X52379586Y-47508633D01*
X52459527Y-47443027D01*
X52525133Y-47363086D01*
X52573883Y-47271881D01*
X52603903Y-47172918D01*
X52614040Y-47070000D01*
X52614040Y-46877415D01*
X52731333Y-47059418D01*
X52925460Y-47260443D01*
X53154936Y-47419933D01*
X53411020Y-47531813D01*
X53683958Y-47591822D01*
X53963354Y-47597675D01*
X54238565Y-47549148D01*
X54499109Y-47448089D01*
X54735063Y-47298349D01*
X54937437Y-47105630D01*
X55098525Y-46877273D01*
X55212191Y-46621976D01*
X55274104Y-46349464D01*
X55278561Y-46030272D01*
X55224281Y-45756137D01*
X55117788Y-45497766D01*
X54963139Y-45265000D01*
X54766224Y-45066706D01*
X54534544Y-44910436D01*
X54276923Y-44802142D01*
X54003174Y-44745949D01*
X53723724Y-44743998D01*
X53449217Y-44796363D01*
X53190109Y-44901050D01*
X52956269Y-45054070D01*
X52756605Y-45249596D01*
X52614040Y-45457806D01*
X52614040Y-45270000D01*
X52603903Y-45167082D01*
X52573883Y-45068119D01*
X52525133Y-44976914D01*
X52459527Y-44896973D01*
X52379586Y-44831367D01*
X52288381Y-44782617D01*
X52189418Y-44752597D01*
X52086500Y-44742460D01*
X50286500Y-44742460D01*
X50183582Y-44752597D01*
X50084619Y-44782617D01*
X49993414Y-44831367D01*
X49913473Y-44896973D01*
X49847867Y-44976914D01*
X49799117Y-45068119D01*
X49769097Y-45167082D01*
X49758960Y-45270000D01*
X43450000Y-45270000D01*
X43450000Y-27500000D01*
X43447598Y-27475614D01*
X43440485Y-27452165D01*
X43428934Y-27430554D01*
X43413388Y-27411612D01*
X43394446Y-27396066D01*
X43372835Y-27384515D01*
X43349386Y-27377402D01*
X43325000Y-27375000D01*
X39625000Y-27375000D01*
X39625000Y-18500000D01*
X39622598Y-18475614D01*
X39615485Y-18452165D01*
X39603934Y-18430554D01*
X39588388Y-18411612D01*
X39569446Y-18396066D01*
X39547835Y-18384515D01*
X39524386Y-18377402D01*
X39500000Y-18375000D01*
X31875000Y-18375000D01*
X31875000Y-14300000D01*
X38441255Y-14300000D01*
X38549732Y-14375393D01*
X38723958Y-14451511D01*
X38909652Y-14492338D01*
X39099739Y-14496320D01*
X39286979Y-14463304D01*
X39464241Y-14394549D01*
X39613226Y-14300000D01*
X43803984Y-14300000D01*
X45775000Y-16271016D01*
X45775000Y-24975000D01*
X45781986Y-25046249D01*
X45788225Y-25117563D01*
X45789363Y-25121478D01*
X45789760Y-25125532D01*
X45810438Y-25194023D01*
X45830423Y-25262810D01*
X45832300Y-25266430D01*
X45833477Y-25270330D01*
X45867071Y-25333511D01*
X45900030Y-25397095D01*
X45902574Y-25400281D01*
X45904486Y-25403878D01*
X45949735Y-25459359D01*
X45994394Y-25515302D01*
X45999988Y-25520975D01*
X46000083Y-25521092D01*
X46000191Y-25521181D01*
X46001992Y-25523008D01*
X47935000Y-27456016D01*
X47935000Y-41123354D01*
X47907215Y-41141536D01*
X47728568Y-41316480D01*
X47587303Y-41522792D01*
X47488802Y-41752613D01*
X47436815Y-41997189D01*
X47433324Y-42247205D01*
X47478461Y-42493138D01*
X47570507Y-42725620D01*
X47705956Y-42935795D01*
X47879649Y-43115659D01*
X48084969Y-43258361D01*
X48314097Y-43358464D01*
X48558305Y-43412157D01*
X48808290Y-43417393D01*
X49054532Y-43373974D01*
X49287650Y-43283553D01*
X49498766Y-43149575D01*
X49679839Y-42977142D01*
X49823970Y-42772823D01*
X49925671Y-42544400D01*
X49981067Y-42300573D01*
X49983189Y-42148557D01*
X50018461Y-42340738D01*
X50110507Y-42573220D01*
X50245956Y-42783395D01*
X50419649Y-42963259D01*
X50624969Y-43105961D01*
X50854097Y-43206064D01*
X51098305Y-43259757D01*
X51348290Y-43264993D01*
X51594532Y-43221574D01*
X51827650Y-43131153D01*
X52038766Y-42997175D01*
X52219839Y-42824742D01*
X52363970Y-42620423D01*
X52465671Y-42392000D01*
X52514290Y-42178001D01*
X52513324Y-42247205D01*
X52558461Y-42493138D01*
X52650507Y-42725620D01*
X52785956Y-42935795D01*
X52959649Y-43115659D01*
X53164969Y-43258361D01*
X53394097Y-43358464D01*
X53638305Y-43412157D01*
X53888290Y-43417393D01*
X54134532Y-43373974D01*
X54367650Y-43283553D01*
X54578766Y-43149575D01*
X54759839Y-42977142D01*
X54903970Y-42772823D01*
X55005671Y-42544400D01*
X55061067Y-42300573D01*
X55065054Y-42014980D01*
X55016488Y-41769701D01*
X54921205Y-41538528D01*
X54782835Y-41330264D01*
X54606648Y-41152842D01*
X54399355Y-41013022D01*
X54168852Y-40916127D01*
X53923919Y-40865849D01*
X53673884Y-40864104D01*
X53428273Y-40910957D01*
X53196439Y-41004623D01*
X52987215Y-41141536D01*
X52808568Y-41316480D01*
X52667303Y-41522792D01*
X52568802Y-41752613D01*
X52523622Y-41965166D01*
X52525054Y-41862580D01*
X52476488Y-41617301D01*
X52381205Y-41386128D01*
X52242835Y-41177864D01*
X52066648Y-41000442D01*
X51859355Y-40860622D01*
X51628852Y-40763727D01*
X51383919Y-40713449D01*
X51133884Y-40711704D01*
X50888273Y-40758557D01*
X50656439Y-40852223D01*
X50447215Y-40989136D01*
X50268568Y-41164080D01*
X50127303Y-41370392D01*
X50028802Y-41600213D01*
X49976815Y-41844789D01*
X49975138Y-41964899D01*
X49936488Y-41769701D01*
X49841205Y-41538528D01*
X49702835Y-41330264D01*
X49526648Y-41152842D01*
X49485000Y-41124750D01*
X49485000Y-27135000D01*
X49478009Y-27063701D01*
X49471774Y-26992437D01*
X49470638Y-26988527D01*
X49470240Y-26984468D01*
X49449535Y-26915890D01*
X49429576Y-26847190D01*
X49427702Y-26843574D01*
X49426523Y-26839670D01*
X49392910Y-26776454D01*
X49359970Y-26712905D01*
X49357426Y-26709719D01*
X49355514Y-26706122D01*
X49310260Y-26650635D01*
X49265605Y-26594697D01*
X49260012Y-26589025D01*
X49259917Y-26588908D01*
X49259809Y-26588819D01*
X49258008Y-26586992D01*
X48372136Y-25701120D01*
X48512420Y-25735574D01*
X48784577Y-25747689D01*
X49053869Y-25706476D01*
X49309946Y-25613518D01*
X49418950Y-25555254D01*
X49484754Y-25317187D01*
X48710000Y-24542434D01*
X48695858Y-24556576D01*
X48513424Y-24374142D01*
X48527566Y-24360000D01*
X47752813Y-23585246D01*
X47514746Y-23651050D01*
X47399403Y-23897855D01*
X47334426Y-24162420D01*
X47325000Y-24374170D01*
X47325000Y-23402813D01*
X47935246Y-23402813D01*
X48710000Y-24177566D01*
X49484754Y-23402813D01*
X49418950Y-23164746D01*
X49172145Y-23049403D01*
X48907580Y-22984426D01*
X48635423Y-22972311D01*
X48366131Y-23013524D01*
X48110054Y-23106482D01*
X48001050Y-23164746D01*
X47935246Y-23402813D01*
X47325000Y-23402813D01*
X47325000Y-15950000D01*
X47318013Y-15878747D01*
X47311775Y-15807437D01*
X47310637Y-15803522D01*
X47310240Y-15799468D01*
X47289562Y-15730977D01*
X47269577Y-15662190D01*
X47267700Y-15658570D01*
X47266523Y-15654670D01*
X47232929Y-15591489D01*
X47199970Y-15527905D01*
X47197426Y-15524719D01*
X47195514Y-15521122D01*
X47150265Y-15465641D01*
X47105606Y-15409698D01*
X47100012Y-15404025D01*
X47099917Y-15403908D01*
X47099809Y-15403819D01*
X47098008Y-15401992D01*
X44821016Y-13125000D01*
X46203984Y-13125000D01*
X50475000Y-17396016D01*
X50475000Y-17396016D01*
G37*
X50475000Y-17396016D02*
X50475000Y-23190954D01*
X50447215Y-23209136D01*
X50268568Y-23384080D01*
X50127303Y-23590392D01*
X50028802Y-23820213D01*
X50012757Y-23895696D01*
X49963518Y-23760054D01*
X49905254Y-23651050D01*
X49667187Y-23585246D01*
X48892434Y-24360000D01*
X49667187Y-25134754D01*
X49905254Y-25068950D01*
X50020597Y-24822145D01*
X50059402Y-24664143D01*
X50110507Y-24793220D01*
X50245956Y-25003395D01*
X50419649Y-25183259D01*
X50624969Y-25325961D01*
X50854097Y-25426064D01*
X51098305Y-25479757D01*
X51348290Y-25484993D01*
X51594532Y-25441574D01*
X51827650Y-25351153D01*
X52038766Y-25217175D01*
X52219839Y-25044742D01*
X52363970Y-24840423D01*
X52465671Y-24612000D01*
X52514290Y-24398001D01*
X52513324Y-24467205D01*
X52558461Y-24713138D01*
X52650507Y-24945620D01*
X52785956Y-25155795D01*
X52959649Y-25335659D01*
X53164969Y-25478361D01*
X53394097Y-25578464D01*
X53638305Y-25632157D01*
X53888290Y-25637393D01*
X54134532Y-25593974D01*
X54367650Y-25503553D01*
X54578766Y-25369575D01*
X54759839Y-25197142D01*
X54803675Y-25135000D01*
X58935000Y-25135000D01*
X58935000Y-38160000D01*
X58941986Y-38231249D01*
X58948225Y-38302563D01*
X58949363Y-38306478D01*
X58949760Y-38310532D01*
X58970438Y-38379023D01*
X58990423Y-38447810D01*
X58992300Y-38451430D01*
X58993477Y-38455330D01*
X59027071Y-38518511D01*
X59060030Y-38582095D01*
X59062574Y-38585281D01*
X59064486Y-38588878D01*
X59109735Y-38644359D01*
X59154394Y-38700302D01*
X59159988Y-38705975D01*
X59160083Y-38706092D01*
X59160191Y-38706181D01*
X59161992Y-38708008D01*
X60601993Y-40148008D01*
X60657296Y-40193434D01*
X60712151Y-40239463D01*
X60715724Y-40241427D01*
X60718872Y-40244013D01*
X60781929Y-40277824D01*
X60844695Y-40312330D01*
X60848582Y-40313563D01*
X60852172Y-40315488D01*
X60920617Y-40336414D01*
X60960460Y-40349053D01*
X60960460Y-40362000D01*
X60970597Y-40464918D01*
X61000617Y-40563881D01*
X61049367Y-40655086D01*
X61114973Y-40735027D01*
X61194914Y-40800633D01*
X61286119Y-40849383D01*
X61385082Y-40879403D01*
X61488000Y-40889540D01*
X63012000Y-40889540D01*
X63114918Y-40879403D01*
X63213881Y-40849383D01*
X63305086Y-40800633D01*
X63385027Y-40735027D01*
X63450633Y-40655086D01*
X63499383Y-40563881D01*
X63529403Y-40464918D01*
X63539540Y-40362000D01*
X63539540Y-38838000D01*
X63529403Y-38735082D01*
X63499383Y-38636119D01*
X63450633Y-38544914D01*
X63385027Y-38464973D01*
X63305086Y-38399367D01*
X63213881Y-38350617D01*
X63114918Y-38320597D01*
X63012000Y-38310460D01*
X62633644Y-38310460D01*
X62661274Y-38305588D01*
X62896587Y-38214316D01*
X63109690Y-38079077D01*
X63292466Y-37905021D01*
X63437954Y-37698779D01*
X63540612Y-37468206D01*
X63596530Y-37222084D01*
X63600555Y-36933803D01*
X63551531Y-36686216D01*
X63455352Y-36452867D01*
X63315679Y-36242643D01*
X63137834Y-36063551D01*
X62928590Y-35922415D01*
X62695918Y-35824608D01*
X62686348Y-35822643D01*
X62790638Y-35784880D01*
X62902569Y-35725051D01*
X62969827Y-35485760D01*
X62186500Y-34702434D01*
X61403173Y-35485760D01*
X61470431Y-35725051D01*
X61719284Y-35841595D01*
X61827436Y-35868249D01*
X61714353Y-35913938D01*
X61503159Y-36052139D01*
X61322831Y-36228730D01*
X61180237Y-36436983D01*
X61080808Y-36668967D01*
X61028332Y-36915845D01*
X61024809Y-37168214D01*
X61070370Y-37416462D01*
X61163283Y-37651131D01*
X61300006Y-37863285D01*
X61475334Y-38044842D01*
X61682587Y-38188886D01*
X61913871Y-38289932D01*
X62007237Y-38310460D01*
X61488000Y-38310460D01*
X61385082Y-38320597D01*
X61286119Y-38350617D01*
X61194914Y-38399367D01*
X61114973Y-38464973D01*
X61113177Y-38467162D01*
X60485000Y-37838984D01*
X60485000Y-34594102D01*
X60786710Y-34594102D01*
X60828063Y-34865764D01*
X60921620Y-35124138D01*
X60981449Y-35236069D01*
X61220740Y-35303327D01*
X62004066Y-34520000D01*
X62368934Y-34520000D01*
X63152260Y-35303327D01*
X63391551Y-35236069D01*
X63508095Y-34987216D01*
X63573850Y-34720407D01*
X63586290Y-34445898D01*
X63544937Y-34174236D01*
X63451380Y-33915862D01*
X63391551Y-33803931D01*
X63152260Y-33736673D01*
X62368934Y-34520000D01*
X62004066Y-34520000D01*
X61220740Y-33736673D01*
X60981449Y-33803931D01*
X60864905Y-34052784D01*
X60799150Y-34319593D01*
X60786710Y-34594102D01*
X60485000Y-34594102D01*
X60485000Y-24681016D01*
X62056475Y-23109540D01*
X63012000Y-23109540D01*
X63050000Y-23105797D01*
X63050000Y-25887138D01*
X62865090Y-25762415D01*
X62632418Y-25664608D01*
X62385179Y-25613857D01*
X62132792Y-25612095D01*
X61884868Y-25659389D01*
X61650853Y-25753938D01*
X61439659Y-25892139D01*
X61259331Y-26068730D01*
X61116737Y-26276983D01*
X61017308Y-26508967D01*
X60964832Y-26755845D01*
X60961309Y-27008214D01*
X61006870Y-27256462D01*
X61099783Y-27491131D01*
X61236506Y-27703285D01*
X61411834Y-27884842D01*
X61475000Y-27928743D01*
X61475000Y-28367459D01*
X61376159Y-28432139D01*
X61195831Y-28608730D01*
X61053237Y-28816983D01*
X60953808Y-29048967D01*
X60901332Y-29295845D01*
X60897809Y-29548214D01*
X60943370Y-29796462D01*
X61036283Y-30031131D01*
X61173006Y-30243285D01*
X61348334Y-30424842D01*
X61555587Y-30568886D01*
X61786871Y-30669932D01*
X62031046Y-30723617D01*
X61948368Y-30739389D01*
X61714353Y-30833938D01*
X61503159Y-30972139D01*
X61322831Y-31148730D01*
X61180237Y-31356983D01*
X61080808Y-31588967D01*
X61028332Y-31835845D01*
X61024809Y-32088214D01*
X61070370Y-32336462D01*
X61163283Y-32571131D01*
X61300006Y-32783285D01*
X61475334Y-32964842D01*
X61682587Y-33108886D01*
X61820189Y-33169003D01*
X61582362Y-33255120D01*
X61470431Y-33314949D01*
X61403173Y-33554240D01*
X62186500Y-34337566D01*
X62969827Y-33554240D01*
X62902569Y-33314949D01*
X62688888Y-33214877D01*
X62896587Y-33134316D01*
X63109690Y-32999077D01*
X63292466Y-32825021D01*
X63437954Y-32618779D01*
X63540612Y-32388206D01*
X63596530Y-32142084D01*
X63600555Y-31853803D01*
X63589838Y-31799678D01*
X64373008Y-31016508D01*
X64418473Y-30961158D01*
X64425000Y-30953379D01*
X64425000Y-53471875D01*
X64376111Y-53970483D01*
X64239474Y-54423046D01*
X64017537Y-54840449D01*
X63718752Y-55206795D01*
X63354500Y-55508132D01*
X62938659Y-55732975D01*
X62487058Y-55872769D01*
X61990116Y-55925000D01*
X43450000Y-55925000D01*
X43450000Y-51441288D01*
X43908509Y-51441288D01*
X43989048Y-51880109D01*
X44153287Y-52294930D01*
X44394970Y-52669949D01*
X44704893Y-52990883D01*
X45071249Y-53245507D01*
X45480085Y-53424123D01*
X45915828Y-53519927D01*
X46361880Y-53529271D01*
X46801253Y-53451797D01*
X47217210Y-53290458D01*
X47593907Y-53051399D01*
X47916997Y-52743725D01*
X48174172Y-52379155D01*
X48355638Y-51971576D01*
X48454482Y-51536513D01*
X48455811Y-51441288D01*
X54035509Y-51441288D01*
X54116048Y-51880109D01*
X54280287Y-52294930D01*
X54521970Y-52669949D01*
X54831893Y-52990883D01*
X55198249Y-53245507D01*
X55607085Y-53424123D01*
X56042828Y-53519927D01*
X56488880Y-53529271D01*
X56928253Y-53451797D01*
X57344210Y-53290458D01*
X57467353Y-53212309D01*
X58971681Y-53212309D01*
X59061070Y-53699352D01*
X59243358Y-54159757D01*
X59511600Y-54575987D01*
X59855579Y-54932188D01*
X60262194Y-55214793D01*
X60715957Y-55413037D01*
X61199583Y-55519369D01*
X61694653Y-55529739D01*
X62182308Y-55443752D01*
X62643974Y-55264684D01*
X63062067Y-54999354D01*
X63420661Y-54657870D01*
X63706097Y-54253238D01*
X63907504Y-53800870D01*
X64017210Y-53317998D01*
X64025108Y-52752411D01*
X63928927Y-52266664D01*
X63740230Y-51808849D01*
X63466202Y-51396405D01*
X63117283Y-51045041D01*
X62706762Y-50768141D01*
X62250275Y-50576251D01*
X61765211Y-50476682D01*
X61270045Y-50473225D01*
X60783638Y-50566012D01*
X60324517Y-50751509D01*
X59910170Y-51022650D01*
X59556379Y-51369108D01*
X59276620Y-51777686D01*
X59081548Y-52232822D01*
X58978595Y-52717179D01*
X58971681Y-53212309D01*
X57467353Y-53212309D01*
X57720907Y-53051399D01*
X58043997Y-52743725D01*
X58301172Y-52379155D01*
X58482638Y-51971576D01*
X58581482Y-51536513D01*
X58588598Y-51026925D01*
X58501940Y-50589271D01*
X58331925Y-50176784D01*
X58085029Y-49805176D01*
X57770656Y-49488601D01*
X57400781Y-49239116D01*
X56989491Y-49066226D01*
X56552453Y-48976515D01*
X56106313Y-48973400D01*
X55668065Y-49057001D01*
X55254402Y-49224132D01*
X54881079Y-49468427D01*
X54562316Y-49780582D01*
X54310256Y-50148707D01*
X54134499Y-50558780D01*
X54041739Y-50995181D01*
X54035509Y-51441288D01*
X48455811Y-51441288D01*
X48461598Y-51026925D01*
X48374940Y-50589271D01*
X48204925Y-50176784D01*
X47958029Y-49805176D01*
X47643656Y-49488601D01*
X47273781Y-49239116D01*
X46862491Y-49066226D01*
X46425453Y-48976515D01*
X45979313Y-48973400D01*
X45541065Y-49057001D01*
X45127402Y-49224132D01*
X44754079Y-49468427D01*
X44435316Y-49780582D01*
X44183256Y-50148707D01*
X44007499Y-50558780D01*
X43914739Y-50995181D01*
X43908509Y-51441288D01*
X43450000Y-51441288D01*
X43450000Y-45270000D01*
X49758960Y-45270000D01*
X49758960Y-47070000D01*
X49769097Y-47172918D01*
X49799117Y-47271881D01*
X49847867Y-47363086D01*
X49913473Y-47443027D01*
X49993414Y-47508633D01*
X50084619Y-47557383D01*
X50183582Y-47587403D01*
X50286500Y-47597540D01*
X52086500Y-47597540D01*
X52189418Y-47587403D01*
X52288381Y-47557383D01*
X52379586Y-47508633D01*
X52459527Y-47443027D01*
X52525133Y-47363086D01*
X52573883Y-47271881D01*
X52603903Y-47172918D01*
X52614040Y-47070000D01*
X52614040Y-46877415D01*
X52731333Y-47059418D01*
X52925460Y-47260443D01*
X53154936Y-47419933D01*
X53411020Y-47531813D01*
X53683958Y-47591822D01*
X53963354Y-47597675D01*
X54238565Y-47549148D01*
X54499109Y-47448089D01*
X54735063Y-47298349D01*
X54937437Y-47105630D01*
X55098525Y-46877273D01*
X55212191Y-46621976D01*
X55274104Y-46349464D01*
X55278561Y-46030272D01*
X55224281Y-45756137D01*
X55117788Y-45497766D01*
X54963139Y-45265000D01*
X54766224Y-45066706D01*
X54534544Y-44910436D01*
X54276923Y-44802142D01*
X54003174Y-44745949D01*
X53723724Y-44743998D01*
X53449217Y-44796363D01*
X53190109Y-44901050D01*
X52956269Y-45054070D01*
X52756605Y-45249596D01*
X52614040Y-45457806D01*
X52614040Y-45270000D01*
X52603903Y-45167082D01*
X52573883Y-45068119D01*
X52525133Y-44976914D01*
X52459527Y-44896973D01*
X52379586Y-44831367D01*
X52288381Y-44782617D01*
X52189418Y-44752597D01*
X52086500Y-44742460D01*
X50286500Y-44742460D01*
X50183582Y-44752597D01*
X50084619Y-44782617D01*
X49993414Y-44831367D01*
X49913473Y-44896973D01*
X49847867Y-44976914D01*
X49799117Y-45068119D01*
X49769097Y-45167082D01*
X49758960Y-45270000D01*
X43450000Y-45270000D01*
X43450000Y-27500000D01*
X43447598Y-27475614D01*
X43440485Y-27452165D01*
X43428934Y-27430554D01*
X43413388Y-27411612D01*
X43394446Y-27396066D01*
X43372835Y-27384515D01*
X43349386Y-27377402D01*
X43325000Y-27375000D01*
X39625000Y-27375000D01*
X39625000Y-18500000D01*
X39622598Y-18475614D01*
X39615485Y-18452165D01*
X39603934Y-18430554D01*
X39588388Y-18411612D01*
X39569446Y-18396066D01*
X39547835Y-18384515D01*
X39524386Y-18377402D01*
X39500000Y-18375000D01*
X31875000Y-18375000D01*
X31875000Y-14300000D01*
X38441255Y-14300000D01*
X38549732Y-14375393D01*
X38723958Y-14451511D01*
X38909652Y-14492338D01*
X39099739Y-14496320D01*
X39286979Y-14463304D01*
X39464241Y-14394549D01*
X39613226Y-14300000D01*
X43803984Y-14300000D01*
X45775000Y-16271016D01*
X45775000Y-24975000D01*
X45781986Y-25046249D01*
X45788225Y-25117563D01*
X45789363Y-25121478D01*
X45789760Y-25125532D01*
X45810438Y-25194023D01*
X45830423Y-25262810D01*
X45832300Y-25266430D01*
X45833477Y-25270330D01*
X45867071Y-25333511D01*
X45900030Y-25397095D01*
X45902574Y-25400281D01*
X45904486Y-25403878D01*
X45949735Y-25459359D01*
X45994394Y-25515302D01*
X45999988Y-25520975D01*
X46000083Y-25521092D01*
X46000191Y-25521181D01*
X46001992Y-25523008D01*
X47935000Y-27456016D01*
X47935000Y-41123354D01*
X47907215Y-41141536D01*
X47728568Y-41316480D01*
X47587303Y-41522792D01*
X47488802Y-41752613D01*
X47436815Y-41997189D01*
X47433324Y-42247205D01*
X47478461Y-42493138D01*
X47570507Y-42725620D01*
X47705956Y-42935795D01*
X47879649Y-43115659D01*
X48084969Y-43258361D01*
X48314097Y-43358464D01*
X48558305Y-43412157D01*
X48808290Y-43417393D01*
X49054532Y-43373974D01*
X49287650Y-43283553D01*
X49498766Y-43149575D01*
X49679839Y-42977142D01*
X49823970Y-42772823D01*
X49925671Y-42544400D01*
X49981067Y-42300573D01*
X49983189Y-42148557D01*
X50018461Y-42340738D01*
X50110507Y-42573220D01*
X50245956Y-42783395D01*
X50419649Y-42963259D01*
X50624969Y-43105961D01*
X50854097Y-43206064D01*
X51098305Y-43259757D01*
X51348290Y-43264993D01*
X51594532Y-43221574D01*
X51827650Y-43131153D01*
X52038766Y-42997175D01*
X52219839Y-42824742D01*
X52363970Y-42620423D01*
X52465671Y-42392000D01*
X52514290Y-42178001D01*
X52513324Y-42247205D01*
X52558461Y-42493138D01*
X52650507Y-42725620D01*
X52785956Y-42935795D01*
X52959649Y-43115659D01*
X53164969Y-43258361D01*
X53394097Y-43358464D01*
X53638305Y-43412157D01*
X53888290Y-43417393D01*
X54134532Y-43373974D01*
X54367650Y-43283553D01*
X54578766Y-43149575D01*
X54759839Y-42977142D01*
X54903970Y-42772823D01*
X55005671Y-42544400D01*
X55061067Y-42300573D01*
X55065054Y-42014980D01*
X55016488Y-41769701D01*
X54921205Y-41538528D01*
X54782835Y-41330264D01*
X54606648Y-41152842D01*
X54399355Y-41013022D01*
X54168852Y-40916127D01*
X53923919Y-40865849D01*
X53673884Y-40864104D01*
X53428273Y-40910957D01*
X53196439Y-41004623D01*
X52987215Y-41141536D01*
X52808568Y-41316480D01*
X52667303Y-41522792D01*
X52568802Y-41752613D01*
X52523622Y-41965166D01*
X52525054Y-41862580D01*
X52476488Y-41617301D01*
X52381205Y-41386128D01*
X52242835Y-41177864D01*
X52066648Y-41000442D01*
X51859355Y-40860622D01*
X51628852Y-40763727D01*
X51383919Y-40713449D01*
X51133884Y-40711704D01*
X50888273Y-40758557D01*
X50656439Y-40852223D01*
X50447215Y-40989136D01*
X50268568Y-41164080D01*
X50127303Y-41370392D01*
X50028802Y-41600213D01*
X49976815Y-41844789D01*
X49975138Y-41964899D01*
X49936488Y-41769701D01*
X49841205Y-41538528D01*
X49702835Y-41330264D01*
X49526648Y-41152842D01*
X49485000Y-41124750D01*
X49485000Y-27135000D01*
X49478009Y-27063701D01*
X49471774Y-26992437D01*
X49470638Y-26988527D01*
X49470240Y-26984468D01*
X49449535Y-26915890D01*
X49429576Y-26847190D01*
X49427702Y-26843574D01*
X49426523Y-26839670D01*
X49392910Y-26776454D01*
X49359970Y-26712905D01*
X49357426Y-26709719D01*
X49355514Y-26706122D01*
X49310260Y-26650635D01*
X49265605Y-26594697D01*
X49260012Y-26589025D01*
X49259917Y-26588908D01*
X49259809Y-26588819D01*
X49258008Y-26586992D01*
X48372136Y-25701120D01*
X48512420Y-25735574D01*
X48784577Y-25747689D01*
X49053869Y-25706476D01*
X49309946Y-25613518D01*
X49418950Y-25555254D01*
X49484754Y-25317187D01*
X48710000Y-24542434D01*
X48695858Y-24556576D01*
X48513424Y-24374142D01*
X48527566Y-24360000D01*
X47752813Y-23585246D01*
X47514746Y-23651050D01*
X47399403Y-23897855D01*
X47334426Y-24162420D01*
X47325000Y-24374170D01*
X47325000Y-23402813D01*
X47935246Y-23402813D01*
X48710000Y-24177566D01*
X49484754Y-23402813D01*
X49418950Y-23164746D01*
X49172145Y-23049403D01*
X48907580Y-22984426D01*
X48635423Y-22972311D01*
X48366131Y-23013524D01*
X48110054Y-23106482D01*
X48001050Y-23164746D01*
X47935246Y-23402813D01*
X47325000Y-23402813D01*
X47325000Y-15950000D01*
X47318013Y-15878747D01*
X47311775Y-15807437D01*
X47310637Y-15803522D01*
X47310240Y-15799468D01*
X47289562Y-15730977D01*
X47269577Y-15662190D01*
X47267700Y-15658570D01*
X47266523Y-15654670D01*
X47232929Y-15591489D01*
X47199970Y-15527905D01*
X47197426Y-15524719D01*
X47195514Y-15521122D01*
X47150265Y-15465641D01*
X47105606Y-15409698D01*
X47100012Y-15404025D01*
X47099917Y-15403908D01*
X47099809Y-15403819D01*
X47098008Y-15401992D01*
X44821016Y-13125000D01*
X46203984Y-13125000D01*
X50475000Y-17396016D01*
G36*
X16076992Y-14073008D02*
X16132342Y-14118473D01*
X16187151Y-14164463D01*
X16190721Y-14166426D01*
X16193871Y-14169013D01*
X16256950Y-14202835D01*
X16319695Y-14237330D01*
X16323582Y-14238563D01*
X16327172Y-14240488D01*
X16395630Y-14261418D01*
X16463868Y-14283064D01*
X16467917Y-14283518D01*
X16471815Y-14284710D01*
X16543055Y-14291946D01*
X16614179Y-14299924D01*
X16622147Y-14299980D01*
X16622295Y-14299995D01*
X16622433Y-14299982D01*
X16625000Y-14300000D01*
X19691255Y-14300000D01*
X19799732Y-14375393D01*
X19973958Y-14451511D01*
X20159652Y-14492338D01*
X20349739Y-14496320D01*
X20536979Y-14463304D01*
X20714241Y-14394549D01*
X20863226Y-14300000D01*
X23875000Y-14300000D01*
X23875000Y-27375000D01*
X20875000Y-27375000D01*
X20875000Y-18500000D01*
X20872598Y-18475614D01*
X20865485Y-18452165D01*
X20853934Y-18430554D01*
X20838388Y-18411612D01*
X20819446Y-18396066D01*
X20797835Y-18384515D01*
X20774386Y-18377402D01*
X20750000Y-18375000D01*
X13125000Y-18375000D01*
X13125000Y-11121016D01*
X16076992Y-14073008D01*
X16076992Y-14073008D01*
G37*
X16076992Y-14073008D02*
X16132342Y-14118473D01*
X16187151Y-14164463D01*
X16190721Y-14166426D01*
X16193871Y-14169013D01*
X16256950Y-14202835D01*
X16319695Y-14237330D01*
X16323582Y-14238563D01*
X16327172Y-14240488D01*
X16395630Y-14261418D01*
X16463868Y-14283064D01*
X16467917Y-14283518D01*
X16471815Y-14284710D01*
X16543055Y-14291946D01*
X16614179Y-14299924D01*
X16622147Y-14299980D01*
X16622295Y-14299995D01*
X16622433Y-14299982D01*
X16625000Y-14300000D01*
X19691255Y-14300000D01*
X19799732Y-14375393D01*
X19973958Y-14451511D01*
X20159652Y-14492338D01*
X20349739Y-14496320D01*
X20536979Y-14463304D01*
X20714241Y-14394549D01*
X20863226Y-14300000D01*
X23875000Y-14300000D01*
X23875000Y-27375000D01*
X20875000Y-27375000D01*
X20875000Y-18500000D01*
X20872598Y-18475614D01*
X20865485Y-18452165D01*
X20853934Y-18430554D01*
X20838388Y-18411612D01*
X20819446Y-18396066D01*
X20797835Y-18384515D01*
X20774386Y-18377402D01*
X20750000Y-18375000D01*
X13125000Y-18375000D01*
X13125000Y-11121016D01*
X16076992Y-14073008D01*
G36*
X62470483Y-623889D02*
X62923046Y-760526D01*
X63340447Y-982461D01*
X63706795Y-1281248D01*
X64008132Y-1645500D01*
X64232975Y-2061340D01*
X64372769Y-2512942D01*
X64425000Y-3009883D01*
X64425000Y-15240309D01*
X64380606Y-15184698D01*
X64375012Y-15179025D01*
X64374917Y-15178908D01*
X64374809Y-15178819D01*
X64373008Y-15176992D01*
X63589415Y-14393399D01*
X63596530Y-14362084D01*
X63600555Y-14073803D01*
X63551531Y-13826216D01*
X63455352Y-13592867D01*
X63315679Y-13382643D01*
X63137834Y-13203551D01*
X62928590Y-13062415D01*
X62695918Y-12964608D01*
X62466561Y-12917528D01*
X62534274Y-12905588D01*
X62769587Y-12814316D01*
X62982690Y-12679077D01*
X63165466Y-12505021D01*
X63310954Y-12298779D01*
X63413612Y-12068206D01*
X63469530Y-11822084D01*
X63473555Y-11533803D01*
X63424531Y-11286216D01*
X63328352Y-11052867D01*
X63188679Y-10842643D01*
X63025000Y-10677816D01*
X63025000Y-10152525D01*
X63046190Y-10139077D01*
X63228966Y-9965021D01*
X63374454Y-9758779D01*
X63477112Y-9528206D01*
X63533030Y-9282084D01*
X63537055Y-8993803D01*
X63488031Y-8746216D01*
X63391852Y-8512867D01*
X63252179Y-8302643D01*
X63074334Y-8123551D01*
X62865090Y-7982415D01*
X62632418Y-7884608D01*
X62385179Y-7833857D01*
X62132792Y-7832095D01*
X61884868Y-7879389D01*
X61650853Y-7973938D01*
X61439659Y-8112139D01*
X61259331Y-8288730D01*
X61116737Y-8496983D01*
X61017308Y-8728967D01*
X60964832Y-8975845D01*
X60961309Y-9228214D01*
X61006870Y-9476462D01*
X61099783Y-9711131D01*
X61236506Y-9923285D01*
X61411834Y-10104842D01*
X61475000Y-10148743D01*
X61475000Y-10587459D01*
X61376159Y-10652139D01*
X61195831Y-10828730D01*
X61053237Y-11036983D01*
X60953808Y-11268967D01*
X60901332Y-11515845D01*
X60897809Y-11768214D01*
X60943370Y-12016462D01*
X61036283Y-12251131D01*
X61173006Y-12463285D01*
X61348334Y-12644842D01*
X61555587Y-12788886D01*
X61786871Y-12889932D01*
X62031046Y-12943617D01*
X61948368Y-12959389D01*
X61714353Y-13053938D01*
X61503159Y-13192139D01*
X61322831Y-13368730D01*
X61180237Y-13576983D01*
X61080808Y-13808967D01*
X61028332Y-14055845D01*
X61024809Y-14308214D01*
X61070370Y-14556462D01*
X61163283Y-14791131D01*
X61300006Y-15003285D01*
X61475334Y-15184842D01*
X61682587Y-15328886D01*
X61820189Y-15389003D01*
X61582362Y-15475120D01*
X61470431Y-15534949D01*
X61403173Y-15774240D01*
X62186500Y-16557566D01*
X62200642Y-16543424D01*
X62383076Y-16725858D01*
X62368934Y-16740000D01*
X62383076Y-16754142D01*
X62200642Y-16936576D01*
X62186500Y-16922434D01*
X61403173Y-17705760D01*
X61470431Y-17945051D01*
X61719284Y-18061595D01*
X61827436Y-18088249D01*
X61714353Y-18133938D01*
X61503159Y-18272139D01*
X61322831Y-18448730D01*
X61180237Y-18656983D01*
X61080808Y-18888967D01*
X61028332Y-19135845D01*
X61024809Y-19388214D01*
X61070370Y-19636462D01*
X61163283Y-19871131D01*
X61300006Y-20083285D01*
X61475334Y-20264842D01*
X61682587Y-20408886D01*
X61913871Y-20509932D01*
X62007237Y-20530460D01*
X61488000Y-20530460D01*
X61385082Y-20540597D01*
X61286119Y-20570617D01*
X61194914Y-20619367D01*
X61114973Y-20684973D01*
X61049367Y-20764914D01*
X61000617Y-20856119D01*
X60970597Y-20955082D01*
X60960460Y-21058000D01*
X60960460Y-22013525D01*
X59388984Y-23585000D01*
X54805913Y-23585000D01*
X54782835Y-23550264D01*
X54606648Y-23372842D01*
X54565000Y-23344750D01*
X54565000Y-16814102D01*
X60786710Y-16814102D01*
X60828063Y-17085764D01*
X60921620Y-17344138D01*
X60981449Y-17456069D01*
X61220740Y-17523327D01*
X62004066Y-16740000D01*
X61220740Y-15956673D01*
X60981449Y-16023931D01*
X60864905Y-16272784D01*
X60799150Y-16539593D01*
X60786710Y-16814102D01*
X54565000Y-16814102D01*
X54565000Y-13840000D01*
X54558013Y-13768743D01*
X54551775Y-13697438D01*
X54550638Y-13693523D01*
X54550240Y-13689468D01*
X54529558Y-13620965D01*
X54509577Y-13552190D01*
X54507700Y-13548570D01*
X54506523Y-13544670D01*
X54472918Y-13481469D01*
X54439970Y-13417906D01*
X54437428Y-13414722D01*
X54435514Y-13411122D01*
X54390247Y-13355619D01*
X54345606Y-13299698D01*
X54340015Y-13294029D01*
X54339917Y-13293908D01*
X54339805Y-13293816D01*
X54338008Y-13291993D01*
X51123008Y-10076992D01*
X51067658Y-10031527D01*
X51012849Y-9985537D01*
X51009279Y-9983574D01*
X51006129Y-9980987D01*
X50943050Y-9947165D01*
X50880305Y-9912670D01*
X50876418Y-9911437D01*
X50872828Y-9909512D01*
X50804370Y-9888582D01*
X50736132Y-9866936D01*
X50732083Y-9866482D01*
X50728185Y-9865290D01*
X50656945Y-9858054D01*
X50585821Y-9850076D01*
X50577853Y-9850020D01*
X50577705Y-9850005D01*
X50577567Y-9850018D01*
X50575000Y-9850000D01*
X42834839Y-9850000D01*
X42713349Y-9768054D01*
X42538076Y-9694376D01*
X42351831Y-9656146D01*
X42161707Y-9654818D01*
X41974945Y-9690445D01*
X41798661Y-9761668D01*
X41663676Y-9850000D01*
X24084839Y-9850000D01*
X23963349Y-9768054D01*
X23788076Y-9694376D01*
X23601831Y-9656146D01*
X23411707Y-9654818D01*
X23224945Y-9690445D01*
X23048661Y-9761668D01*
X22913676Y-9850000D01*
X17421015Y-9850000D01*
X14225000Y-6653984D01*
X14225000Y-6465976D01*
X14331563Y-6398349D01*
X14533937Y-6205630D01*
X14695025Y-5977273D01*
X14717670Y-5926411D01*
X14867833Y-6159418D01*
X15061960Y-6360443D01*
X15291436Y-6519933D01*
X15547520Y-6631813D01*
X15820458Y-6691822D01*
X16099854Y-6697675D01*
X16375065Y-6649148D01*
X16635609Y-6548089D01*
X16871563Y-6398349D01*
X16938830Y-6334291D01*
X17648142Y-6334291D01*
X17732109Y-6587671D01*
X18004505Y-6718013D01*
X18297096Y-6792709D01*
X18598637Y-6808889D01*
X18897541Y-6765929D01*
X19182319Y-6665482D01*
X19327891Y-6587671D01*
X19411858Y-6334291D01*
X18530000Y-5452434D01*
X17648142Y-6334291D01*
X16938830Y-6334291D01*
X17073937Y-6205630D01*
X17194556Y-6034641D01*
X17212329Y-6067891D01*
X17465709Y-6151858D01*
X18347566Y-5270000D01*
X18333424Y-5255858D01*
X18515858Y-5073424D01*
X18530000Y-5087566D01*
X18544142Y-5073424D01*
X18726576Y-5255858D01*
X18712434Y-5270000D01*
X19594291Y-6151858D01*
X19847671Y-6067891D01*
X19865217Y-6031223D01*
X19947833Y-6159418D01*
X20141960Y-6360443D01*
X20371436Y-6519933D01*
X20627520Y-6631813D01*
X20900458Y-6691822D01*
X21179854Y-6697675D01*
X21455065Y-6649148D01*
X21715609Y-6548089D01*
X21951563Y-6398349D01*
X22153937Y-6205630D01*
X22315025Y-5977273D01*
X22337670Y-5926411D01*
X22487833Y-6159418D01*
X22681960Y-6360443D01*
X22911436Y-6519933D01*
X23167520Y-6631813D01*
X23440458Y-6691822D01*
X23719854Y-6697675D01*
X23995065Y-6649148D01*
X24255609Y-6548089D01*
X24491563Y-6398349D01*
X24693937Y-6205630D01*
X24855025Y-5977273D01*
X24877670Y-5926411D01*
X25027833Y-6159418D01*
X25221960Y-6360443D01*
X25451436Y-6519933D01*
X25707520Y-6631813D01*
X25980458Y-6691822D01*
X26259854Y-6697675D01*
X26535065Y-6649148D01*
X26795609Y-6548089D01*
X27031563Y-6398349D01*
X27233937Y-6205630D01*
X27395025Y-5977273D01*
X27417670Y-5926411D01*
X27567833Y-6159418D01*
X27761960Y-6360443D01*
X27991436Y-6519933D01*
X28247520Y-6631813D01*
X28520458Y-6691822D01*
X28799854Y-6697675D01*
X29075065Y-6649148D01*
X29335609Y-6548089D01*
X29571563Y-6398349D01*
X29773937Y-6205630D01*
X29935025Y-5977273D01*
X29957670Y-5926411D01*
X30107833Y-6159418D01*
X30301960Y-6360443D01*
X30531436Y-6519933D01*
X30787520Y-6631813D01*
X31060458Y-6691822D01*
X31339854Y-6697675D01*
X31615065Y-6649148D01*
X31875609Y-6548089D01*
X32111563Y-6398349D01*
X32313937Y-6205630D01*
X32475025Y-5977273D01*
X32497670Y-5926411D01*
X32647833Y-6159418D01*
X32841960Y-6360443D01*
X33071436Y-6519933D01*
X33327520Y-6631813D01*
X33600458Y-6691822D01*
X33879854Y-6697675D01*
X34155065Y-6649148D01*
X34415609Y-6548089D01*
X34651563Y-6398349D01*
X34853937Y-6205630D01*
X35015025Y-5977273D01*
X35037670Y-5926411D01*
X35187833Y-6159418D01*
X35381960Y-6360443D01*
X35611436Y-6519933D01*
X35867520Y-6631813D01*
X36140458Y-6691822D01*
X36419854Y-6697675D01*
X36695065Y-6649148D01*
X36955609Y-6548089D01*
X37191563Y-6398349D01*
X37393937Y-6205630D01*
X37555025Y-5977273D01*
X37577670Y-5926411D01*
X37727833Y-6159418D01*
X37921960Y-6360443D01*
X38151436Y-6519933D01*
X38407520Y-6631813D01*
X38680458Y-6691822D01*
X38959854Y-6697675D01*
X39235065Y-6649148D01*
X39495609Y-6548089D01*
X39731563Y-6398349D01*
X39933937Y-6205630D01*
X40095025Y-5977273D01*
X40117670Y-5926411D01*
X40267833Y-6159418D01*
X40461960Y-6360443D01*
X40691436Y-6519933D01*
X40947520Y-6631813D01*
X41220458Y-6691822D01*
X41499854Y-6697675D01*
X41775065Y-6649148D01*
X42035609Y-6548089D01*
X42271563Y-6398349D01*
X42473937Y-6205630D01*
X42635025Y-5977273D01*
X42657670Y-5926411D01*
X42807833Y-6159418D01*
X43001960Y-6360443D01*
X43231436Y-6519933D01*
X43487520Y-6631813D01*
X43760458Y-6691822D01*
X44039854Y-6697675D01*
X44315065Y-6649148D01*
X44575609Y-6548089D01*
X44811563Y-6398349D01*
X45013937Y-6205630D01*
X45175025Y-5977273D01*
X45197670Y-5926411D01*
X45347833Y-6159418D01*
X45541960Y-6360443D01*
X45771436Y-6519933D01*
X46027520Y-6631813D01*
X46300458Y-6691822D01*
X46579854Y-6697675D01*
X46855065Y-6649148D01*
X47115609Y-6548089D01*
X47351563Y-6398349D01*
X47553937Y-6205630D01*
X47715025Y-5977273D01*
X47737670Y-5926411D01*
X47887833Y-6159418D01*
X48081960Y-6360443D01*
X48311436Y-6519933D01*
X48567520Y-6631813D01*
X48840458Y-6691822D01*
X49119854Y-6697675D01*
X49395065Y-6649148D01*
X49655609Y-6548089D01*
X49891563Y-6398349D01*
X50093937Y-6205630D01*
X50255025Y-5977273D01*
X50277670Y-5926411D01*
X50427833Y-6159418D01*
X50621960Y-6360443D01*
X50851436Y-6519933D01*
X51107520Y-6631813D01*
X51380458Y-6691822D01*
X51659854Y-6697675D01*
X51935065Y-6649148D01*
X52195609Y-6548089D01*
X52431563Y-6398349D01*
X52633937Y-6205630D01*
X52795025Y-5977273D01*
X52804113Y-5956860D01*
X52816449Y-5988016D01*
X52967833Y-6222918D01*
X53161960Y-6423943D01*
X53391436Y-6583433D01*
X53647520Y-6695313D01*
X53920458Y-6755322D01*
X54199854Y-6761175D01*
X54475065Y-6712648D01*
X54735609Y-6611589D01*
X54971563Y-6461849D01*
X55173937Y-6269130D01*
X55335025Y-6040773D01*
X55374391Y-5952356D01*
X55507833Y-6159418D01*
X55701960Y-6360443D01*
X55931436Y-6519933D01*
X56187520Y-6631813D01*
X56460458Y-6691822D01*
X56739854Y-6697675D01*
X57015065Y-6649148D01*
X57275609Y-6548089D01*
X57511563Y-6398349D01*
X57713937Y-6205630D01*
X57875025Y-5977273D01*
X57988691Y-5721976D01*
X58050604Y-5449464D01*
X58055061Y-5130272D01*
X58000781Y-4856137D01*
X57894288Y-4597766D01*
X57739639Y-4365000D01*
X57588010Y-4212309D01*
X58971681Y-4212309D01*
X59061070Y-4699352D01*
X59243358Y-5159757D01*
X59511600Y-5575987D01*
X59855579Y-5932188D01*
X60262194Y-6214793D01*
X60715957Y-6413037D01*
X61199583Y-6519369D01*
X61694653Y-6529739D01*
X62182308Y-6443752D01*
X62643974Y-6264684D01*
X63062067Y-5999354D01*
X63420661Y-5657870D01*
X63706097Y-5253238D01*
X63907504Y-4800870D01*
X64017210Y-4317998D01*
X64025108Y-3752411D01*
X63928927Y-3266664D01*
X63740230Y-2808849D01*
X63466202Y-2396405D01*
X63117283Y-2045041D01*
X62706762Y-1768141D01*
X62250275Y-1576251D01*
X61765211Y-1476682D01*
X61270045Y-1473225D01*
X60783638Y-1566012D01*
X60324517Y-1751509D01*
X59910170Y-2022650D01*
X59556379Y-2369108D01*
X59276620Y-2777686D01*
X59081548Y-3232822D01*
X58978595Y-3717179D01*
X58971681Y-4212309D01*
X57588010Y-4212309D01*
X57542724Y-4166706D01*
X57311044Y-4010436D01*
X57287504Y-4000541D01*
X57511563Y-3858349D01*
X57713937Y-3665630D01*
X57875025Y-3437273D01*
X57988691Y-3181976D01*
X58050604Y-2909464D01*
X58055061Y-2590272D01*
X58000781Y-2316137D01*
X57894288Y-2057766D01*
X57739639Y-1825000D01*
X57542724Y-1626706D01*
X57311044Y-1470436D01*
X57053423Y-1362142D01*
X56779674Y-1305949D01*
X56500224Y-1303998D01*
X56225717Y-1356363D01*
X55966609Y-1461050D01*
X55732769Y-1614070D01*
X55533105Y-1809596D01*
X55375221Y-2040179D01*
X55374197Y-2042568D01*
X55354288Y-1994266D01*
X55199639Y-1761500D01*
X55002724Y-1563206D01*
X54771044Y-1406936D01*
X54513423Y-1298642D01*
X54239674Y-1242449D01*
X53960224Y-1240498D01*
X53685717Y-1292863D01*
X53426609Y-1397550D01*
X53192769Y-1550570D01*
X52993105Y-1746096D01*
X52835221Y-1976679D01*
X52805887Y-2045121D01*
X52659639Y-1825000D01*
X52462724Y-1626706D01*
X52231044Y-1470436D01*
X51973423Y-1362142D01*
X51699674Y-1305949D01*
X51420224Y-1303998D01*
X51145717Y-1356363D01*
X50886609Y-1461050D01*
X50652769Y-1614070D01*
X50453105Y-1809596D01*
X50295221Y-2040179D01*
X50280855Y-2073698D01*
X50274288Y-2057766D01*
X50119639Y-1825000D01*
X49922724Y-1626706D01*
X49691044Y-1470436D01*
X49433423Y-1362142D01*
X49159674Y-1305949D01*
X48880224Y-1303998D01*
X48605717Y-1356363D01*
X48346609Y-1461050D01*
X48112769Y-1614070D01*
X47913105Y-1809596D01*
X47755221Y-2040179D01*
X47740855Y-2073698D01*
X47734288Y-2057766D01*
X47579639Y-1825000D01*
X47382724Y-1626706D01*
X47151044Y-1470436D01*
X46893423Y-1362142D01*
X46619674Y-1305949D01*
X46340224Y-1303998D01*
X46065717Y-1356363D01*
X45806609Y-1461050D01*
X45572769Y-1614070D01*
X45373105Y-1809596D01*
X45215221Y-2040179D01*
X45200855Y-2073698D01*
X45194288Y-2057766D01*
X45039639Y-1825000D01*
X44842724Y-1626706D01*
X44611044Y-1470436D01*
X44353423Y-1362142D01*
X44079674Y-1305949D01*
X43800224Y-1303998D01*
X43525717Y-1356363D01*
X43266609Y-1461050D01*
X43032769Y-1614070D01*
X42833105Y-1809596D01*
X42675221Y-2040179D01*
X42660855Y-2073698D01*
X42654288Y-2057766D01*
X42499639Y-1825000D01*
X42302724Y-1626706D01*
X42071044Y-1470436D01*
X41813423Y-1362142D01*
X41539674Y-1305949D01*
X41260224Y-1303998D01*
X40985717Y-1356363D01*
X40726609Y-1461050D01*
X40492769Y-1614070D01*
X40293105Y-1809596D01*
X40135221Y-2040179D01*
X40120855Y-2073698D01*
X40114288Y-2057766D01*
X39959639Y-1825000D01*
X39762724Y-1626706D01*
X39531044Y-1470436D01*
X39273423Y-1362142D01*
X38999674Y-1305949D01*
X38720224Y-1303998D01*
X38445717Y-1356363D01*
X38186609Y-1461050D01*
X37952769Y-1614070D01*
X37753105Y-1809596D01*
X37595221Y-2040179D01*
X37580855Y-2073698D01*
X37574288Y-2057766D01*
X37419639Y-1825000D01*
X37222724Y-1626706D01*
X36991044Y-1470436D01*
X36733423Y-1362142D01*
X36459674Y-1305949D01*
X36180224Y-1303998D01*
X35905717Y-1356363D01*
X35646609Y-1461050D01*
X35412769Y-1614070D01*
X35213105Y-1809596D01*
X35055221Y-2040179D01*
X35040855Y-2073698D01*
X35034288Y-2057766D01*
X34879639Y-1825000D01*
X34682724Y-1626706D01*
X34451044Y-1470436D01*
X34193423Y-1362142D01*
X33919674Y-1305949D01*
X33640224Y-1303998D01*
X33365717Y-1356363D01*
X33106609Y-1461050D01*
X32872769Y-1614070D01*
X32673105Y-1809596D01*
X32515221Y-2040179D01*
X32500855Y-2073698D01*
X32494288Y-2057766D01*
X32339639Y-1825000D01*
X32142724Y-1626706D01*
X31911044Y-1470436D01*
X31653423Y-1362142D01*
X31379674Y-1305949D01*
X31100224Y-1303998D01*
X30825717Y-1356363D01*
X30566609Y-1461050D01*
X30332769Y-1614070D01*
X30133105Y-1809596D01*
X29975221Y-2040179D01*
X29960855Y-2073698D01*
X29954288Y-2057766D01*
X29799639Y-1825000D01*
X29602724Y-1626706D01*
X29371044Y-1470436D01*
X29113423Y-1362142D01*
X28839674Y-1305949D01*
X28560224Y-1303998D01*
X28285717Y-1356363D01*
X28026609Y-1461050D01*
X27792769Y-1614070D01*
X27593105Y-1809596D01*
X27435221Y-2040179D01*
X27420855Y-2073698D01*
X27414288Y-2057766D01*
X27259639Y-1825000D01*
X27062724Y-1626706D01*
X26831044Y-1470436D01*
X26573423Y-1362142D01*
X26299674Y-1305949D01*
X26020224Y-1303998D01*
X25745717Y-1356363D01*
X25486609Y-1461050D01*
X25252769Y-1614070D01*
X25053105Y-1809596D01*
X24895221Y-2040179D01*
X24880855Y-2073698D01*
X24874288Y-2057766D01*
X24719639Y-1825000D01*
X24522724Y-1626706D01*
X24291044Y-1470436D01*
X24033423Y-1362142D01*
X23759674Y-1305949D01*
X23480224Y-1303998D01*
X23205717Y-1356363D01*
X22946609Y-1461050D01*
X22712769Y-1614070D01*
X22513105Y-1809596D01*
X22355221Y-2040179D01*
X22340855Y-2073698D01*
X22334288Y-2057766D01*
X22179639Y-1825000D01*
X21982724Y-1626706D01*
X21751044Y-1470436D01*
X21493423Y-1362142D01*
X21219674Y-1305949D01*
X20940224Y-1303998D01*
X20665717Y-1356363D01*
X20406609Y-1461050D01*
X20172769Y-1614070D01*
X19973105Y-1809596D01*
X19815221Y-2040179D01*
X19800855Y-2073698D01*
X19794288Y-2057766D01*
X19639639Y-1825000D01*
X19442724Y-1626706D01*
X19211044Y-1470436D01*
X18953423Y-1362142D01*
X18679674Y-1305949D01*
X18400224Y-1303998D01*
X18125717Y-1356363D01*
X17866609Y-1461050D01*
X17632769Y-1614070D01*
X17433105Y-1809596D01*
X17275221Y-2040179D01*
X17260855Y-2073698D01*
X17254288Y-2057766D01*
X17099639Y-1825000D01*
X16902724Y-1626706D01*
X16671044Y-1470436D01*
X16413423Y-1362142D01*
X16139674Y-1305949D01*
X15860224Y-1303998D01*
X15585717Y-1356363D01*
X15326609Y-1461050D01*
X15092769Y-1614070D01*
X14893105Y-1809596D01*
X14735221Y-2040179D01*
X14720855Y-2073698D01*
X14714288Y-2057766D01*
X14559639Y-1825000D01*
X14362724Y-1626706D01*
X14131044Y-1470436D01*
X13873423Y-1362142D01*
X13599674Y-1305949D01*
X13320224Y-1303998D01*
X13045717Y-1356363D01*
X12786609Y-1461050D01*
X12552769Y-1614070D01*
X12353105Y-1809596D01*
X12195221Y-2040179D01*
X12194197Y-2042568D01*
X12174288Y-1994266D01*
X12019639Y-1761500D01*
X11822724Y-1563206D01*
X11591044Y-1406936D01*
X11333423Y-1298642D01*
X11059674Y-1242449D01*
X10780224Y-1240498D01*
X10505717Y-1292863D01*
X10246609Y-1397550D01*
X10012769Y-1550570D01*
X9813105Y-1746096D01*
X9655221Y-1976679D01*
X9625887Y-2045121D01*
X9479639Y-1825000D01*
X9282724Y-1626706D01*
X9051044Y-1470436D01*
X8793423Y-1362142D01*
X8519674Y-1305949D01*
X8240224Y-1303998D01*
X7965717Y-1356363D01*
X7706609Y-1461050D01*
X7472769Y-1614070D01*
X7273105Y-1809596D01*
X7115221Y-2040179D01*
X7005131Y-2297038D01*
X6947029Y-2570388D01*
X6943127Y-2849818D01*
X6993574Y-3124684D01*
X7096449Y-3384516D01*
X7247833Y-3619418D01*
X7441960Y-3820443D01*
X7671436Y-3979933D01*
X7713447Y-3998287D01*
X7706609Y-4001050D01*
X7472769Y-4154070D01*
X7273105Y-4349596D01*
X7115221Y-4580179D01*
X7005131Y-4837038D01*
X6947029Y-5110388D01*
X6943127Y-5389818D01*
X6993574Y-5664684D01*
X7096449Y-5924516D01*
X7247833Y-6159418D01*
X7441960Y-6360443D01*
X7671436Y-6519933D01*
X7927520Y-6631813D01*
X8200458Y-6691822D01*
X8479854Y-6697675D01*
X8668411Y-6664427D01*
X10378984Y-8375000D01*
X7500000Y-8375000D01*
X7475614Y-8377402D01*
X7452165Y-8384515D01*
X7430554Y-8396066D01*
X7411612Y-8411612D01*
X7402391Y-8421913D01*
X6402391Y-9671913D01*
X6389033Y-9692456D01*
X6379939Y-9715210D01*
X6375000Y-9750000D01*
X6375000Y-13875000D01*
X1652304Y-13875000D01*
X1643239Y-13871865D01*
X1598162Y-13855612D01*
X1594741Y-13855093D01*
X1591468Y-13853961D01*
X1543981Y-13847391D01*
X1496614Y-13840204D01*
X1493157Y-13840359D01*
X1489728Y-13839885D01*
X1441933Y-13842661D01*
X1394008Y-13844814D01*
X1387216Y-13845839D01*
X1387191Y-13845840D01*
X1387170Y-13845845D01*
X1386742Y-13845910D01*
X1338482Y-13853530D01*
X1298242Y-13863991D01*
X1257628Y-13872947D01*
X1252937Y-13875000D01*
X575000Y-13875000D01*
X575000Y-4212309D01*
X971681Y-4212309D01*
X1061070Y-4699352D01*
X1243358Y-5159757D01*
X1511600Y-5575987D01*
X1855579Y-5932188D01*
X2262194Y-6214793D01*
X2715957Y-6413037D01*
X3199583Y-6519369D01*
X3694653Y-6529739D01*
X4182308Y-6443752D01*
X4643974Y-6264684D01*
X5062067Y-5999354D01*
X5420661Y-5657870D01*
X5706097Y-5253238D01*
X5907504Y-4800870D01*
X6017210Y-4317998D01*
X6025108Y-3752411D01*
X5928927Y-3266664D01*
X5740230Y-2808849D01*
X5466202Y-2396405D01*
X5117283Y-2045041D01*
X4706762Y-1768141D01*
X4250275Y-1576251D01*
X3765211Y-1476682D01*
X3270045Y-1473225D01*
X2783638Y-1566012D01*
X2324517Y-1751509D01*
X1910170Y-2022650D01*
X1556379Y-2369108D01*
X1276620Y-2777686D01*
X1081548Y-3232822D01*
X978595Y-3717179D01*
X971681Y-4212309D01*
X575000Y-4212309D01*
X575000Y-3028126D01*
X623889Y-2529517D01*
X760526Y-2076954D01*
X982461Y-1659553D01*
X1281248Y-1293205D01*
X1645500Y-991868D01*
X2061340Y-767025D01*
X2512942Y-627231D01*
X3009883Y-575000D01*
X61971874Y-575000D01*
X62470483Y-623889D01*
X62470483Y-623889D01*
G37*
X62470483Y-623889D02*
X62923046Y-760526D01*
X63340447Y-982461D01*
X63706795Y-1281248D01*
X64008132Y-1645500D01*
X64232975Y-2061340D01*
X64372769Y-2512942D01*
X64425000Y-3009883D01*
X64425000Y-15240309D01*
X64380606Y-15184698D01*
X64375012Y-15179025D01*
X64374917Y-15178908D01*
X64374809Y-15178819D01*
X64373008Y-15176992D01*
X63589415Y-14393399D01*
X63596530Y-14362084D01*
X63600555Y-14073803D01*
X63551531Y-13826216D01*
X63455352Y-13592867D01*
X63315679Y-13382643D01*
X63137834Y-13203551D01*
X62928590Y-13062415D01*
X62695918Y-12964608D01*
X62466561Y-12917528D01*
X62534274Y-12905588D01*
X62769587Y-12814316D01*
X62982690Y-12679077D01*
X63165466Y-12505021D01*
X63310954Y-12298779D01*
X63413612Y-12068206D01*
X63469530Y-11822084D01*
X63473555Y-11533803D01*
X63424531Y-11286216D01*
X63328352Y-11052867D01*
X63188679Y-10842643D01*
X63025000Y-10677816D01*
X63025000Y-10152525D01*
X63046190Y-10139077D01*
X63228966Y-9965021D01*
X63374454Y-9758779D01*
X63477112Y-9528206D01*
X63533030Y-9282084D01*
X63537055Y-8993803D01*
X63488031Y-8746216D01*
X63391852Y-8512867D01*
X63252179Y-8302643D01*
X63074334Y-8123551D01*
X62865090Y-7982415D01*
X62632418Y-7884608D01*
X62385179Y-7833857D01*
X62132792Y-7832095D01*
X61884868Y-7879389D01*
X61650853Y-7973938D01*
X61439659Y-8112139D01*
X61259331Y-8288730D01*
X61116737Y-8496983D01*
X61017308Y-8728967D01*
X60964832Y-8975845D01*
X60961309Y-9228214D01*
X61006870Y-9476462D01*
X61099783Y-9711131D01*
X61236506Y-9923285D01*
X61411834Y-10104842D01*
X61475000Y-10148743D01*
X61475000Y-10587459D01*
X61376159Y-10652139D01*
X61195831Y-10828730D01*
X61053237Y-11036983D01*
X60953808Y-11268967D01*
X60901332Y-11515845D01*
X60897809Y-11768214D01*
X60943370Y-12016462D01*
X61036283Y-12251131D01*
X61173006Y-12463285D01*
X61348334Y-12644842D01*
X61555587Y-12788886D01*
X61786871Y-12889932D01*
X62031046Y-12943617D01*
X61948368Y-12959389D01*
X61714353Y-13053938D01*
X61503159Y-13192139D01*
X61322831Y-13368730D01*
X61180237Y-13576983D01*
X61080808Y-13808967D01*
X61028332Y-14055845D01*
X61024809Y-14308214D01*
X61070370Y-14556462D01*
X61163283Y-14791131D01*
X61300006Y-15003285D01*
X61475334Y-15184842D01*
X61682587Y-15328886D01*
X61820189Y-15389003D01*
X61582362Y-15475120D01*
X61470431Y-15534949D01*
X61403173Y-15774240D01*
X62186500Y-16557566D01*
X62200642Y-16543424D01*
X62383076Y-16725858D01*
X62368934Y-16740000D01*
X62383076Y-16754142D01*
X62200642Y-16936576D01*
X62186500Y-16922434D01*
X61403173Y-17705760D01*
X61470431Y-17945051D01*
X61719284Y-18061595D01*
X61827436Y-18088249D01*
X61714353Y-18133938D01*
X61503159Y-18272139D01*
X61322831Y-18448730D01*
X61180237Y-18656983D01*
X61080808Y-18888967D01*
X61028332Y-19135845D01*
X61024809Y-19388214D01*
X61070370Y-19636462D01*
X61163283Y-19871131D01*
X61300006Y-20083285D01*
X61475334Y-20264842D01*
X61682587Y-20408886D01*
X61913871Y-20509932D01*
X62007237Y-20530460D01*
X61488000Y-20530460D01*
X61385082Y-20540597D01*
X61286119Y-20570617D01*
X61194914Y-20619367D01*
X61114973Y-20684973D01*
X61049367Y-20764914D01*
X61000617Y-20856119D01*
X60970597Y-20955082D01*
X60960460Y-21058000D01*
X60960460Y-22013525D01*
X59388984Y-23585000D01*
X54805913Y-23585000D01*
X54782835Y-23550264D01*
X54606648Y-23372842D01*
X54565000Y-23344750D01*
X54565000Y-16814102D01*
X60786710Y-16814102D01*
X60828063Y-17085764D01*
X60921620Y-17344138D01*
X60981449Y-17456069D01*
X61220740Y-17523327D01*
X62004066Y-16740000D01*
X61220740Y-15956673D01*
X60981449Y-16023931D01*
X60864905Y-16272784D01*
X60799150Y-16539593D01*
X60786710Y-16814102D01*
X54565000Y-16814102D01*
X54565000Y-13840000D01*
X54558013Y-13768743D01*
X54551775Y-13697438D01*
X54550638Y-13693523D01*
X54550240Y-13689468D01*
X54529558Y-13620965D01*
X54509577Y-13552190D01*
X54507700Y-13548570D01*
X54506523Y-13544670D01*
X54472918Y-13481469D01*
X54439970Y-13417906D01*
X54437428Y-13414722D01*
X54435514Y-13411122D01*
X54390247Y-13355619D01*
X54345606Y-13299698D01*
X54340015Y-13294029D01*
X54339917Y-13293908D01*
X54339805Y-13293816D01*
X54338008Y-13291993D01*
X51123008Y-10076992D01*
X51067658Y-10031527D01*
X51012849Y-9985537D01*
X51009279Y-9983574D01*
X51006129Y-9980987D01*
X50943050Y-9947165D01*
X50880305Y-9912670D01*
X50876418Y-9911437D01*
X50872828Y-9909512D01*
X50804370Y-9888582D01*
X50736132Y-9866936D01*
X50732083Y-9866482D01*
X50728185Y-9865290D01*
X50656945Y-9858054D01*
X50585821Y-9850076D01*
X50577853Y-9850020D01*
X50577705Y-9850005D01*
X50577567Y-9850018D01*
X50575000Y-9850000D01*
X42834839Y-9850000D01*
X42713349Y-9768054D01*
X42538076Y-9694376D01*
X42351831Y-9656146D01*
X42161707Y-9654818D01*
X41974945Y-9690445D01*
X41798661Y-9761668D01*
X41663676Y-9850000D01*
X24084839Y-9850000D01*
X23963349Y-9768054D01*
X23788076Y-9694376D01*
X23601831Y-9656146D01*
X23411707Y-9654818D01*
X23224945Y-9690445D01*
X23048661Y-9761668D01*
X22913676Y-9850000D01*
X17421015Y-9850000D01*
X14225000Y-6653984D01*
X14225000Y-6465976D01*
X14331563Y-6398349D01*
X14533937Y-6205630D01*
X14695025Y-5977273D01*
X14717670Y-5926411D01*
X14867833Y-6159418D01*
X15061960Y-6360443D01*
X15291436Y-6519933D01*
X15547520Y-6631813D01*
X15820458Y-6691822D01*
X16099854Y-6697675D01*
X16375065Y-6649148D01*
X16635609Y-6548089D01*
X16871563Y-6398349D01*
X16938830Y-6334291D01*
X17648142Y-6334291D01*
X17732109Y-6587671D01*
X18004505Y-6718013D01*
X18297096Y-6792709D01*
X18598637Y-6808889D01*
X18897541Y-6765929D01*
X19182319Y-6665482D01*
X19327891Y-6587671D01*
X19411858Y-6334291D01*
X18530000Y-5452434D01*
X17648142Y-6334291D01*
X16938830Y-6334291D01*
X17073937Y-6205630D01*
X17194556Y-6034641D01*
X17212329Y-6067891D01*
X17465709Y-6151858D01*
X18347566Y-5270000D01*
X18333424Y-5255858D01*
X18515858Y-5073424D01*
X18530000Y-5087566D01*
X18544142Y-5073424D01*
X18726576Y-5255858D01*
X18712434Y-5270000D01*
X19594291Y-6151858D01*
X19847671Y-6067891D01*
X19865217Y-6031223D01*
X19947833Y-6159418D01*
X20141960Y-6360443D01*
X20371436Y-6519933D01*
X20627520Y-6631813D01*
X20900458Y-6691822D01*
X21179854Y-6697675D01*
X21455065Y-6649148D01*
X21715609Y-6548089D01*
X21951563Y-6398349D01*
X22153937Y-6205630D01*
X22315025Y-5977273D01*
X22337670Y-5926411D01*
X22487833Y-6159418D01*
X22681960Y-6360443D01*
X22911436Y-6519933D01*
X23167520Y-6631813D01*
X23440458Y-6691822D01*
X23719854Y-6697675D01*
X23995065Y-6649148D01*
X24255609Y-6548089D01*
X24491563Y-6398349D01*
X24693937Y-6205630D01*
X24855025Y-5977273D01*
X24877670Y-5926411D01*
X25027833Y-6159418D01*
X25221960Y-6360443D01*
X25451436Y-6519933D01*
X25707520Y-6631813D01*
X25980458Y-6691822D01*
X26259854Y-6697675D01*
X26535065Y-6649148D01*
X26795609Y-6548089D01*
X27031563Y-6398349D01*
X27233937Y-6205630D01*
X27395025Y-5977273D01*
X27417670Y-5926411D01*
X27567833Y-6159418D01*
X27761960Y-6360443D01*
X27991436Y-6519933D01*
X28247520Y-6631813D01*
X28520458Y-6691822D01*
X28799854Y-6697675D01*
X29075065Y-6649148D01*
X29335609Y-6548089D01*
X29571563Y-6398349D01*
X29773937Y-6205630D01*
X29935025Y-5977273D01*
X29957670Y-5926411D01*
X30107833Y-6159418D01*
X30301960Y-6360443D01*
X30531436Y-6519933D01*
X30787520Y-6631813D01*
X31060458Y-6691822D01*
X31339854Y-6697675D01*
X31615065Y-6649148D01*
X31875609Y-6548089D01*
X32111563Y-6398349D01*
X32313937Y-6205630D01*
X32475025Y-5977273D01*
X32497670Y-5926411D01*
X32647833Y-6159418D01*
X32841960Y-6360443D01*
X33071436Y-6519933D01*
X33327520Y-6631813D01*
X33600458Y-6691822D01*
X33879854Y-6697675D01*
X34155065Y-6649148D01*
X34415609Y-6548089D01*
X34651563Y-6398349D01*
X34853937Y-6205630D01*
X35015025Y-5977273D01*
X35037670Y-5926411D01*
X35187833Y-6159418D01*
X35381960Y-6360443D01*
X35611436Y-6519933D01*
X35867520Y-6631813D01*
X36140458Y-6691822D01*
X36419854Y-6697675D01*
X36695065Y-6649148D01*
X36955609Y-6548089D01*
X37191563Y-6398349D01*
X37393937Y-6205630D01*
X37555025Y-5977273D01*
X37577670Y-5926411D01*
X37727833Y-6159418D01*
X37921960Y-6360443D01*
X38151436Y-6519933D01*
X38407520Y-6631813D01*
X38680458Y-6691822D01*
X38959854Y-6697675D01*
X39235065Y-6649148D01*
X39495609Y-6548089D01*
X39731563Y-6398349D01*
X39933937Y-6205630D01*
X40095025Y-5977273D01*
X40117670Y-5926411D01*
X40267833Y-6159418D01*
X40461960Y-6360443D01*
X40691436Y-6519933D01*
X40947520Y-6631813D01*
X41220458Y-6691822D01*
X41499854Y-6697675D01*
X41775065Y-6649148D01*
X42035609Y-6548089D01*
X42271563Y-6398349D01*
X42473937Y-6205630D01*
X42635025Y-5977273D01*
X42657670Y-5926411D01*
X42807833Y-6159418D01*
X43001960Y-6360443D01*
X43231436Y-6519933D01*
X43487520Y-6631813D01*
X43760458Y-6691822D01*
X44039854Y-6697675D01*
X44315065Y-6649148D01*
X44575609Y-6548089D01*
X44811563Y-6398349D01*
X45013937Y-6205630D01*
X45175025Y-5977273D01*
X45197670Y-5926411D01*
X45347833Y-6159418D01*
X45541960Y-6360443D01*
X45771436Y-6519933D01*
X46027520Y-6631813D01*
X46300458Y-6691822D01*
X46579854Y-6697675D01*
X46855065Y-6649148D01*
X47115609Y-6548089D01*
X47351563Y-6398349D01*
X47553937Y-6205630D01*
X47715025Y-5977273D01*
X47737670Y-5926411D01*
X47887833Y-6159418D01*
X48081960Y-6360443D01*
X48311436Y-6519933D01*
X48567520Y-6631813D01*
X48840458Y-6691822D01*
X49119854Y-6697675D01*
X49395065Y-6649148D01*
X49655609Y-6548089D01*
X49891563Y-6398349D01*
X50093937Y-6205630D01*
X50255025Y-5977273D01*
X50277670Y-5926411D01*
X50427833Y-6159418D01*
X50621960Y-6360443D01*
X50851436Y-6519933D01*
X51107520Y-6631813D01*
X51380458Y-6691822D01*
X51659854Y-6697675D01*
X51935065Y-6649148D01*
X52195609Y-6548089D01*
X52431563Y-6398349D01*
X52633937Y-6205630D01*
X52795025Y-5977273D01*
X52804113Y-5956860D01*
X52816449Y-5988016D01*
X52967833Y-6222918D01*
X53161960Y-6423943D01*
X53391436Y-6583433D01*
X53647520Y-6695313D01*
X53920458Y-6755322D01*
X54199854Y-6761175D01*
X54475065Y-6712648D01*
X54735609Y-6611589D01*
X54971563Y-6461849D01*
X55173937Y-6269130D01*
X55335025Y-6040773D01*
X55374391Y-5952356D01*
X55507833Y-6159418D01*
X55701960Y-6360443D01*
X55931436Y-6519933D01*
X56187520Y-6631813D01*
X56460458Y-6691822D01*
X56739854Y-6697675D01*
X57015065Y-6649148D01*
X57275609Y-6548089D01*
X57511563Y-6398349D01*
X57713937Y-6205630D01*
X57875025Y-5977273D01*
X57988691Y-5721976D01*
X58050604Y-5449464D01*
X58055061Y-5130272D01*
X58000781Y-4856137D01*
X57894288Y-4597766D01*
X57739639Y-4365000D01*
X57588010Y-4212309D01*
X58971681Y-4212309D01*
X59061070Y-4699352D01*
X59243358Y-5159757D01*
X59511600Y-5575987D01*
X59855579Y-5932188D01*
X60262194Y-6214793D01*
X60715957Y-6413037D01*
X61199583Y-6519369D01*
X61694653Y-6529739D01*
X62182308Y-6443752D01*
X62643974Y-6264684D01*
X63062067Y-5999354D01*
X63420661Y-5657870D01*
X63706097Y-5253238D01*
X63907504Y-4800870D01*
X64017210Y-4317998D01*
X64025108Y-3752411D01*
X63928927Y-3266664D01*
X63740230Y-2808849D01*
X63466202Y-2396405D01*
X63117283Y-2045041D01*
X62706762Y-1768141D01*
X62250275Y-1576251D01*
X61765211Y-1476682D01*
X61270045Y-1473225D01*
X60783638Y-1566012D01*
X60324517Y-1751509D01*
X59910170Y-2022650D01*
X59556379Y-2369108D01*
X59276620Y-2777686D01*
X59081548Y-3232822D01*
X58978595Y-3717179D01*
X58971681Y-4212309D01*
X57588010Y-4212309D01*
X57542724Y-4166706D01*
X57311044Y-4010436D01*
X57287504Y-4000541D01*
X57511563Y-3858349D01*
X57713937Y-3665630D01*
X57875025Y-3437273D01*
X57988691Y-3181976D01*
X58050604Y-2909464D01*
X58055061Y-2590272D01*
X58000781Y-2316137D01*
X57894288Y-2057766D01*
X57739639Y-1825000D01*
X57542724Y-1626706D01*
X57311044Y-1470436D01*
X57053423Y-1362142D01*
X56779674Y-1305949D01*
X56500224Y-1303998D01*
X56225717Y-1356363D01*
X55966609Y-1461050D01*
X55732769Y-1614070D01*
X55533105Y-1809596D01*
X55375221Y-2040179D01*
X55374197Y-2042568D01*
X55354288Y-1994266D01*
X55199639Y-1761500D01*
X55002724Y-1563206D01*
X54771044Y-1406936D01*
X54513423Y-1298642D01*
X54239674Y-1242449D01*
X53960224Y-1240498D01*
X53685717Y-1292863D01*
X53426609Y-1397550D01*
X53192769Y-1550570D01*
X52993105Y-1746096D01*
X52835221Y-1976679D01*
X52805887Y-2045121D01*
X52659639Y-1825000D01*
X52462724Y-1626706D01*
X52231044Y-1470436D01*
X51973423Y-1362142D01*
X51699674Y-1305949D01*
X51420224Y-1303998D01*
X51145717Y-1356363D01*
X50886609Y-1461050D01*
X50652769Y-1614070D01*
X50453105Y-1809596D01*
X50295221Y-2040179D01*
X50280855Y-2073698D01*
X50274288Y-2057766D01*
X50119639Y-1825000D01*
X49922724Y-1626706D01*
X49691044Y-1470436D01*
X49433423Y-1362142D01*
X49159674Y-1305949D01*
X48880224Y-1303998D01*
X48605717Y-1356363D01*
X48346609Y-1461050D01*
X48112769Y-1614070D01*
X47913105Y-1809596D01*
X47755221Y-2040179D01*
X47740855Y-2073698D01*
X47734288Y-2057766D01*
X47579639Y-1825000D01*
X47382724Y-1626706D01*
X47151044Y-1470436D01*
X46893423Y-1362142D01*
X46619674Y-1305949D01*
X46340224Y-1303998D01*
X46065717Y-1356363D01*
X45806609Y-1461050D01*
X45572769Y-1614070D01*
X45373105Y-1809596D01*
X45215221Y-2040179D01*
X45200855Y-2073698D01*
X45194288Y-2057766D01*
X45039639Y-1825000D01*
X44842724Y-1626706D01*
X44611044Y-1470436D01*
X44353423Y-1362142D01*
X44079674Y-1305949D01*
X43800224Y-1303998D01*
X43525717Y-1356363D01*
X43266609Y-1461050D01*
X43032769Y-1614070D01*
X42833105Y-1809596D01*
X42675221Y-2040179D01*
X42660855Y-2073698D01*
X42654288Y-2057766D01*
X42499639Y-1825000D01*
X42302724Y-1626706D01*
X42071044Y-1470436D01*
X41813423Y-1362142D01*
X41539674Y-1305949D01*
X41260224Y-1303998D01*
X40985717Y-1356363D01*
X40726609Y-1461050D01*
X40492769Y-1614070D01*
X40293105Y-1809596D01*
X40135221Y-2040179D01*
X40120855Y-2073698D01*
X40114288Y-2057766D01*
X39959639Y-1825000D01*
X39762724Y-1626706D01*
X39531044Y-1470436D01*
X39273423Y-1362142D01*
X38999674Y-1305949D01*
X38720224Y-1303998D01*
X38445717Y-1356363D01*
X38186609Y-1461050D01*
X37952769Y-1614070D01*
X37753105Y-1809596D01*
X37595221Y-2040179D01*
X37580855Y-2073698D01*
X37574288Y-2057766D01*
X37419639Y-1825000D01*
X37222724Y-1626706D01*
X36991044Y-1470436D01*
X36733423Y-1362142D01*
X36459674Y-1305949D01*
X36180224Y-1303998D01*
X35905717Y-1356363D01*
X35646609Y-1461050D01*
X35412769Y-1614070D01*
X35213105Y-1809596D01*
X35055221Y-2040179D01*
X35040855Y-2073698D01*
X35034288Y-2057766D01*
X34879639Y-1825000D01*
X34682724Y-1626706D01*
X34451044Y-1470436D01*
X34193423Y-1362142D01*
X33919674Y-1305949D01*
X33640224Y-1303998D01*
X33365717Y-1356363D01*
X33106609Y-1461050D01*
X32872769Y-1614070D01*
X32673105Y-1809596D01*
X32515221Y-2040179D01*
X32500855Y-2073698D01*
X32494288Y-2057766D01*
X32339639Y-1825000D01*
X32142724Y-1626706D01*
X31911044Y-1470436D01*
X31653423Y-1362142D01*
X31379674Y-1305949D01*
X31100224Y-1303998D01*
X30825717Y-1356363D01*
X30566609Y-1461050D01*
X30332769Y-1614070D01*
X30133105Y-1809596D01*
X29975221Y-2040179D01*
X29960855Y-2073698D01*
X29954288Y-2057766D01*
X29799639Y-1825000D01*
X29602724Y-1626706D01*
X29371044Y-1470436D01*
X29113423Y-1362142D01*
X28839674Y-1305949D01*
X28560224Y-1303998D01*
X28285717Y-1356363D01*
X28026609Y-1461050D01*
X27792769Y-1614070D01*
X27593105Y-1809596D01*
X27435221Y-2040179D01*
X27420855Y-2073698D01*
X27414288Y-2057766D01*
X27259639Y-1825000D01*
X27062724Y-1626706D01*
X26831044Y-1470436D01*
X26573423Y-1362142D01*
X26299674Y-1305949D01*
X26020224Y-1303998D01*
X25745717Y-1356363D01*
X25486609Y-1461050D01*
X25252769Y-1614070D01*
X25053105Y-1809596D01*
X24895221Y-2040179D01*
X24880855Y-2073698D01*
X24874288Y-2057766D01*
X24719639Y-1825000D01*
X24522724Y-1626706D01*
X24291044Y-1470436D01*
X24033423Y-1362142D01*
X23759674Y-1305949D01*
X23480224Y-1303998D01*
X23205717Y-1356363D01*
X22946609Y-1461050D01*
X22712769Y-1614070D01*
X22513105Y-1809596D01*
X22355221Y-2040179D01*
X22340855Y-2073698D01*
X22334288Y-2057766D01*
X22179639Y-1825000D01*
X21982724Y-1626706D01*
X21751044Y-1470436D01*
X21493423Y-1362142D01*
X21219674Y-1305949D01*
X20940224Y-1303998D01*
X20665717Y-1356363D01*
X20406609Y-1461050D01*
X20172769Y-1614070D01*
X19973105Y-1809596D01*
X19815221Y-2040179D01*
X19800855Y-2073698D01*
X19794288Y-2057766D01*
X19639639Y-1825000D01*
X19442724Y-1626706D01*
X19211044Y-1470436D01*
X18953423Y-1362142D01*
X18679674Y-1305949D01*
X18400224Y-1303998D01*
X18125717Y-1356363D01*
X17866609Y-1461050D01*
X17632769Y-1614070D01*
X17433105Y-1809596D01*
X17275221Y-2040179D01*
X17260855Y-2073698D01*
X17254288Y-2057766D01*
X17099639Y-1825000D01*
X16902724Y-1626706D01*
X16671044Y-1470436D01*
X16413423Y-1362142D01*
X16139674Y-1305949D01*
X15860224Y-1303998D01*
X15585717Y-1356363D01*
X15326609Y-1461050D01*
X15092769Y-1614070D01*
X14893105Y-1809596D01*
X14735221Y-2040179D01*
X14720855Y-2073698D01*
X14714288Y-2057766D01*
X14559639Y-1825000D01*
X14362724Y-1626706D01*
X14131044Y-1470436D01*
X13873423Y-1362142D01*
X13599674Y-1305949D01*
X13320224Y-1303998D01*
X13045717Y-1356363D01*
X12786609Y-1461050D01*
X12552769Y-1614070D01*
X12353105Y-1809596D01*
X12195221Y-2040179D01*
X12194197Y-2042568D01*
X12174288Y-1994266D01*
X12019639Y-1761500D01*
X11822724Y-1563206D01*
X11591044Y-1406936D01*
X11333423Y-1298642D01*
X11059674Y-1242449D01*
X10780224Y-1240498D01*
X10505717Y-1292863D01*
X10246609Y-1397550D01*
X10012769Y-1550570D01*
X9813105Y-1746096D01*
X9655221Y-1976679D01*
X9625887Y-2045121D01*
X9479639Y-1825000D01*
X9282724Y-1626706D01*
X9051044Y-1470436D01*
X8793423Y-1362142D01*
X8519674Y-1305949D01*
X8240224Y-1303998D01*
X7965717Y-1356363D01*
X7706609Y-1461050D01*
X7472769Y-1614070D01*
X7273105Y-1809596D01*
X7115221Y-2040179D01*
X7005131Y-2297038D01*
X6947029Y-2570388D01*
X6943127Y-2849818D01*
X6993574Y-3124684D01*
X7096449Y-3384516D01*
X7247833Y-3619418D01*
X7441960Y-3820443D01*
X7671436Y-3979933D01*
X7713447Y-3998287D01*
X7706609Y-4001050D01*
X7472769Y-4154070D01*
X7273105Y-4349596D01*
X7115221Y-4580179D01*
X7005131Y-4837038D01*
X6947029Y-5110388D01*
X6943127Y-5389818D01*
X6993574Y-5664684D01*
X7096449Y-5924516D01*
X7247833Y-6159418D01*
X7441960Y-6360443D01*
X7671436Y-6519933D01*
X7927520Y-6631813D01*
X8200458Y-6691822D01*
X8479854Y-6697675D01*
X8668411Y-6664427D01*
X10378984Y-8375000D01*
X7500000Y-8375000D01*
X7475614Y-8377402D01*
X7452165Y-8384515D01*
X7430554Y-8396066D01*
X7411612Y-8411612D01*
X7402391Y-8421913D01*
X6402391Y-9671913D01*
X6389033Y-9692456D01*
X6379939Y-9715210D01*
X6375000Y-9750000D01*
X6375000Y-13875000D01*
X1652304Y-13875000D01*
X1643239Y-13871865D01*
X1598162Y-13855612D01*
X1594741Y-13855093D01*
X1591468Y-13853961D01*
X1543981Y-13847391D01*
X1496614Y-13840204D01*
X1493157Y-13840359D01*
X1489728Y-13839885D01*
X1441933Y-13842661D01*
X1394008Y-13844814D01*
X1387216Y-13845839D01*
X1387191Y-13845840D01*
X1387170Y-13845845D01*
X1386742Y-13845910D01*
X1338482Y-13853530D01*
X1298242Y-13863991D01*
X1257628Y-13872947D01*
X1252937Y-13875000D01*
X575000Y-13875000D01*
X575000Y-4212309D01*
X971681Y-4212309D01*
X1061070Y-4699352D01*
X1243358Y-5159757D01*
X1511600Y-5575987D01*
X1855579Y-5932188D01*
X2262194Y-6214793D01*
X2715957Y-6413037D01*
X3199583Y-6519369D01*
X3694653Y-6529739D01*
X4182308Y-6443752D01*
X4643974Y-6264684D01*
X5062067Y-5999354D01*
X5420661Y-5657870D01*
X5706097Y-5253238D01*
X5907504Y-4800870D01*
X6017210Y-4317998D01*
X6025108Y-3752411D01*
X5928927Y-3266664D01*
X5740230Y-2808849D01*
X5466202Y-2396405D01*
X5117283Y-2045041D01*
X4706762Y-1768141D01*
X4250275Y-1576251D01*
X3765211Y-1476682D01*
X3270045Y-1473225D01*
X2783638Y-1566012D01*
X2324517Y-1751509D01*
X1910170Y-2022650D01*
X1556379Y-2369108D01*
X1276620Y-2777686D01*
X1081548Y-3232822D01*
X978595Y-3717179D01*
X971681Y-4212309D01*
X575000Y-4212309D01*
X575000Y-3028126D01*
X623889Y-2529517D01*
X760526Y-2076954D01*
X982461Y-1659553D01*
X1281248Y-1293205D01*
X1645500Y-991868D01*
X2061340Y-767025D01*
X2512942Y-627231D01*
X3009883Y-575000D01*
X61971874Y-575000D01*
X62470483Y-623889D01*
G36*
X30625000Y-20000000D02*
X30627402Y-20024386D01*
X30634515Y-20047835D01*
X30646066Y-20069446D01*
X30661612Y-20088388D01*
X30680554Y-20103934D01*
X30702165Y-20115485D01*
X30725614Y-20122598D01*
X30750000Y-20125000D01*
X37125000Y-20125000D01*
X37125000Y-30250000D01*
X37127402Y-30274386D01*
X37134515Y-30297835D01*
X37146066Y-30319446D01*
X37161612Y-30338388D01*
X37180554Y-30353934D01*
X37202165Y-30365485D01*
X37225614Y-30372598D01*
X37250000Y-30375000D01*
X42125000Y-30375000D01*
X42125000Y-35946605D01*
X41931125Y-35927595D01*
X41906016Y-35927595D01*
X41881053Y-35924882D01*
X41873023Y-35924853D01*
X41866042Y-35924877D01*
X41841030Y-35927416D01*
X41815889Y-35927241D01*
X41807898Y-35928025D01*
X41613801Y-35948426D01*
X41562795Y-35958897D01*
X41511533Y-35968675D01*
X41503846Y-35970997D01*
X41317408Y-36028708D01*
X41269336Y-36048916D01*
X41221020Y-36068437D01*
X41213929Y-36072207D01*
X41042253Y-36165032D01*
X40999064Y-36194163D01*
X40955414Y-36222727D01*
X40949191Y-36227802D01*
X40798814Y-36352206D01*
X40762115Y-36389162D01*
X40724838Y-36425667D01*
X40719720Y-36431854D01*
X40596370Y-36583096D01*
X40567536Y-36626495D01*
X40538071Y-36669528D01*
X40534252Y-36676592D01*
X40442626Y-36848914D01*
X40422767Y-36897097D01*
X40402226Y-36945022D01*
X40399852Y-36952693D01*
X40343443Y-37139530D01*
X40333327Y-37190619D01*
X40322479Y-37241655D01*
X40321640Y-37249641D01*
X40302595Y-37443875D01*
X40302595Y-37467996D01*
X40299906Y-37491970D01*
X40299850Y-37500000D01*
X40299850Y-52500000D01*
X40299860Y-52500100D01*
X40299853Y-52501977D01*
X40299877Y-52508958D01*
X40300000Y-52510170D01*
X40300000Y-55924850D01*
X24800000Y-55924850D01*
X24800000Y-51441301D01*
X25158360Y-51441301D01*
X25238904Y-51880151D01*
X25403154Y-52294998D01*
X25644853Y-52670042D01*
X25954796Y-52990997D01*
X26321176Y-53245638D01*
X26730038Y-53424265D01*
X27165810Y-53520076D01*
X27611892Y-53529420D01*
X28051293Y-53451942D01*
X28467277Y-53290592D01*
X28843999Y-53051517D01*
X29167110Y-52743823D01*
X29424303Y-52379229D01*
X29605780Y-51971624D01*
X29704631Y-51536532D01*
X29705960Y-51441301D01*
X35285360Y-51441301D01*
X35365904Y-51880151D01*
X35530154Y-52294998D01*
X35771853Y-52670042D01*
X36081796Y-52990997D01*
X36448176Y-53245638D01*
X36857038Y-53424265D01*
X37292810Y-53520076D01*
X37738892Y-53529420D01*
X38178293Y-53451942D01*
X38594277Y-53290592D01*
X38970999Y-53051517D01*
X39294110Y-52743823D01*
X39551303Y-52379229D01*
X39732780Y-51971624D01*
X39831631Y-51536532D01*
X39838747Y-51026910D01*
X39752084Y-50589228D01*
X39582058Y-50176714D01*
X39335146Y-49805081D01*
X39020752Y-49488485D01*
X38650852Y-49238984D01*
X38239535Y-49066083D01*
X37802469Y-48976366D01*
X37356300Y-48973251D01*
X36918023Y-49056857D01*
X36504332Y-49223999D01*
X36130985Y-49468310D01*
X35812201Y-49780486D01*
X35560124Y-50148635D01*
X35384356Y-50558735D01*
X35291590Y-50995164D01*
X35285360Y-51441301D01*
X29705960Y-51441301D01*
X29711747Y-51026910D01*
X29625084Y-50589228D01*
X29455058Y-50176714D01*
X29208146Y-49805081D01*
X28893752Y-49488485D01*
X28523852Y-49238984D01*
X28112535Y-49066083D01*
X27675469Y-48976366D01*
X27229300Y-48973251D01*
X26791023Y-49056857D01*
X26377332Y-49223999D01*
X26003985Y-49468310D01*
X25685201Y-49780486D01*
X25433124Y-50148635D01*
X25257356Y-50558735D01*
X25164590Y-50995164D01*
X25158360Y-51441301D01*
X24800000Y-51441301D01*
X24800000Y-45270000D01*
X31008810Y-45270000D01*
X31008810Y-47070000D01*
X31018949Y-47172947D01*
X31048978Y-47271938D01*
X31097742Y-47363169D01*
X31163367Y-47443133D01*
X31243331Y-47508758D01*
X31334562Y-47557522D01*
X31433553Y-47587551D01*
X31536500Y-47597690D01*
X33336500Y-47597690D01*
X33439447Y-47587551D01*
X33538438Y-47557522D01*
X33629669Y-47508758D01*
X33709633Y-47443133D01*
X33775258Y-47363169D01*
X33824022Y-47271938D01*
X33854051Y-47172947D01*
X33864190Y-47070000D01*
X33864190Y-46877925D01*
X33981215Y-47059512D01*
X34175362Y-47260558D01*
X34404863Y-47420065D01*
X34660973Y-47531957D01*
X34933940Y-47591972D01*
X35213365Y-47597825D01*
X35488606Y-47549293D01*
X35749177Y-47448224D01*
X35985156Y-47298468D01*
X36187552Y-47105728D01*
X36348657Y-46877347D01*
X36462334Y-46622024D01*
X36524254Y-46349483D01*
X36528711Y-46030257D01*
X36474426Y-45756093D01*
X36367922Y-45497695D01*
X36213256Y-45264905D01*
X36016320Y-45066590D01*
X35784616Y-44910303D01*
X35526968Y-44801997D01*
X35253190Y-44745799D01*
X34973710Y-44743848D01*
X34699174Y-44796218D01*
X34440039Y-44900916D01*
X34206175Y-45053952D01*
X34006489Y-45249499D01*
X33864190Y-45457322D01*
X33864190Y-45270000D01*
X33854051Y-45167053D01*
X33824022Y-45068062D01*
X33775258Y-44976831D01*
X33709633Y-44896867D01*
X33629669Y-44831242D01*
X33538438Y-44782478D01*
X33439447Y-44752449D01*
X33336500Y-44742310D01*
X31536500Y-44742310D01*
X31433553Y-44752449D01*
X31334562Y-44782478D01*
X31243331Y-44831242D01*
X31163367Y-44896867D01*
X31097742Y-44976831D01*
X31048978Y-45068062D01*
X31018949Y-45167053D01*
X31008810Y-45270000D01*
X24800000Y-45270000D01*
X24800000Y-42247218D01*
X28683174Y-42247218D01*
X28728316Y-42493180D01*
X28820373Y-42725689D01*
X28955838Y-42935889D01*
X29129551Y-43115774D01*
X29334896Y-43258493D01*
X29564050Y-43358608D01*
X29808287Y-43412307D01*
X30058302Y-43417544D01*
X30304572Y-43374119D01*
X30537718Y-43283688D01*
X30748859Y-43149694D01*
X30929953Y-42977241D01*
X31074101Y-42772898D01*
X31175814Y-42544447D01*
X31231216Y-42300592D01*
X31233318Y-42150088D01*
X31268316Y-42340780D01*
X31360373Y-42573289D01*
X31495838Y-42783489D01*
X31669551Y-42963374D01*
X31874896Y-43106093D01*
X32104050Y-43206208D01*
X32348287Y-43259907D01*
X32598302Y-43265144D01*
X32844572Y-43221719D01*
X33077718Y-43131288D01*
X33288859Y-42997294D01*
X33469953Y-42824841D01*
X33614101Y-42620498D01*
X33715814Y-42392047D01*
X33764121Y-42179423D01*
X33763174Y-42247218D01*
X33808316Y-42493180D01*
X33900373Y-42725689D01*
X34035838Y-42935889D01*
X34209551Y-43115774D01*
X34414896Y-43258493D01*
X34644050Y-43358608D01*
X34888287Y-43412307D01*
X35138302Y-43417544D01*
X35384572Y-43374119D01*
X35617718Y-43283688D01*
X35828859Y-43149694D01*
X36009953Y-42977241D01*
X36154101Y-42772898D01*
X36255814Y-42544447D01*
X36311216Y-42300592D01*
X36315205Y-42014965D01*
X36266633Y-41769658D01*
X36171338Y-41538457D01*
X36032952Y-41330168D01*
X35856744Y-41152726D01*
X35649427Y-41012889D01*
X35418897Y-40915983D01*
X35173934Y-40865699D01*
X34923871Y-40863953D01*
X34678230Y-40910812D01*
X34446370Y-41004490D01*
X34237120Y-41141419D01*
X34058452Y-41316383D01*
X33917171Y-41522719D01*
X33818658Y-41752567D01*
X33773793Y-41963636D01*
X33775205Y-41862565D01*
X33726633Y-41617258D01*
X33631338Y-41386057D01*
X33492952Y-41177768D01*
X33316744Y-41000326D01*
X33109427Y-40860489D01*
X32878897Y-40763583D01*
X32633934Y-40713299D01*
X32383871Y-40711553D01*
X32138230Y-40758412D01*
X31906370Y-40852090D01*
X31697120Y-40989019D01*
X31518452Y-41163983D01*
X31377171Y-41370319D01*
X31278658Y-41600167D01*
X31226665Y-41844773D01*
X31225008Y-41963466D01*
X31186633Y-41769658D01*
X31091338Y-41538457D01*
X30952952Y-41330168D01*
X30776744Y-41152726D01*
X30569427Y-41012889D01*
X30338897Y-40915983D01*
X30093934Y-40865699D01*
X29843871Y-40863953D01*
X29598230Y-40910812D01*
X29366370Y-41004490D01*
X29157120Y-41141419D01*
X28978452Y-41316383D01*
X28837171Y-41522719D01*
X28738658Y-41752567D01*
X28686665Y-41997173D01*
X28683174Y-42247218D01*
X24800000Y-42247218D01*
X24800000Y-25317187D01*
X29185246Y-25317187D01*
X29251050Y-25555254D01*
X29497855Y-25670597D01*
X29762420Y-25735574D01*
X30034577Y-25747689D01*
X30303869Y-25706476D01*
X30559946Y-25613518D01*
X30668950Y-25555254D01*
X30734754Y-25317187D01*
X29960000Y-24542434D01*
X29185246Y-25317187D01*
X24800000Y-25317187D01*
X24800000Y-24434577D01*
X28572311Y-24434577D01*
X28613524Y-24703869D01*
X28706482Y-24959946D01*
X28764746Y-25068950D01*
X29002813Y-25134754D01*
X29777566Y-24360000D01*
X30142434Y-24360000D01*
X30917187Y-25134754D01*
X31155254Y-25068950D01*
X31270597Y-24822145D01*
X31309340Y-24664395D01*
X31360373Y-24793289D01*
X31495838Y-25003489D01*
X31669551Y-25183374D01*
X31874896Y-25326093D01*
X32104050Y-25426208D01*
X32348287Y-25479907D01*
X32598302Y-25485144D01*
X32844572Y-25441719D01*
X33077718Y-25351288D01*
X33288859Y-25217294D01*
X33469953Y-25044841D01*
X33614101Y-24840498D01*
X33715814Y-24612047D01*
X33764121Y-24399423D01*
X33763174Y-24467218D01*
X33808316Y-24713180D01*
X33900373Y-24945689D01*
X34035838Y-25155889D01*
X34209551Y-25335774D01*
X34414896Y-25478493D01*
X34644050Y-25578608D01*
X34888287Y-25632307D01*
X35138302Y-25637544D01*
X35384572Y-25594119D01*
X35617718Y-25503688D01*
X35828859Y-25369694D01*
X36009953Y-25197241D01*
X36154101Y-24992898D01*
X36255814Y-24764447D01*
X36311216Y-24520592D01*
X36315205Y-24234965D01*
X36266633Y-23989658D01*
X36171338Y-23758457D01*
X36032952Y-23550168D01*
X35856744Y-23372726D01*
X35649427Y-23232889D01*
X35418897Y-23135983D01*
X35173934Y-23085699D01*
X34923871Y-23083953D01*
X34678230Y-23130812D01*
X34446370Y-23224490D01*
X34237120Y-23361419D01*
X34058452Y-23536383D01*
X33917171Y-23742719D01*
X33818658Y-23972567D01*
X33773793Y-24183636D01*
X33775205Y-24082565D01*
X33726633Y-23837258D01*
X33631338Y-23606057D01*
X33492952Y-23397768D01*
X33316744Y-23220326D01*
X33109427Y-23080489D01*
X32878897Y-22983583D01*
X32633934Y-22933299D01*
X32383871Y-22931553D01*
X32138230Y-22978412D01*
X31906370Y-23072090D01*
X31697120Y-23209019D01*
X31518452Y-23383983D01*
X31377171Y-23590319D01*
X31278658Y-23820167D01*
X31262660Y-23895429D01*
X31213518Y-23760054D01*
X31155254Y-23651050D01*
X30917187Y-23585246D01*
X30142434Y-24360000D01*
X29777566Y-24360000D01*
X29002813Y-23585246D01*
X28764746Y-23651050D01*
X28649403Y-23897855D01*
X28584426Y-24162420D01*
X28572311Y-24434577D01*
X24800000Y-24434577D01*
X24800000Y-23402813D01*
X29185246Y-23402813D01*
X29960000Y-24177566D01*
X30734754Y-23402813D01*
X30668950Y-23164746D01*
X30422145Y-23049403D01*
X30157580Y-22984426D01*
X29885423Y-22972311D01*
X29616131Y-23013524D01*
X29360054Y-23106482D01*
X29251050Y-23164746D01*
X29185246Y-23402813D01*
X24800000Y-23402813D01*
X24800000Y-21875000D01*
X26750000Y-21875000D01*
X26774386Y-21872598D01*
X26797835Y-21865485D01*
X26819446Y-21853934D01*
X26838388Y-21838388D01*
X26853934Y-21819446D01*
X26865485Y-21797835D01*
X26872598Y-21774386D01*
X26875000Y-21750000D01*
X26875000Y-14300150D01*
X30625000Y-14300150D01*
X30625000Y-20000000D01*
X30625000Y-20000000D01*
G37*
X30625000Y-20000000D02*
X30627402Y-20024386D01*
X30634515Y-20047835D01*
X30646066Y-20069446D01*
X30661612Y-20088388D01*
X30680554Y-20103934D01*
X30702165Y-20115485D01*
X30725614Y-20122598D01*
X30750000Y-20125000D01*
X37125000Y-20125000D01*
X37125000Y-30250000D01*
X37127402Y-30274386D01*
X37134515Y-30297835D01*
X37146066Y-30319446D01*
X37161612Y-30338388D01*
X37180554Y-30353934D01*
X37202165Y-30365485D01*
X37225614Y-30372598D01*
X37250000Y-30375000D01*
X42125000Y-30375000D01*
X42125000Y-35946605D01*
X41931125Y-35927595D01*
X41906016Y-35927595D01*
X41881053Y-35924882D01*
X41873023Y-35924853D01*
X41866042Y-35924877D01*
X41841030Y-35927416D01*
X41815889Y-35927241D01*
X41807898Y-35928025D01*
X41613801Y-35948426D01*
X41562795Y-35958897D01*
X41511533Y-35968675D01*
X41503846Y-35970997D01*
X41317408Y-36028708D01*
X41269336Y-36048916D01*
X41221020Y-36068437D01*
X41213929Y-36072207D01*
X41042253Y-36165032D01*
X40999064Y-36194163D01*
X40955414Y-36222727D01*
X40949191Y-36227802D01*
X40798814Y-36352206D01*
X40762115Y-36389162D01*
X40724838Y-36425667D01*
X40719720Y-36431854D01*
X40596370Y-36583096D01*
X40567536Y-36626495D01*
X40538071Y-36669528D01*
X40534252Y-36676592D01*
X40442626Y-36848914D01*
X40422767Y-36897097D01*
X40402226Y-36945022D01*
X40399852Y-36952693D01*
X40343443Y-37139530D01*
X40333327Y-37190619D01*
X40322479Y-37241655D01*
X40321640Y-37249641D01*
X40302595Y-37443875D01*
X40302595Y-37467996D01*
X40299906Y-37491970D01*
X40299850Y-37500000D01*
X40299850Y-52500000D01*
X40299860Y-52500100D01*
X40299853Y-52501977D01*
X40299877Y-52508958D01*
X40300000Y-52510170D01*
X40300000Y-55924850D01*
X24800000Y-55924850D01*
X24800000Y-51441301D01*
X25158360Y-51441301D01*
X25238904Y-51880151D01*
X25403154Y-52294998D01*
X25644853Y-52670042D01*
X25954796Y-52990997D01*
X26321176Y-53245638D01*
X26730038Y-53424265D01*
X27165810Y-53520076D01*
X27611892Y-53529420D01*
X28051293Y-53451942D01*
X28467277Y-53290592D01*
X28843999Y-53051517D01*
X29167110Y-52743823D01*
X29424303Y-52379229D01*
X29605780Y-51971624D01*
X29704631Y-51536532D01*
X29705960Y-51441301D01*
X35285360Y-51441301D01*
X35365904Y-51880151D01*
X35530154Y-52294998D01*
X35771853Y-52670042D01*
X36081796Y-52990997D01*
X36448176Y-53245638D01*
X36857038Y-53424265D01*
X37292810Y-53520076D01*
X37738892Y-53529420D01*
X38178293Y-53451942D01*
X38594277Y-53290592D01*
X38970999Y-53051517D01*
X39294110Y-52743823D01*
X39551303Y-52379229D01*
X39732780Y-51971624D01*
X39831631Y-51536532D01*
X39838747Y-51026910D01*
X39752084Y-50589228D01*
X39582058Y-50176714D01*
X39335146Y-49805081D01*
X39020752Y-49488485D01*
X38650852Y-49238984D01*
X38239535Y-49066083D01*
X37802469Y-48976366D01*
X37356300Y-48973251D01*
X36918023Y-49056857D01*
X36504332Y-49223999D01*
X36130985Y-49468310D01*
X35812201Y-49780486D01*
X35560124Y-50148635D01*
X35384356Y-50558735D01*
X35291590Y-50995164D01*
X35285360Y-51441301D01*
X29705960Y-51441301D01*
X29711747Y-51026910D01*
X29625084Y-50589228D01*
X29455058Y-50176714D01*
X29208146Y-49805081D01*
X28893752Y-49488485D01*
X28523852Y-49238984D01*
X28112535Y-49066083D01*
X27675469Y-48976366D01*
X27229300Y-48973251D01*
X26791023Y-49056857D01*
X26377332Y-49223999D01*
X26003985Y-49468310D01*
X25685201Y-49780486D01*
X25433124Y-50148635D01*
X25257356Y-50558735D01*
X25164590Y-50995164D01*
X25158360Y-51441301D01*
X24800000Y-51441301D01*
X24800000Y-45270000D01*
X31008810Y-45270000D01*
X31008810Y-47070000D01*
X31018949Y-47172947D01*
X31048978Y-47271938D01*
X31097742Y-47363169D01*
X31163367Y-47443133D01*
X31243331Y-47508758D01*
X31334562Y-47557522D01*
X31433553Y-47587551D01*
X31536500Y-47597690D01*
X33336500Y-47597690D01*
X33439447Y-47587551D01*
X33538438Y-47557522D01*
X33629669Y-47508758D01*
X33709633Y-47443133D01*
X33775258Y-47363169D01*
X33824022Y-47271938D01*
X33854051Y-47172947D01*
X33864190Y-47070000D01*
X33864190Y-46877925D01*
X33981215Y-47059512D01*
X34175362Y-47260558D01*
X34404863Y-47420065D01*
X34660973Y-47531957D01*
X34933940Y-47591972D01*
X35213365Y-47597825D01*
X35488606Y-47549293D01*
X35749177Y-47448224D01*
X35985156Y-47298468D01*
X36187552Y-47105728D01*
X36348657Y-46877347D01*
X36462334Y-46622024D01*
X36524254Y-46349483D01*
X36528711Y-46030257D01*
X36474426Y-45756093D01*
X36367922Y-45497695D01*
X36213256Y-45264905D01*
X36016320Y-45066590D01*
X35784616Y-44910303D01*
X35526968Y-44801997D01*
X35253190Y-44745799D01*
X34973710Y-44743848D01*
X34699174Y-44796218D01*
X34440039Y-44900916D01*
X34206175Y-45053952D01*
X34006489Y-45249499D01*
X33864190Y-45457322D01*
X33864190Y-45270000D01*
X33854051Y-45167053D01*
X33824022Y-45068062D01*
X33775258Y-44976831D01*
X33709633Y-44896867D01*
X33629669Y-44831242D01*
X33538438Y-44782478D01*
X33439447Y-44752449D01*
X33336500Y-44742310D01*
X31536500Y-44742310D01*
X31433553Y-44752449D01*
X31334562Y-44782478D01*
X31243331Y-44831242D01*
X31163367Y-44896867D01*
X31097742Y-44976831D01*
X31048978Y-45068062D01*
X31018949Y-45167053D01*
X31008810Y-45270000D01*
X24800000Y-45270000D01*
X24800000Y-42247218D01*
X28683174Y-42247218D01*
X28728316Y-42493180D01*
X28820373Y-42725689D01*
X28955838Y-42935889D01*
X29129551Y-43115774D01*
X29334896Y-43258493D01*
X29564050Y-43358608D01*
X29808287Y-43412307D01*
X30058302Y-43417544D01*
X30304572Y-43374119D01*
X30537718Y-43283688D01*
X30748859Y-43149694D01*
X30929953Y-42977241D01*
X31074101Y-42772898D01*
X31175814Y-42544447D01*
X31231216Y-42300592D01*
X31233318Y-42150088D01*
X31268316Y-42340780D01*
X31360373Y-42573289D01*
X31495838Y-42783489D01*
X31669551Y-42963374D01*
X31874896Y-43106093D01*
X32104050Y-43206208D01*
X32348287Y-43259907D01*
X32598302Y-43265144D01*
X32844572Y-43221719D01*
X33077718Y-43131288D01*
X33288859Y-42997294D01*
X33469953Y-42824841D01*
X33614101Y-42620498D01*
X33715814Y-42392047D01*
X33764121Y-42179423D01*
X33763174Y-42247218D01*
X33808316Y-42493180D01*
X33900373Y-42725689D01*
X34035838Y-42935889D01*
X34209551Y-43115774D01*
X34414896Y-43258493D01*
X34644050Y-43358608D01*
X34888287Y-43412307D01*
X35138302Y-43417544D01*
X35384572Y-43374119D01*
X35617718Y-43283688D01*
X35828859Y-43149694D01*
X36009953Y-42977241D01*
X36154101Y-42772898D01*
X36255814Y-42544447D01*
X36311216Y-42300592D01*
X36315205Y-42014965D01*
X36266633Y-41769658D01*
X36171338Y-41538457D01*
X36032952Y-41330168D01*
X35856744Y-41152726D01*
X35649427Y-41012889D01*
X35418897Y-40915983D01*
X35173934Y-40865699D01*
X34923871Y-40863953D01*
X34678230Y-40910812D01*
X34446370Y-41004490D01*
X34237120Y-41141419D01*
X34058452Y-41316383D01*
X33917171Y-41522719D01*
X33818658Y-41752567D01*
X33773793Y-41963636D01*
X33775205Y-41862565D01*
X33726633Y-41617258D01*
X33631338Y-41386057D01*
X33492952Y-41177768D01*
X33316744Y-41000326D01*
X33109427Y-40860489D01*
X32878897Y-40763583D01*
X32633934Y-40713299D01*
X32383871Y-40711553D01*
X32138230Y-40758412D01*
X31906370Y-40852090D01*
X31697120Y-40989019D01*
X31518452Y-41163983D01*
X31377171Y-41370319D01*
X31278658Y-41600167D01*
X31226665Y-41844773D01*
X31225008Y-41963466D01*
X31186633Y-41769658D01*
X31091338Y-41538457D01*
X30952952Y-41330168D01*
X30776744Y-41152726D01*
X30569427Y-41012889D01*
X30338897Y-40915983D01*
X30093934Y-40865699D01*
X29843871Y-40863953D01*
X29598230Y-40910812D01*
X29366370Y-41004490D01*
X29157120Y-41141419D01*
X28978452Y-41316383D01*
X28837171Y-41522719D01*
X28738658Y-41752567D01*
X28686665Y-41997173D01*
X28683174Y-42247218D01*
X24800000Y-42247218D01*
X24800000Y-25317187D01*
X29185246Y-25317187D01*
X29251050Y-25555254D01*
X29497855Y-25670597D01*
X29762420Y-25735574D01*
X30034577Y-25747689D01*
X30303869Y-25706476D01*
X30559946Y-25613518D01*
X30668950Y-25555254D01*
X30734754Y-25317187D01*
X29960000Y-24542434D01*
X29185246Y-25317187D01*
X24800000Y-25317187D01*
X24800000Y-24434577D01*
X28572311Y-24434577D01*
X28613524Y-24703869D01*
X28706482Y-24959946D01*
X28764746Y-25068950D01*
X29002813Y-25134754D01*
X29777566Y-24360000D01*
X30142434Y-24360000D01*
X30917187Y-25134754D01*
X31155254Y-25068950D01*
X31270597Y-24822145D01*
X31309340Y-24664395D01*
X31360373Y-24793289D01*
X31495838Y-25003489D01*
X31669551Y-25183374D01*
X31874896Y-25326093D01*
X32104050Y-25426208D01*
X32348287Y-25479907D01*
X32598302Y-25485144D01*
X32844572Y-25441719D01*
X33077718Y-25351288D01*
X33288859Y-25217294D01*
X33469953Y-25044841D01*
X33614101Y-24840498D01*
X33715814Y-24612047D01*
X33764121Y-24399423D01*
X33763174Y-24467218D01*
X33808316Y-24713180D01*
X33900373Y-24945689D01*
X34035838Y-25155889D01*
X34209551Y-25335774D01*
X34414896Y-25478493D01*
X34644050Y-25578608D01*
X34888287Y-25632307D01*
X35138302Y-25637544D01*
X35384572Y-25594119D01*
X35617718Y-25503688D01*
X35828859Y-25369694D01*
X36009953Y-25197241D01*
X36154101Y-24992898D01*
X36255814Y-24764447D01*
X36311216Y-24520592D01*
X36315205Y-24234965D01*
X36266633Y-23989658D01*
X36171338Y-23758457D01*
X36032952Y-23550168D01*
X35856744Y-23372726D01*
X35649427Y-23232889D01*
X35418897Y-23135983D01*
X35173934Y-23085699D01*
X34923871Y-23083953D01*
X34678230Y-23130812D01*
X34446370Y-23224490D01*
X34237120Y-23361419D01*
X34058452Y-23536383D01*
X33917171Y-23742719D01*
X33818658Y-23972567D01*
X33773793Y-24183636D01*
X33775205Y-24082565D01*
X33726633Y-23837258D01*
X33631338Y-23606057D01*
X33492952Y-23397768D01*
X33316744Y-23220326D01*
X33109427Y-23080489D01*
X32878897Y-22983583D01*
X32633934Y-22933299D01*
X32383871Y-22931553D01*
X32138230Y-22978412D01*
X31906370Y-23072090D01*
X31697120Y-23209019D01*
X31518452Y-23383983D01*
X31377171Y-23590319D01*
X31278658Y-23820167D01*
X31262660Y-23895429D01*
X31213518Y-23760054D01*
X31155254Y-23651050D01*
X30917187Y-23585246D01*
X30142434Y-24360000D01*
X29777566Y-24360000D01*
X29002813Y-23585246D01*
X28764746Y-23651050D01*
X28649403Y-23897855D01*
X28584426Y-24162420D01*
X28572311Y-24434577D01*
X24800000Y-24434577D01*
X24800000Y-23402813D01*
X29185246Y-23402813D01*
X29960000Y-24177566D01*
X30734754Y-23402813D01*
X30668950Y-23164746D01*
X30422145Y-23049403D01*
X30157580Y-22984426D01*
X29885423Y-22972311D01*
X29616131Y-23013524D01*
X29360054Y-23106482D01*
X29251050Y-23164746D01*
X29185246Y-23402813D01*
X24800000Y-23402813D01*
X24800000Y-21875000D01*
X26750000Y-21875000D01*
X26774386Y-21872598D01*
X26797835Y-21865485D01*
X26819446Y-21853934D01*
X26838388Y-21838388D01*
X26853934Y-21819446D01*
X26865485Y-21797835D01*
X26872598Y-21774386D01*
X26875000Y-21750000D01*
X26875000Y-14300150D01*
X30625000Y-14300150D01*
X30625000Y-20000000D01*
M02*
