G04 #@! TF.GenerationSoftware,KiCad,Pcbnew,no-vcs-found-7434~57~ubuntu14.04.1*
G04 #@! TF.CreationDate,2017-01-31T00:07:02+01:00*
G04 #@! TF.ProjectId,tentacle-raspi,74656E7461636C652D72617370692E6B,1.0*
G04 #@! TF.FileFunction,Profile,NP*
%FSLAX46Y46*%
G04 Gerber Fmt 4.6, Leading zero omitted, Abs format (unit mm)*
G04 Created by KiCad (PCBNEW no-vcs-found-7434~57~ubuntu14.04.1) date Tue Jan 31 00:07:02 2017*
%MOMM*%
%LPD*%
G01*
G04 APERTURE LIST*
%ADD10C,0.150000*%
%ADD11C,0.100000*%
G04 APERTURE END LIST*
D10*
D11*
X-9375000Y-32500000D02*
G75*
G03X-10375000Y-33500000I0J-1000000D01*
G01*
X-8375000Y-33500000D02*
G75*
G03X-9375000Y-32500000I-1000000J0D01*
G01*
X-9375000Y-49500000D02*
G75*
G03X-8375000Y-48500000I0J1000000D01*
G01*
X-10375000Y-48500000D02*
G75*
G03X-9375000Y-49500000I1000000J0D01*
G01*
X-8375000Y-48500000D02*
X-8375000Y-33500000D01*
X-10375000Y-48500000D02*
X-10375000Y-33500000D01*
X8375000Y-48500000D02*
X8375000Y-33500000D01*
X10375000Y-48500000D02*
X10375000Y-33500000D01*
X8375000Y-48500000D02*
G75*
G03X9375000Y-49500000I1000000J0D01*
G01*
X9375000Y-49500000D02*
G75*
G03X10375000Y-48500000I0J1000000D01*
G01*
X10375000Y-33500000D02*
G75*
G03X9375000Y-32500000I-1000000J0D01*
G01*
X9375000Y-32500000D02*
G75*
G03X8375000Y-33500000I0J-1000000D01*
G01*
X-32500000Y-15000000D02*
X-32500000Y1000000D01*
X-28500000Y-16000000D02*
X-31500000Y-16000000D01*
X-27500000Y-32000000D02*
X-27500000Y-17000000D01*
X-31500000Y-33000000D02*
X-28500000Y-33000000D01*
X-32500000Y-49500000D02*
X-32500000Y-34000000D01*
X29500000Y-52500000D02*
X-29500000Y-52500000D01*
X32500000Y1000000D02*
X32500000Y-49500000D01*
X-29500000Y4000000D02*
X29500000Y4000000D01*
X-29500000Y4000000D02*
G75*
G03X-32500000Y1000000I0J-3000000D01*
G01*
X32500000Y1000000D02*
G75*
G03X29500000Y4000000I-3000000J0D01*
G01*
X29500000Y-52500000D02*
G75*
G03X32500000Y-49500000I0J3000000D01*
G01*
X-32500000Y-49500000D02*
G75*
G03X-29500000Y-52500000I3000000J0D01*
G01*
X-31500000Y-33000000D02*
G75*
G03X-32500000Y-34000000I0J-1000000D01*
G01*
X-28500000Y-33000000D02*
G75*
G03X-27500000Y-32000000I0J1000000D01*
G01*
X-27500000Y-17000000D02*
G75*
G03X-28500000Y-16000000I-1000000J0D01*
G01*
X-32500000Y-15000000D02*
G75*
G03X-31500000Y-16000000I1000000J0D01*
G01*
M02*
